<svg width="80" height="80" viewBox="0 0 80 80" fill="none" xmlns="http://www.w3.org/2000/svg">
<g id="Mobile App">
<path id="Vector" d="M36.2309 8.68953C36.1127 8.57394 36.0186 8.43605 35.9541 8.28384C35.8895 8.13163 35.8558 7.96813 35.8549 7.80281C35.854 7.63748 35.8858 7.47361 35.9487 7.32069C36.0115 7.16777 36.1041 7.02883 36.221 6.91193C36.3379 6.79502 36.4768 6.70247 36.6298 6.63963C36.7827 6.57679 36.9465 6.54491 37.1119 6.54583C37.2772 6.54676 37.4407 6.58047 37.5929 6.64502C37.7451 6.70957 37.883 6.80367 37.9986 6.92188L39.3931 8.31625L41.9108 5.20375C42.1193 4.94602 42.4216 4.78167 42.7513 4.74686C43.081 4.71205 43.411 4.80962 43.6688 5.01813C43.9265 5.22663 44.0908 5.52898 44.1256 5.85867C44.1605 6.18835 44.0629 6.51836 43.8544 6.77609L40.4631 10.9686C40.3459 11.1134 40.1978 11.2303 40.0297 11.3105C39.8615 11.3908 39.6776 11.4325 39.4912 11.4325C39.1598 11.4325 38.8419 11.3008 38.6075 11.0664L36.2309 8.68953ZM73.2222 34.5713C72.9644 34.3628 72.6344 34.2652 72.3048 34.3C71.9751 34.3349 71.6728 34.4992 71.4642 34.7569L68.9464 37.8694L67.5519 36.475C67.4363 36.3568 67.2984 36.2627 67.1462 36.1981C66.994 36.1336 66.8305 36.0999 66.6651 36.099C66.4998 36.098 66.336 36.1299 66.183 36.1928C66.0301 36.2556 65.8912 36.3481 65.7743 36.4651C65.6574 36.582 65.5648 36.7209 65.502 36.8738C65.4391 37.0267 65.4072 37.1906 65.4082 37.3559C65.4091 37.5213 65.4428 37.6848 65.5074 37.837C65.5719 37.9892 65.666 38.1271 65.7842 38.2427L68.1608 40.6194C68.2847 40.7433 68.4333 40.8397 68.5969 40.9025C68.7604 40.9652 68.9354 40.9929 69.1104 40.9837C69.2853 40.9744 69.4564 40.9285 69.6125 40.8489C69.7686 40.7693 69.9062 40.6578 70.0164 40.5216L73.4078 36.3291C73.511 36.2015 73.5881 36.0548 73.6347 35.8974C73.6812 35.74 73.6963 35.5749 73.6791 35.4117C73.6618 35.2485 73.6126 35.0902 73.5342 34.946C73.4558 34.8018 73.3498 34.6745 73.2222 34.5713ZM77.6381 32.2186V43.0602C77.6381 44.5297 76.4425 45.7255 74.9728 45.7255H69.7259C67.8008 52.8344 63.4266 58.9634 57.2969 63.1267V76.2448C57.2969 78.3155 55.6122 80 53.5416 80H26.9173C24.8467 80 23.162 78.3155 23.162 76.2448V63.4341C16.8758 59.3187 12.2362 52.9388 10.2722 45.7255H5.02469C3.555 45.7255 2.35938 44.5298 2.35938 43.0602V32.2186C2.35938 30.7489 3.555 29.5533 5.02469 29.5533H10.2703C11.6717 24.3891 14.4062 19.6717 18.2188 15.8592C22.0312 12.0469 26.7486 9.3125 31.9128 7.91094V2.66531C31.9128 1.19563 33.1083 0 34.578 0H45.4195C46.8892 0 48.0848 1.19563 48.0848 2.66531V7.91094C53.2491 9.31234 57.9664 12.0467 61.7789 15.8594C65.5913 19.6717 68.3256 24.3892 69.7272 29.5534H74.9728C76.4425 29.5533 77.6381 30.7489 77.6381 32.2186ZM34.4128 13.5069C34.4128 13.5948 34.49 13.6722 34.5781 13.6722H45.4197C45.5077 13.6722 45.585 13.595 45.585 13.5069V2.66531C45.585 2.57734 45.5078 2.5 45.4197 2.5H34.5781C34.4902 2.5 34.4128 2.57719 34.4128 2.66531V13.5069ZM5.02469 43.2255H15.8663C15.9542 43.2255 16.0316 43.1483 16.0316 43.0602V32.2186C16.0316 32.1306 15.9544 32.0533 15.8663 32.0533H5.02469C4.93672 32.0533 4.85938 32.1305 4.85938 32.2186V43.0602C4.85938 43.1481 4.93672 43.2255 5.02469 43.2255ZM54.7969 23.3983C54.7969 22.7061 54.2338 22.143 53.5416 22.143H50.0478L49.1188 25.0022C49.0372 25.2532 48.8782 25.472 48.6647 25.6272C48.4511 25.7823 48.194 25.8659 47.93 25.8659H32.5287C32.2648 25.866 32.0076 25.7824 31.794 25.6272C31.5805 25.4721 31.4215 25.2533 31.34 25.0022L30.4109 22.143H26.9173C26.2252 22.143 25.662 22.7061 25.662 23.3983V76.2448C25.662 76.937 26.2252 77.5 26.9173 77.5H53.5416C54.2338 77.5 54.7969 76.9369 54.7969 76.2448V23.3983ZM33.437 23.3659H47.0219L47.4192 22.143H33.0395L33.437 23.3659ZM67.1277 45.7255H64.1312C62.6616 45.7255 61.4659 44.5298 61.4659 43.0602V32.2186C61.4659 30.7489 62.6616 29.5533 64.1312 29.5533H67.1234C64.4109 20.4755 57.1622 13.2269 48.0847 10.5145V13.5069C48.0847 14.9766 46.8891 16.1722 45.4194 16.1722H34.5778C33.1081 16.1722 31.9125 14.9766 31.9125 13.5069V10.5147C22.8348 13.2272 15.5861 20.4759 12.8737 29.5534H15.8661C17.3358 29.5534 18.5314 30.7491 18.5314 32.2188V43.0603C18.5314 44.5298 17.3358 45.7256 15.8661 45.7256H12.8717C14.6141 51.5522 18.2637 56.7433 23.162 60.3852V23.3983C23.162 21.3277 24.8467 19.643 26.9173 19.643H53.5416C55.6122 19.643 57.2969 21.3275 57.2969 23.3983V60.04C62.0141 56.403 65.4367 51.4256 67.1277 45.7255ZM75.1381 32.2186C75.1381 32.1306 75.0609 32.0533 74.9728 32.0533H64.1312C64.0433 32.0533 63.9659 32.1305 63.9659 32.2186V43.0602C63.9659 43.1481 64.0431 43.2255 64.1312 43.2255H74.9728C75.0608 43.2255 75.1381 43.1483 75.1381 43.0602V32.2186ZM14.1156 34.5713C13.8579 34.3628 13.5279 34.2652 13.1982 34.3C12.8685 34.3349 12.5662 34.4992 12.3577 34.7569L9.83984 37.8694L8.44547 36.475C8.32988 36.3568 8.19199 36.2627 8.03978 36.1981C7.88757 36.1336 7.72407 36.0999 7.55874 36.099C7.39342 36.098 7.22955 36.1299 7.07663 36.1928C6.92371 36.2556 6.78477 36.3481 6.66787 36.4651C6.55096 36.582 6.45841 36.7209 6.39557 36.8738C6.33272 37.0267 6.30084 37.1906 6.30177 37.3559C6.30269 37.5213 6.33641 37.6848 6.40096 37.837C6.4655 37.9892 6.55961 38.1271 6.67781 38.2427L9.05437 40.6192C9.17824 40.7432 9.32679 40.8397 9.49038 40.9025C9.65397 40.9653 9.82895 40.993 10.0039 40.9838C10.1789 40.9746 10.35 40.9287 10.5061 40.8491C10.6622 40.7694 10.7998 40.6578 10.91 40.5216L14.3014 36.3291C14.5098 36.0713 14.6074 35.7413 14.5725 35.4117C14.5377 35.082 14.3733 34.7797 14.1156 34.5713ZM43.7892 71.6902C43.7892 73.653 42.1923 75.2497 40.2295 75.2497C38.2667 75.2497 36.67 73.6528 36.67 71.6902C36.67 69.7272 38.2669 68.1305 40.2295 68.1305C42.1923 68.1305 43.7892 69.7273 43.7892 71.6902ZM41.2892 71.6902C41.2892 71.1058 40.8139 70.6305 40.2295 70.6305C39.6452 70.6305 39.17 71.1058 39.17 71.6902C39.17 72.2744 39.6453 72.7497 40.2295 72.7497C40.8137 72.7497 41.2892 72.2745 41.2892 71.6902ZM52.8952 48.2766V51.3664C52.8952 51.619 52.8186 51.8657 52.6757 52.0739C52.5327 52.2822 52.33 52.4422 52.0942 52.533L50.7938 53.0336C50.5849 53.7208 50.3091 54.3859 49.9703 55.0192L50.5364 56.2938C50.639 56.5246 50.6691 56.7811 50.623 57.0295C50.5769 57.2778 50.4566 57.5064 50.278 57.685L48.0931 59.8697C47.9145 60.0483 47.6859 60.1686 47.4376 60.2147C47.1892 60.2609 46.9327 60.2307 46.7019 60.1281L45.428 59.5623C44.7944 59.9013 44.129 60.1772 43.4414 60.3859L42.9411 61.6858C42.8504 61.9216 42.6903 62.1243 42.4821 62.2673C42.2738 62.4103 42.0272 62.4869 41.7745 62.4869H38.6847C38.4321 62.4869 38.1854 62.4103 37.9772 62.2674C37.7689 62.1244 37.6089 61.9217 37.5181 61.6859L37.0175 60.3856C36.3302 60.1768 35.6651 59.901 35.0317 59.5622L33.7572 60.1281C33.5264 60.2307 33.2699 60.2609 33.0215 60.2148C32.7732 60.1686 32.5447 60.0483 32.3661 59.8697L30.1812 57.685C30.0026 57.5064 29.8823 57.2778 29.8362 57.0295C29.7901 56.7811 29.8203 56.5246 29.9228 56.2938L30.4886 55.0198C30.1496 54.3862 29.8738 53.7209 29.665 53.0333L28.365 52.533C28.1292 52.4423 27.9265 52.2822 27.7835 52.074C27.6405 51.8657 27.564 51.619 27.5641 51.3664V48.2766C27.5641 48.024 27.6406 47.7773 27.7836 47.569C27.9265 47.3608 28.1293 47.2007 28.365 47.11L29.6652 46.6095C29.8739 45.9222 30.1497 45.257 30.4886 44.6236L29.9227 43.3494C29.8201 43.1186 29.7899 42.8621 29.836 42.6137C29.8821 42.3654 30.0025 42.1369 30.1811 41.9583L32.3659 39.7733C32.5445 39.5946 32.7731 39.4743 33.0215 39.4281C33.2698 39.382 33.5263 39.4122 33.7572 39.5148L35.0317 40.0809C35.6651 39.7421 36.3302 39.4663 37.0175 39.2577L37.5181 37.9572C37.6089 37.7215 37.7689 37.5188 37.9772 37.3758C38.1854 37.2328 38.4321 37.1563 38.6847 37.1562H41.7744C42.027 37.1562 42.2737 37.2328 42.4819 37.3758C42.6901 37.5187 42.8502 37.7214 42.9409 37.9572L43.4416 39.2577C44.1288 39.4663 44.7939 39.7421 45.4272 40.0809L46.7017 39.5148C46.9326 39.4123 47.1891 39.3821 47.4374 39.4282C47.6858 39.4744 47.9143 39.5947 48.093 39.7733L50.2778 41.958C50.4564 42.1366 50.5768 42.3651 50.6229 42.6135C50.6691 42.8618 50.6389 43.1183 50.5364 43.3492L49.9706 44.6231C50.3095 45.2567 50.5854 45.922 50.7942 46.6095L52.0942 47.11C52.33 47.2007 52.5327 47.3608 52.6757 47.569C52.8186 47.7773 52.8952 48.024 52.8952 48.2766ZM50.3952 49.1348L49.3048 48.715C49.1154 48.6421 48.9465 48.5241 48.8129 48.3712C48.6792 48.2184 48.5848 48.0353 48.5378 47.8378C48.3288 46.9591 47.9807 46.1195 47.5067 45.3506C47.4002 45.1777 47.3374 44.9815 47.3238 44.7789C47.3102 44.5763 47.3462 44.3734 47.4286 44.1878L47.9033 43.1189L46.9322 42.1478L45.8627 42.6228C45.6771 42.7052 45.4742 42.7411 45.2716 42.7276C45.069 42.714 44.8728 42.6513 44.6998 42.5448C43.9311 42.0709 43.0916 41.7228 42.2131 41.5136C42.0156 41.4666 41.8325 41.3723 41.6797 41.2386C41.5268 41.105 41.4089 40.9362 41.3359 40.7467L40.9161 39.6559H39.5428L39.1228 40.7467C39.0499 40.9362 38.9319 41.105 38.7791 41.2386C38.6262 41.3723 38.4431 41.4666 38.2456 41.5136C37.3671 41.7227 36.5276 42.0709 35.7589 42.5448C35.586 42.6513 35.3897 42.714 35.1871 42.7276C34.9845 42.7412 34.7817 42.7052 34.5961 42.6228L33.5267 42.1478L32.5556 43.1189L33.0305 44.1881C33.1129 44.3737 33.1489 44.5765 33.1353 44.7791C33.1217 44.9817 33.059 45.1779 32.9525 45.3508C32.4786 46.1196 32.1305 46.9592 31.9214 47.8378C31.8744 48.0353 31.78 48.2184 31.6464 48.3712C31.5127 48.5241 31.3439 48.6421 31.1544 48.715L30.0639 49.1348V50.5081L31.1542 50.928C31.3437 51.0009 31.5126 51.1189 31.6462 51.2717C31.7798 51.4246 31.8742 51.6076 31.9212 51.8052C32.1303 52.6839 32.4784 53.5236 32.9525 54.2925C33.059 54.4654 33.1217 54.6617 33.1353 54.8643C33.1489 55.0669 33.1129 55.2697 33.0305 55.4553L32.5558 56.5242L33.5269 57.4952L34.5964 57.0203C34.782 56.9379 34.9848 56.902 35.1874 56.9156C35.3899 56.9291 35.5862 56.9919 35.7591 57.0983C36.5277 57.5723 37.3672 57.9204 38.2458 58.1295C38.4433 58.1765 38.6264 58.2708 38.7792 58.4045C38.9321 58.5381 39.0501 58.7069 39.123 58.8964L39.5428 59.987H40.9161L41.3358 58.8967C41.4087 58.7072 41.5267 58.5383 41.6796 58.4047C41.8324 58.271 42.0156 58.1766 42.2131 58.1297C43.0919 57.9206 43.9316 57.5724 44.7005 57.0984C44.8733 56.9918 45.0696 56.929 45.2722 56.9154C45.4748 56.9018 45.6777 56.9378 45.8633 57.0203L46.932 57.495L47.9031 56.5241L47.4281 55.4545C47.3457 55.269 47.3097 55.0661 47.3233 54.8636C47.3369 54.661 47.3996 54.4648 47.5061 54.2919C47.98 53.5231 48.3281 52.6836 48.5373 51.805C48.5843 51.6075 48.6787 51.4244 48.8124 51.2716C48.946 51.1188 49.1149 51.0009 49.3044 50.928L50.395 50.508L50.3952 49.1348ZM47.3392 49.8214C47.3392 53.7417 44.1498 56.9311 40.2297 56.9311C36.3095 56.9311 33.1202 53.7417 33.1202 49.8214C33.1202 45.9012 36.3095 42.7119 40.2297 42.7119C44.1498 42.7119 47.3392 45.9014 47.3392 49.8214ZM44.8392 49.8214C44.8392 47.2797 42.7714 45.2119 40.2297 45.2119C37.688 45.2119 35.6202 47.2797 35.6202 49.8214C35.6202 52.3633 37.688 54.4311 40.2297 54.4311C42.7714 54.4311 44.8392 52.3633 44.8392 49.8214Z" fill="white"/>
</g>
</svg>
