<svg width="80" height="80" viewBox="0 0 80 80" fill="none" xmlns="http://www.w3.org/2000/svg">
<g id="rewards">
<path id="Vector" d="M64.0262 11.1336C63.6524 10.6941 63.1875 10.3412 62.6637 10.0993C62.14 9.85744 61.5699 9.73234 60.993 9.7327H57.5581C57.5206 9.39493 57.4795 9.06734 57.4353 8.75342C57.3117 7.91077 56.8897 7.14051 56.2461 6.58283C55.6024 6.02515 54.7799 5.71713 53.9282 5.71484H25.905C25.0534 5.71717 24.2309 6.02522 23.5872 6.58292C22.9436 7.14063 22.5216 7.91091 22.3981 8.75355C22.3539 9.06748 22.3129 9.39507 22.2753 9.7327H18.8403C18.2633 9.73281 17.6932 9.8582 17.1694 10.1002C16.6457 10.3422 16.1807 10.695 15.8066 11.1343C15.4325 11.5736 15.1583 12.0889 15.0028 12.6445C14.8474 13.2002 14.8144 13.7829 14.9063 14.3526L15.6589 19.0157C16.3 23.0046 18.0805 26.7232 20.786 29.7238C23.4915 32.7243 27.0066 34.8787 30.9082 35.9278C32.2616 37.3775 33.7388 38.7065 35.323 39.8997C34.7601 40.2175 34.3014 40.6915 34.0021 41.2645C33.7029 41.8374 33.576 42.4847 33.6367 43.1283C33.6975 43.7718 33.9434 44.3839 34.3446 44.8907C34.7458 45.3975 35.2852 45.7773 35.8976 45.9841C35.746 47.4508 35.3633 48.8844 34.7637 50.2315C33.1508 53.841 30.3414 55.9074 28.6689 56.8756H28.2648C27.6435 56.8763 27.0477 57.1234 26.6083 57.5628C26.169 58.0022 25.9218 58.5979 25.9211 59.2193V67.5898H24.247C23.6256 67.5905 23.0299 67.8377 22.5905 68.2771C22.1511 68.7165 21.9039 69.3122 21.9032 69.9336V71.9425C21.9039 72.5639 22.1511 73.1596 22.5905 73.599C23.0299 74.0384 23.6256 74.2856 24.247 74.2863H55.5863C56.2077 74.2856 56.8034 74.0384 57.2428 73.599C57.6822 73.1596 57.9293 72.5639 57.93 71.9425V69.9336C57.9293 69.3122 57.6822 68.7165 57.2428 68.2771C56.8034 67.8377 56.2077 67.5905 55.5863 67.5898H53.9122V59.2193C53.9115 58.5979 53.6643 58.0022 53.2249 57.5628C52.7855 57.1234 52.1898 56.8763 51.5684 56.8756H51.1643C49.4917 55.9073 46.6824 53.841 45.0695 50.2314C44.4699 48.8843 44.0872 47.4508 43.9357 45.9841C44.5481 45.7773 45.0875 45.3975 45.4887 44.8907C45.8899 44.3839 46.1357 43.7718 46.1965 43.1283C46.2573 42.4847 46.1304 41.8374 45.8311 41.2645C45.5319 40.6915 45.0731 40.2175 44.5102 39.8997C46.0944 38.7065 47.5716 37.3775 48.9251 35.9278C52.8266 34.8788 56.3417 32.7243 59.0472 29.7239C61.7527 26.7234 63.5332 23.0049 64.1743 19.016L64.927 14.3523C65.0192 13.7826 64.9864 13.1996 64.8309 12.6438C64.6753 12.088 64.4007 11.5727 64.0262 11.1336ZM17.6423 18.6959L16.8896 14.0327C16.8441 13.7503 16.8605 13.4613 16.9376 13.1858C17.0147 12.9103 17.1506 12.6548 17.3361 12.4369C17.5216 12.2191 17.7521 12.0441 18.0118 11.9241C18.2715 11.804 18.5542 11.7418 18.8403 11.7416H22.1127C21.8351 16.9128 22.7794 22.0767 24.8692 26.8149C25.8192 28.9604 26.9991 30.9966 28.3883 32.8876C25.5721 31.5827 23.1194 29.6062 21.2457 27.1317C19.372 24.6572 18.1346 21.7604 17.6423 18.6959ZM55.5863 69.5988C55.675 69.5989 55.7601 69.6342 55.8229 69.697C55.8857 69.7597 55.921 69.8448 55.9211 69.9336V71.9425C55.921 72.0313 55.8857 72.1164 55.8229 72.1792C55.7601 72.2419 55.675 72.2772 55.5863 72.2773H24.247C24.1582 72.2772 24.0731 72.2419 24.0103 72.1792C23.9476 72.1164 23.9123 72.0313 23.9122 71.9425V69.9336C23.9123 69.8448 23.9476 69.7597 24.0103 69.697C24.0731 69.6342 24.1582 69.5989 24.247 69.5988H55.5863ZM50.8948 58.8845L50.8978 58.8846L50.9008 58.8845H51.5684C51.6572 58.8846 51.7423 58.9199 51.805 58.9827C51.8678 59.0454 51.9031 59.1305 51.9032 59.2193V67.5898H27.93V59.2193C27.9301 59.1305 27.9654 59.0454 28.0282 58.9827C28.091 58.9199 28.1761 58.8846 28.2648 58.8845H28.9325L28.9354 58.8846L28.9385 58.8845H50.8948ZM47.6813 56.8756H32.152C34.0576 55.2973 35.5781 53.3053 36.598 51.051C37.2894 49.5007 37.7292 47.8501 37.9011 46.1613H41.9321C42.104 47.8501 42.5439 49.5007 43.2352 51.051C44.2551 53.3053 45.7757 55.2974 47.6813 56.8756ZM42.8631 44.1523H36.9702C36.615 44.1523 36.2743 44.0112 36.0232 43.7601C35.772 43.5089 35.6309 43.1683 35.6309 42.8131C35.6309 42.4579 35.772 42.1172 36.0232 41.866C36.2743 41.6149 36.615 41.4738 36.9702 41.4738H37.8608C37.8922 41.4751 37.9235 41.4752 37.9546 41.4738H41.8958C41.906 41.474 41.9162 41.4756 41.9265 41.4756C41.9356 41.4756 41.9447 41.474 41.9538 41.4738H42.8631C43.2183 41.4738 43.5589 41.6149 43.8101 41.866C44.0612 42.1172 44.2023 42.4579 44.2023 42.8131C44.2023 43.1683 44.0612 43.5089 43.8101 43.7601C43.5589 44.0112 43.2183 44.1523 42.8631 44.1523ZM41.6328 39.4648H38.2005C35.1836 37.5028 29.9156 33.2567 26.7062 26.0022C23.7524 19.3249 23.8147 13.0895 24.3872 9.0344C24.4412 8.67037 24.6242 8.33783 24.9027 8.09729C25.1812 7.85676 25.5369 7.72421 25.9049 7.72377H53.9282C54.2962 7.72419 54.6519 7.85673 54.9304 8.09727C55.2089 8.33781 55.3918 8.67036 55.4458 9.0344C56.0185 13.0895 56.0807 19.3249 53.1269 26.0022C49.9175 33.2567 44.6495 37.5027 41.6326 39.4648H41.6328ZM62.9438 14.0323L62.1911 18.6961C61.6987 21.7607 60.4613 24.6574 58.5876 27.1319C56.7139 29.6063 54.2612 31.5828 51.4449 32.8876C52.8341 30.9966 54.0141 28.9604 54.964 26.8149C57.0538 22.0767 57.9982 16.9128 57.7206 11.7416H60.993C61.279 11.7417 61.5617 11.8039 61.8214 11.9239C62.0811 12.0439 62.3116 12.2189 62.4971 12.4367C62.6826 12.6545 62.8186 12.91 62.8957 13.1855C62.9728 13.4609 62.9892 13.7499 62.9438 14.0323Z" fill="white" stroke="white" stroke-width="0.5"/>
</g>
</svg>
