<svg width="80" height="80" viewBox="0 0 80 80" fill="none" xmlns="http://www.w3.org/2000/svg">
<g id="Setting" clip-path="url(#clip0_1167_3239)">
<path id="Vector" d="M35 2.5C34.6685 2.5 34.3505 2.6317 34.1161 2.86612C33.8817 3.10054 33.75 3.41848 33.75 3.75V5.7325C33.085 5.9425 32.4475 6.2075 31.825 6.5225L30.43 5.1275C30.1956 4.89316 29.8777 4.76152 29.5462 4.76152C29.2148 4.76152 28.8969 4.89316 28.6625 5.1275L25.125 8.6625C24.8907 8.89691 24.759 9.2148 24.759 9.54625C24.759 9.87771 24.8907 10.1956 25.125 10.43L26.52 11.825C26.2018 12.4434 25.9358 13.0873 25.725 13.75H23.75C23.4185 13.75 23.1005 13.8817 22.8661 14.1161C22.6317 14.3505 22.5 14.6685 22.5 15V20C22.5 20.3315 22.6317 20.6495 22.8661 20.8839C23.1005 21.1183 23.4185 21.25 23.75 21.25H25.7275C25.9375 21.915 26.2025 22.5575 26.5175 23.1775L25.1275 24.57C24.8932 24.8044 24.7615 25.1223 24.7615 25.4538C24.7615 25.7852 24.8932 26.1031 25.1275 26.3375L28.6625 29.8725C28.8969 30.1068 29.2148 30.2385 29.5462 30.2385C29.8777 30.2385 30.1956 30.1068 30.43 29.8725L31.825 28.4775C32.4475 28.7975 33.085 29.065 33.75 29.2775V31.25C33.75 31.5815 33.8817 31.8995 34.1161 32.1339C34.3505 32.3683 34.6685 32.5 35 32.5H40C40.3315 32.5 40.6495 32.3683 40.8839 32.1339C41.1183 31.8995 41.25 31.5815 41.25 31.25V29.2725C41.915 29.0625 42.5575 28.8 43.1775 28.4825L44.57 29.8725C44.8044 30.1068 45.1223 30.2385 45.4538 30.2385C45.7852 30.2385 46.1031 30.1068 46.3375 29.8725L49.8725 26.3375C50.1068 26.1031 50.2385 25.7852 50.2385 25.4538C50.2385 25.1223 50.1068 24.8044 49.8725 24.57L48.4825 23.1775C48.8009 22.5584 49.0669 21.9136 49.2775 21.25H51.25C51.5815 21.25 51.8995 21.1183 52.1339 20.8839C52.3683 20.6495 52.5 20.3315 52.5 20V15C52.5 14.6685 52.3683 14.3505 52.1339 14.1161C51.8995 13.8817 51.5815 13.75 51.25 13.75H49.2725C49.0635 13.0865 48.7993 12.4418 48.4825 11.8225L49.8725 10.43C50.1068 10.1956 50.2385 9.87771 50.2385 9.54625C50.2385 9.2148 50.1068 8.89691 49.8725 8.6625L46.3375 5.125C46.1031 4.89066 45.7852 4.75902 45.4538 4.75902C45.1223 4.75902 44.8044 4.89066 44.57 5.125L43.175 6.52C42.5566 6.20176 41.9127 5.93584 41.25 5.725V3.75C41.25 3.41848 41.1183 3.10054 40.8839 2.86612C40.6495 2.6317 40.3315 2.5 40 2.5H35ZM36.25 5H38.75V6.5425C38.7497 6.826 38.8458 7.10117 39.0225 7.32285C39.1993 7.54453 39.4461 7.69956 39.7225 7.7625C40.8175 8.0125 41.865 8.445 42.8175 9.0425C43.0574 9.19337 43.3415 9.25823 43.6231 9.22643C43.9048 9.19464 44.1672 9.06807 44.3675 8.8675L45.455 7.7775L47.2225 9.545L46.1375 10.63C45.9369 10.8302 45.8104 11.0927 45.7786 11.3744C45.7468 11.656 45.8116 11.9401 45.9625 12.18C46.5575 13.13 46.985 14.18 47.2325 15.28C47.2959 15.556 47.4512 15.8022 47.6728 15.9784C47.8944 16.1547 48.1693 16.2504 48.4525 16.25H50V18.75H48.4575C48.1737 18.7499 47.8982 18.8463 47.6765 19.0235C47.4548 19.2007 47.2999 19.4481 47.2375 19.725C46.9875 20.8225 46.555 21.865 45.9575 22.8175C45.8066 23.0574 45.7418 23.3415 45.7736 23.6231C45.8054 23.9048 45.9319 24.1672 46.1325 24.3675L47.2225 25.455L45.455 27.2225L44.37 26.1375C44.1702 25.9387 43.9092 25.8133 43.6292 25.7815C43.3492 25.7498 43.0667 25.8135 42.8275 25.9625C41.8731 26.5586 40.8251 26.9897 39.7275 27.2375C39.451 27.2993 39.2037 27.4531 39.0261 27.6739C38.8485 27.8946 38.7511 28.1692 38.75 28.4525V30H36.25V28.4575C36.2497 28.1744 36.1533 27.8998 35.9767 27.6787C35.8 27.4575 35.5535 27.3028 35.2775 27.24C34.1814 26.991 33.1351 26.5591 32.1825 25.9625C31.9437 25.8104 31.6602 25.7438 31.3786 25.7738C31.097 25.8038 30.834 25.9285 30.6325 26.1275L29.545 27.2175L27.7775 25.45L28.8625 24.365C29.0613 24.1653 29.1867 23.9042 29.2185 23.6242C29.2502 23.3442 29.1865 23.0617 29.0375 22.8225C28.443 21.8679 28.0136 20.8199 27.7675 19.7225C27.7055 19.4452 27.5509 19.1972 27.3292 19.0195C27.1074 18.8418 26.8317 18.745 26.5475 18.745H25V16.245H26.5425C26.826 16.2453 27.1012 16.1492 27.3228 15.9725C27.5445 15.7957 27.6996 15.5489 27.7625 15.2725C28.0125 14.1775 28.445 13.135 29.0425 12.1825C29.194 11.9423 29.2592 11.6577 29.2274 11.3755C29.1956 11.0934 29.0687 10.8304 28.8675 10.63L27.7775 9.54L29.545 7.7725L30.63 8.8575C30.8291 9.05705 31.0899 9.18342 31.3699 9.2161C31.6499 9.24878 31.9328 9.18584 32.1725 9.0375C33.1269 8.44136 34.1749 8.01033 35.2725 7.7625C35.549 7.70074 35.7963 7.54687 35.9739 7.32612C36.1515 7.10536 36.2489 6.83082 36.25 6.5475V5ZM37.5 9.14C35.2835 9.14396 33.1589 10.0259 31.5912 11.5927C30.0235 13.1595 29.1403 15.2835 29.135 17.5C29.1403 19.7169 30.0233 21.8415 31.5909 23.4091C33.1585 24.9767 35.2831 25.8597 37.5 25.865C39.7169 25.8597 41.8415 24.9767 43.4091 23.4091C44.9767 21.8415 45.8597 19.7169 45.865 17.5C45.8597 15.2835 44.9765 13.1595 43.4088 11.5927C41.8411 10.0259 39.7165 9.14396 37.5 9.14ZM37.5 11.64C40.75 11.64 43.365 14.2475 43.365 17.5C43.3673 18.2709 43.2172 19.0346 42.9233 19.7472C42.6293 20.4598 42.1974 21.1073 41.6523 21.6523C41.1073 22.1974 40.4598 22.6293 39.7472 22.9233C39.0345 23.2172 38.2709 23.3673 37.5 23.365C36.7291 23.3673 35.9655 23.2172 35.2528 22.9233C34.5402 22.6293 33.8927 22.1974 33.3477 21.6523C32.8026 21.1073 32.3707 20.4598 32.0767 19.7472C31.7828 19.0346 31.6327 18.2709 31.635 17.5C31.635 14.25 34.2475 11.64 37.5 11.64ZM59.545 27.5C59.2135 27.5 58.8955 27.6317 58.6611 27.8661C58.4267 28.1005 58.295 28.4185 58.295 28.75V31.24C57.4093 31.5073 56.5512 31.8589 55.7325 32.29L53.9825 30.54C53.7482 30.3064 53.4308 30.1753 53.1 30.1753C52.7692 30.1753 52.4518 30.3064 52.2175 30.54L48.0375 34.715C47.9211 34.8311 47.8287 34.9691 47.7657 35.1209C47.7027 35.2728 47.6703 35.4356 47.6703 35.6C47.6703 35.7644 47.7027 35.9272 47.7657 36.0791C47.8287 36.2309 47.9211 36.3689 48.0375 36.485L49.795 38.2425C49.361 39.0575 49.006 39.9123 48.735 40.795H46.25C45.9185 40.795 45.6005 40.9267 45.3661 41.1611C45.1317 41.3955 45 41.7135 45 42.045V47.96C45 48.2915 45.1317 48.6095 45.3661 48.8439C45.6005 49.0783 45.9185 49.21 46.25 49.21H48.735C49.005 50.095 49.3525 50.9475 49.785 51.7675L48.035 53.52C47.8007 53.7544 47.669 54.0723 47.669 54.4037C47.669 54.7352 47.8007 55.0531 48.035 55.2875L52.2175 59.4625C52.4519 59.6968 52.7698 59.8285 53.1012 59.8285C53.4327 59.8285 53.7506 59.6968 53.985 59.4625L55.735 57.71C56.5575 58.145 57.41 58.4975 58.295 58.77V61.25C58.295 61.5815 58.4267 61.8995 58.6611 62.1339C58.8955 62.3683 59.2135 62.5 59.545 62.5H65.455C65.7865 62.5 66.1045 62.3683 66.3389 62.1339C66.5733 61.8995 66.705 61.5815 66.705 61.25V58.765C67.5908 58.4977 68.4488 58.1461 69.2675 57.715L71.0175 59.465C71.2518 59.6986 71.5692 59.8297 71.9 59.8297C72.2308 59.8297 72.5482 59.6986 72.7825 59.465L76.9625 55.29C77.0789 55.1739 77.1713 55.0359 77.2343 54.8841C77.2973 54.7322 77.3297 54.5694 77.3297 54.405C77.3297 54.2406 77.2973 54.0778 77.2343 53.9259C77.1713 53.7741 77.0789 53.6361 76.9625 53.52L75.205 51.7625C75.64 50.945 75.9925 50.095 76.265 49.21H78.75C79.0815 49.21 79.3995 49.0783 79.6339 48.8439C79.8683 48.6095 80 48.2915 80 47.96V42.045C80 41.7135 79.8683 41.3955 79.6339 41.1611C79.3995 40.9267 79.0815 40.795 78.75 40.795H76.265C75.9974 39.911 75.6458 39.0545 75.215 38.2375L76.965 36.485C77.1993 36.2506 77.331 35.9327 77.331 35.6012C77.331 35.2698 77.1993 34.9519 76.965 34.7175L72.7825 30.5425C72.5481 30.3082 72.2302 30.1765 71.8988 30.1765C71.5673 30.1765 71.2494 30.3082 71.015 30.5425L69.265 32.295C68.4475 31.8606 67.5903 31.5057 66.705 31.235V28.75C66.705 28.4185 66.5733 28.1005 66.3389 27.8661C66.1045 27.6317 65.7865 27.5 65.455 27.5H59.545ZM60.795 30H64.205V32.05C64.204 32.3336 64.2995 32.6091 64.4758 32.8312C64.6521 33.0534 64.8986 33.209 65.175 33.2725C66.495 33.5725 67.76 34.095 68.905 34.815C69.1449 34.9659 69.429 35.0307 69.7106 34.9989C69.9923 34.9671 70.2547 34.8406 70.455 34.64L71.9 33.1925L74.3125 35.6L72.87 37.045C72.6699 37.2443 72.5431 37.5055 72.5104 37.7861C72.4777 38.0667 72.541 38.35 72.69 38.59C73.4075 39.74 73.9275 41.0025 74.2225 42.325C74.286 42.6014 74.4416 42.8479 74.6638 43.0242C74.8859 43.2005 75.1614 43.296 75.445 43.295H77.5V46.71H75.45C75.1664 46.709 74.8909 46.8045 74.6688 46.9808C74.4466 47.1571 74.291 47.4036 74.2275 47.68C73.9282 48.9993 73.4084 50.2587 72.69 51.405C72.5388 51.6447 72.4735 51.9286 72.5049 52.2102C72.5362 52.4918 72.6623 52.7544 72.8625 52.955L74.3125 54.405L71.9 56.8125L70.46 55.37C70.2598 55.1694 69.9973 55.0429 69.7156 55.0111C69.434 54.9793 69.1499 55.0441 68.91 55.195C67.76 55.9125 66.5025 56.4325 65.18 56.7275C64.9035 56.7898 64.6565 56.9443 64.4793 57.1655C64.3021 57.3867 64.2054 57.6616 64.205 57.945V60H60.795V57.95C60.7948 57.6673 60.6988 57.393 60.5227 57.1718C60.3465 56.9507 60.1005 56.7958 59.825 56.7325C58.5039 56.4314 57.2429 55.91 56.095 55.19C55.8551 55.0391 55.571 54.9743 55.2894 55.0061C55.0077 55.0379 54.7453 55.1644 54.545 55.365L53.1 56.8125L50.6875 54.405L52.13 52.96C52.3301 52.7607 52.4569 52.4995 52.4896 52.2189C52.5223 51.9383 52.459 51.655 52.31 51.415C51.593 50.2649 51.0749 49.0023 50.7775 47.68C50.714 47.4036 50.5584 47.1571 50.3362 46.9808C50.1141 46.8045 49.8386 46.709 49.555 46.71H47.5V43.295H49.55C49.8336 43.296 50.1091 43.2005 50.3312 43.0242C50.5534 42.8479 50.709 42.6014 50.7725 42.325C51.0718 41.0057 51.5916 39.7463 52.31 38.6C52.4612 38.3603 52.5265 38.0764 52.4951 37.7948C52.4638 37.5132 52.3377 37.2506 52.1375 37.05L50.6875 35.6L53.1 33.1925L54.54 34.635C54.7402 34.8356 55.0027 34.9621 55.2844 34.9939C55.566 35.0257 55.8501 34.9609 56.09 34.81C57.24 34.0925 58.4975 33.5725 59.82 33.2775C60.0973 33.215 60.345 33.0598 60.5223 32.8375C60.6995 32.6153 60.7957 32.3393 60.795 32.055V30ZM18.6375 35C18.306 35 17.988 35.1317 17.7536 35.3661C17.5192 35.6005 17.3875 35.9185 17.3875 36.25V39.755C16.0553 40.1354 14.7698 40.6637 13.555 41.33L11.09 38.8625C10.8556 38.6282 10.5377 38.4965 10.2063 38.4965C9.87479 38.4965 9.55691 38.6282 9.3225 38.8625L3.8625 44.325C3.62816 44.5594 3.49652 44.8773 3.49652 45.2087C3.49652 45.5402 3.62816 45.8581 3.8625 46.0925L6.3325 48.565C5.66232 49.7768 5.12984 51.0598 4.745 52.39H1.25C0.918479 52.39 0.600537 52.5217 0.366117 52.7561C0.131696 52.9905 0 53.3085 0 53.64L0 61.365C0 61.6965 0.131696 62.0145 0.366117 62.2489C0.600537 62.4833 0.918479 62.615 1.25 62.615H4.755C5.1375 63.95 5.6575 65.23 6.3225 66.445L3.8625 68.91C3.62816 69.1444 3.49652 69.4623 3.49652 69.7937C3.49652 70.1252 3.62816 70.4431 3.8625 70.6775L9.3225 76.1425C9.55691 76.3768 9.87479 76.5085 10.2063 76.5085C10.5377 76.5085 10.8556 76.3768 11.09 76.1425L13.565 73.6725C14.7775 74.34 16.055 74.87 17.39 75.255V78.75C17.39 79.0815 17.5217 79.3995 17.7561 79.6339C17.9905 79.8683 18.3085 80 18.64 80H26.3625C26.694 80 27.012 79.8683 27.2464 79.6339C27.4808 79.3995 27.6125 79.0815 27.6125 78.75V75.25C28.9448 74.8697 30.2303 74.3414 31.445 73.675L33.91 76.1425C34.1444 76.3768 34.4623 76.5085 34.7937 76.5085C35.1252 76.5085 35.4431 76.3768 35.6775 76.1425L41.1375 70.6775C41.3718 70.4431 41.5035 70.1252 41.5035 69.7937C41.5035 69.4623 41.3718 69.1444 41.1375 68.91L38.6675 66.44C39.3375 65.225 39.8675 63.95 40.255 62.615H43.75C44.0815 62.615 44.3995 62.4833 44.6339 62.2489C44.8683 62.0145 45 61.6965 45 61.365V53.64C45 53.3085 44.8683 52.9905 44.6339 52.7561C44.3995 52.5217 44.0815 52.39 43.75 52.39H40.245C39.8669 51.0589 39.3411 49.7743 38.6775 48.56L41.1375 46.095C41.2539 45.9789 41.3463 45.8409 41.4093 45.6891C41.4723 45.5372 41.5047 45.3744 41.5047 45.21C41.5047 45.0456 41.4723 44.8828 41.4093 44.7309C41.3463 44.5791 41.2539 44.4411 41.1375 44.325L35.6775 38.8625C35.4431 38.6282 35.1252 38.4965 34.7937 38.4965C34.4623 38.4965 34.1444 38.6282 33.91 38.8625L31.435 41.3325C30.2229 40.6641 28.94 40.1333 27.61 39.75V36.25C27.61 35.9185 27.4783 35.6005 27.2439 35.3661C27.0095 35.1317 26.6915 35 26.36 35H18.6375ZM62.5 35.3475C59.9414 35.3521 57.489 36.3706 55.6798 38.1798C53.8706 39.989 52.8521 42.4414 52.8475 45C52.8521 47.559 53.8704 50.012 55.6795 51.822C57.4885 53.632 59.941 54.6516 62.5 54.6575C65.059 54.6516 67.5115 53.632 69.3205 51.822C71.1296 50.012 72.1479 47.559 72.1525 45C72.1479 42.4414 71.1294 39.989 69.3202 38.1798C67.511 36.3706 65.0586 35.3521 62.5 35.3475ZM19.8875 37.5H25.1125V40.5675C25.1122 40.851 25.2083 41.1262 25.385 41.3478C25.5618 41.5695 25.8086 41.7246 26.085 41.7875C27.8525 42.19 29.5425 42.8875 31.08 43.8525C31.3197 44.0027 31.6032 44.0672 31.8843 44.0354C32.1654 44.0037 32.4274 43.8775 32.6275 43.6775L34.795 41.5125L38.4875 45.21L36.3325 47.3675C36.1329 47.5666 36.0066 47.8274 35.9739 48.1074C35.9412 48.3874 36.0042 48.6703 36.1525 48.91C37.1125 50.45 37.81 52.14 38.2075 53.91C38.2694 54.1869 38.4236 54.4346 38.6449 54.6122C38.8661 54.7899 39.1412 54.8869 39.425 54.8875H42.5V60.1175H39.4325C39.149 60.1172 38.8738 60.2133 38.6521 60.39C38.4305 60.5668 38.2754 60.8136 38.2125 61.09C37.8098 62.8592 37.1117 64.5479 36.1475 66.085C35.9973 66.3247 35.9328 66.6082 35.9646 66.8893C35.9963 67.1704 36.1225 67.4324 36.3225 67.6325L38.4875 69.795L34.795 73.49L32.6375 71.3325C32.4373 71.1319 32.1748 71.0054 31.8931 70.9736C31.6115 70.9418 31.3274 71.0066 31.0875 71.1575C29.548 72.1171 27.8576 72.8102 26.0875 73.2075C25.8106 73.2699 25.5632 73.4248 25.386 73.6465C25.2088 73.8682 25.1124 74.1437 25.1125 74.4275V77.5H19.8875V74.4325C19.8866 74.1499 19.79 73.8759 19.6134 73.6552C19.4368 73.4345 19.1906 73.2802 18.915 73.2175C17.1458 72.8148 15.4571 72.1167 13.92 71.1525C13.6809 71.0016 13.3976 70.9363 13.1166 70.9672C12.8355 70.9981 12.5732 71.1233 12.3725 71.3225L10.205 73.49L6.5125 69.795L8.6675 67.6375C8.86705 67.4384 8.99342 67.1776 9.0261 66.8976C9.05878 66.6176 8.99584 66.3347 8.8475 66.095C7.88623 64.5557 7.19149 62.8654 6.7925 61.095C6.73064 60.8181 6.5764 60.5704 6.35514 60.3928C6.13388 60.2151 5.85875 60.1181 5.575 60.1175H2.5V54.8875H5.5675C5.851 54.8878 6.12617 54.7917 6.34785 54.615C6.56953 54.4382 6.72456 54.1914 6.7875 53.915C7.19 52.1475 7.8875 50.4575 8.8525 48.92C9.00274 48.6803 9.06723 48.3968 9.03545 48.1157C9.00366 47.8346 8.87747 47.5726 8.6775 47.3725L6.5125 45.21L10.205 41.5125L12.3625 43.6725C12.5628 43.8731 12.8252 43.9996 13.1069 44.0314C13.3885 44.0632 13.6726 43.9984 13.9125 43.8475C15.452 42.8878 17.1424 42.1947 18.9125 41.7975C19.1898 41.735 19.4375 41.5798 19.6148 41.3575C19.792 41.1353 19.8882 40.8593 19.8875 40.575V37.5ZM62.5 37.8475C63.44 37.8449 64.3713 38.0281 65.2403 38.3866C66.1092 38.7451 66.8988 39.2718 67.5635 39.9365C68.2282 40.6012 68.7549 41.3908 69.1134 42.2597C69.4719 43.1287 69.6551 44.06 69.6525 45C69.6551 45.9403 69.472 46.8718 69.1135 47.741C68.7551 48.6103 68.2284 49.4001 67.5638 50.0652C66.8991 50.7303 66.1096 51.2575 65.2406 51.6166C64.3716 51.9757 63.4403 52.1595 62.5 52.1575C61.5597 52.1595 60.6284 51.9757 59.7594 51.6166C58.8904 51.2575 58.1009 50.7303 57.4362 50.0652C56.7716 49.4001 56.2449 48.6103 55.8865 47.741C55.528 46.8718 55.3449 45.9403 55.3475 45C55.3449 44.06 55.5281 43.1287 55.8866 42.2597C56.2451 41.3908 56.7718 40.6012 57.4365 39.9365C58.1012 39.2718 58.8908 38.7451 59.7597 38.3866C60.6287 38.0281 61.56 37.8449 62.5 37.8475ZM22.5 45.26C19.2554 45.2653 16.1452 46.5566 13.8509 48.8509C11.5566 51.1452 10.2653 54.2554 10.26 57.5C10.2653 60.7446 11.5566 63.8548 13.8509 66.1491C16.1452 68.4434 19.2554 69.7347 22.5 69.74C25.7446 69.7347 28.8548 68.4434 31.1491 66.1491C33.4434 63.8548 34.7347 60.7446 34.74 57.5C34.7347 54.2554 33.4434 51.1452 31.1491 48.8509C28.8548 46.5566 25.7446 45.2653 22.5 45.26ZM22.5 47.76C23.7797 47.7577 25.0473 48.0081 26.2301 48.4967C27.4128 48.9854 28.4875 49.7027 29.3924 50.6076C30.2973 51.5125 31.0146 52.5872 31.5033 53.7699C31.9919 54.9527 32.2423 56.2203 32.24 57.5C32.2423 58.7797 31.9919 60.0473 31.5033 61.2301C31.0146 62.4128 30.2973 63.4875 29.3924 64.3924C28.4875 65.2973 27.4128 66.0146 26.2301 66.5033C25.0473 66.9919 23.7797 67.2423 22.5 67.24C21.2203 67.2423 19.9527 66.9919 18.7699 66.5033C17.5872 66.0146 16.5125 65.2973 15.6076 64.3924C14.7027 63.4875 13.9854 62.4128 13.4967 61.2301C13.0081 60.0473 12.7577 58.7797 12.76 57.5C12.7577 56.2203 13.0081 54.9527 13.4967 53.7699C13.9854 52.5872 14.7027 51.5125 15.6076 50.6076C16.5125 49.7027 17.5872 48.9854 18.7699 48.4967C19.9527 48.0081 21.2203 47.7577 22.5 47.76Z" fill="white"/>
</g>
<defs>
<clipPath id="clip0_1167_3239">
<rect width="80" height="80" fill="white"/>
</clipPath>
</defs>
</svg>
