<svg width="32" height="32" viewBox="0 0 32 32" fill="none" xmlns="http://www.w3.org/2000/svg">
<path d="M9.49707 14.7656C9.40205 14.6411 9.27647 14.5432 9.13253 14.4815C8.98858 14.4198 8.83113 14.3963 8.67545 14.4134C8.51976 14.4304 8.37112 14.4874 8.24391 14.5787C8.1167 14.6701 8.01525 14.7928 7.94938 14.935L0.099642 30.6402C0.0279405 30.7831 -0.00605418 30.942 0.000883998 31.1018C0.00782218 31.2616 0.0554631 31.417 0.139286 31.5532C0.223108 31.6894 0.340332 31.8019 0.479832 31.8801C0.619332 31.9582 0.776481 31.9994 0.936366 31.9997H11.867C12.0439 32.0031 12.218 31.9545 12.3676 31.8599C12.5172 31.7653 12.6357 31.6289 12.7085 31.4675C15.064 26.6292 13.6372 19.1927 9.49707 14.7656Z" fill="url(#paint0_linear_1990_837)"/>
<path d="M15.2584 0.502482C13.3016 3.51396 12.1612 6.98272 11.9492 10.5683C11.7372 14.1538 12.4609 17.7328 14.0493 20.9541L19.3453 31.4678C19.4225 31.624 19.5417 31.7556 19.6895 31.8479C19.8373 31.9402 20.0078 31.9895 20.182 31.9903H31.1127C31.2659 31.9776 31.4139 31.9287 31.5444 31.8474C31.6749 31.7661 31.7842 31.6548 31.8631 31.5229C31.9421 31.3909 31.9885 31.242 31.9984 31.0886C32.0084 30.9351 31.9816 30.7815 31.9204 30.6404L16.8545 0.502482C16.7823 0.351999 16.6691 0.224982 16.5279 0.136077C16.3867 0.0471722 16.2233 0 16.0565 0C15.8896 0 15.7262 0.0471722 15.585 0.136077C15.4438 0.224982 15.3306 0.351999 15.2584 0.502482Z" fill="#2684FF"/>
<defs>
<linearGradient id="paint0_linear_1990_837" x1="13.8016" y1="17.1896" x2="5.51206" y2="31.5472" gradientUnits="userSpaceOnUse">
<stop stop-color="#0052CC"/>
<stop offset="0.92" stop-color="#2684FF"/>
</linearGradient>
</defs>
</svg>
