<svg width="33" height="32" viewBox="0 0 33 32" fill="none" xmlns="http://www.w3.org/2000/svg">
<path d="M32.1342 16.7732C32.1371 15.4693 31.7367 14.1964 30.9878 13.129C30.2389 12.0616 29.1782 11.2519 27.9511 10.8109C28.2027 9.4971 28.1615 8.14399 27.8305 6.84793C27.4995 5.55186 26.8868 4.3447 26.0361 3.31242C25.1854 2.28013 24.1175 1.4481 22.9086 0.87557C21.6996 0.303039 20.3793 0.00408934 19.0416 6.47413e-06C17.6042 -0.00171162 16.187 0.338554 14.907 0.992702C13.6271 1.64685 12.5211 2.59611 11.6805 3.76209C10.9672 3.21118 10.1138 2.87122 9.21708 2.78079C8.32038 2.69035 7.41628 2.85305 6.60737 3.25044C5.79845 3.64783 5.11712 4.26398 4.64066 5.02899C4.16421 5.79401 3.91171 6.67725 3.91182 7.5785C3.91383 8.15287 4.01491 8.7226 4.21062 9.26261C2.9793 9.70311 1.91403 10.5131 1.16039 11.5818C0.406744 12.6506 0.00149017 13.926 4.10174e-06 15.2337C-0.00148197 16.5414 0.400872 17.8177 1.15208 18.8882C1.9033 19.9587 2.96672 20.771 4.19704 21.2143C3.80177 23.2421 4.11189 25.344 5.07591 27.1712C6.03994 28.9984 7.59988 30.4409 9.49678 31.2593C11.3937 32.0777 13.5134 32.2227 15.5041 31.6703C17.4948 31.1179 19.2366 29.9013 20.4405 28.2224C21.2787 28.8886 22.3171 29.2522 23.3877 29.2546C24.6663 29.2542 25.8925 28.7462 26.7966 27.842C27.7007 26.9379 28.2088 25.7118 28.2092 24.4332C28.2072 23.8588 28.1061 23.2891 27.9104 22.7491C29.1413 22.3049 30.2064 21.4938 30.9617 20.4251C31.717 19.3565 32.1263 18.0818 32.1342 16.7732Z" fill="white"/>
<path d="M12.6325 13.7847L19.6677 16.9899L26.7573 10.7696C26.862 10.2557 26.9121 9.73217 26.9067 9.20773C26.9079 7.51469 26.3668 5.86577 25.3628 4.50256C24.3588 3.13935 22.9446 2.13351 21.3274 1.63241C19.7102 1.13131 17.9751 1.1613 16.3762 1.71797C14.7773 2.27464 13.3986 3.32874 12.4423 4.72582L11.2607 10.8511L12.6325 13.7847Z" fill="#FED10A"/>
<path d="M5.35292 21.228C5.24814 21.751 5.19807 22.2836 5.20353 22.817C5.2056 24.5171 5.75218 26.1718 6.76316 27.5385C7.77413 28.9053 9.19634 29.9124 10.8213 30.412C12.4463 30.9116 14.1886 30.8776 15.7928 30.315C17.3971 29.7523 18.7789 28.6905 19.7358 27.2853L20.9038 21.1872L19.3419 18.1993L12.2795 14.9805L5.35292 21.228Z" fill="#24BBB1"/>
<path d="M5.31203 9.05881L10.1335 10.1997L11.1928 4.72631C10.5388 4.22553 9.73984 3.95066 8.91615 3.94303C8.09245 3.93541 7.28855 4.19545 6.62536 4.68403C5.96217 5.17262 5.47556 5.86333 5.23871 6.65228C5.00186 7.44123 5.02759 8.28575 5.31203 9.05881Z" fill="#EF5098"/>
<path d="M4.88899 10.2144C3.84585 10.5567 2.93444 11.2139 2.28021 12.0955C1.62599 12.9772 1.26111 14.04 1.23579 15.1375C1.21047 16.2351 1.52596 17.3136 2.13884 18.2245C2.75172 19.1354 3.63185 19.8339 4.65811 20.2239L11.4217 14.1123L10.1858 11.4639L4.88899 10.2144Z" fill="#17A8E0"/>
<path d="M20.9531 27.2855C21.6076 27.7802 22.4045 28.0499 23.2249 28.0545C24.0453 28.0591 24.8452 27.7983 25.5052 27.3109C26.1651 26.8236 26.6498 26.1359 26.8868 25.3505C27.1239 24.565 27.1005 23.724 26.8203 22.953L22.0125 21.8257L20.9531 27.2855Z" fill="#93C83E"/>
<path d="M21.935 20.5627L27.2318 21.7986C28.275 21.4563 29.1864 20.7991 29.8406 19.9175C30.4948 19.0358 30.8597 17.973 30.885 16.8755C30.9103 15.7779 30.5949 14.6994 29.982 13.7885C29.3691 12.8777 28.489 12.1791 27.4627 11.7891L20.5361 17.86L21.935 20.5627Z" fill="#0779A1"/>
</svg>
