<svg width="32" height="30" viewBox="0 0 32 30" fill="none" xmlns="http://www.w3.org/2000/svg">
<path d="M16.0003 29.7614L21.8912 11.4553H10.1094L16.0003 29.7614Z" fill="#E24329"/>
<path d="M16.0004 29.7614L10.1095 11.4553H1.85352L16.0004 29.7614Z" fill="#FC6D26"/>
<path d="M1.85337 11.4553L0.0601113 17.018C-0.104488 17.5253 0.0774375 18.0851 0.50193 18.3912L16.0002 29.7614L1.85337 11.4553Z" fill="#FCA326"/>
<path d="M1.85352 11.4555H10.1095L6.55758 0.426384C6.37566 -0.142128 5.57865 -0.142128 5.39673 0.426384L1.85352 11.4555Z" fill="#E24329"/>
<path d="M15.999 29.7614L21.8899 11.4553H30.1459L15.999 29.7614Z" fill="#FC6D26"/>
<path d="M30.1459 11.4553L31.9391 17.018C32.1037 17.5253 31.9218 18.0851 31.4973 18.3912L15.999 29.7614L30.1459 11.4553Z" fill="#FCA326"/>
<path d="M30.1475 11.4555H21.8916L25.4435 0.426384C25.6254 -0.142128 26.4224 -0.142128 26.6043 0.426384L30.1475 11.4555Z" fill="#E24329"/>
</svg>
