<svg width="32" height="32" viewBox="0 0 32 32" fill="none" xmlns="http://www.w3.org/2000/svg">
<g clip-path="url(#clip0_1990_779)">
<path d="M7.18023 15.9234C4.82773 16.4969 3.22523 17.6284 3.22523 18.9234C3.22523 19.7319 3.84273 20.4674 4.85723 21.0409C4.54823 20.5559 4.38723 20.0259 4.38723 19.4969C4.40223 18.1589 5.44573 16.9089 7.18073 15.9239L7.18023 15.9234ZM32.0002 20.9959C32.0002 20.1429 31.4702 19.3639 30.5887 18.7169C30.6622 18.9819 30.7212 19.2469 30.7212 19.5109C30.7212 21.9369 27.3247 24.0249 22.5012 24.8924C23.0629 24.9522 23.6274 24.9816 24.1922 24.9804C28.5002 24.9659 32.0002 23.1869 32.0002 20.9959ZM29.2212 19.6724C29.2212 18.7754 28.4562 17.9524 27.1482 17.2759C27.4572 17.6434 27.6182 18.0409 27.6182 18.4524C27.6182 20.6139 23.0307 22.3634 17.3552 22.3634C11.6942 22.3634 7.09223 20.6134 7.09223 18.4524C7.09223 18.1724 7.16573 17.9084 7.31223 17.6584C6.40073 18.2614 5.88573 18.9524 5.88573 19.6874C5.88573 22.0254 11.1057 23.9224 17.5457 23.9224C23.9857 23.9224 29.2212 21.9964 29.2212 19.6724ZM24.1337 19.5499C21.7517 21.0789 14.4287 21.6674 11.2827 19.6969C8.81273 18.1529 9.66523 15.6969 2.59273 10.3159C1.66623 9.60994 2.76923 8.86094 3.46023 9.34594C4.15123 9.83094 3.51923 9.94894 4.91523 11.3459C7.73823 14.1689 7.70873 11.6259 8.15023 12.5959C9.09123 14.6109 11.1502 16.6394 11.1502 16.6394C13.2232 17.9919 14.8702 18.2864 17.9287 16.2129C19.8697 14.9044 19.0757 18.3009 23.8247 15.8454C25.5597 14.9484 25.4862 15.5514 27.2507 13.0954C27.9857 12.0804 29.3827 13.8754 27.7947 14.1254C27.1622 14.2284 26.0897 14.9194 25.6332 16.0074C24.9717 17.6394 25.2507 18.8454 24.1332 19.5509L24.1337 19.5499ZM10.9302 15.4089C10.3422 15.1439 9.72523 14.1439 9.48923 13.7474C10.1507 13.1004 9.88623 12.0274 9.50423 11.4389C9.13673 10.8509 8.68073 11.0124 8.19573 10.4689C7.69573 9.92494 8.38673 8.51394 9.01923 9.60144C11.3867 13.6744 12.9452 11.9834 14.8712 11.7334C16.7237 11.4984 18.3712 12.5134 18.8712 9.64544C18.9592 9.17544 19.4152 9.07194 19.4592 9.83644C19.5032 10.6164 19.7972 12.4979 20.8117 12.7329C21.8267 12.9829 22.6497 12.4979 22.8847 12.2329C23.1197 11.9679 23.2522 11.9979 23.3547 12.6739C23.4577 13.3354 23.7222 14.2619 25.1487 13.2324C28.0747 11.1444 27.2367 10.3359 28.3837 9.79244C29.0307 9.48344 30.0597 10.4834 28.5747 11.2334C26.4572 12.3069 26.2367 13.6299 24.8987 14.4684C22.6487 15.8799 23.3402 14.5274 19.7237 14.0124C18.3267 13.8214 17.8857 15.3649 16.7977 14.9239C14.3127 13.8939 12.5622 14.1004 10.9302 15.4089ZM18.7672 7.86594C18.8552 8.48344 18.9582 8.46894 19.1787 8.51294C19.3987 8.57194 19.6787 8.21894 19.6787 7.89544C19.6937 7.55744 19.5317 7.35144 19.2087 7.36544C18.8707 7.38044 18.7527 7.54194 18.7677 7.86544L18.7672 7.86594ZM29.6472 8.96894C29.9122 9.21894 30.6172 9.05694 30.7792 8.86594C31.2057 8.39594 31.2202 8.11594 30.9992 7.79244C30.7792 7.48344 30.3227 7.52744 29.8672 7.86594C29.4117 8.20444 29.4997 8.83594 29.6472 8.96894ZM29.4562 12.0859C29.2362 12.3799 29.2212 12.6009 29.3827 12.7624C29.5592 12.9389 29.9127 13.0859 30.1627 12.8949C30.4127 12.6889 30.4127 12.3949 30.2067 12.1449C29.9867 11.8799 29.6912 11.8799 29.4562 12.0859ZM7.13623 8.40994C7.47423 8.51294 7.63623 8.83644 7.91623 8.46894C8.06323 8.29244 8.07773 8.04244 7.88623 7.77794C7.76873 7.61644 7.20973 7.49794 6.97473 7.73394C6.73973 7.96994 6.95973 8.35094 7.13623 8.40994ZM0.240226 8.20394C0.857726 8.58644 1.25523 9.15894 1.72523 8.64494C1.88673 8.46844 2.07823 8.15994 1.74023 7.54194C1.49023 7.08594 0.681726 6.90944 0.402226 7.08594C0.107726 7.24794 -0.249774 7.90994 0.240226 8.20394ZM5.93023 11.1299C6.12123 11.3359 6.46023 11.3209 6.66523 11.2034C6.85623 11.0859 6.82673 10.7769 6.63523 10.5124C6.51773 10.3509 6.16523 10.2624 5.92923 10.5124C5.69323 10.7624 5.79673 10.9824 5.92923 11.1299H5.93023Z" fill="#41BF47"/>
</g>
<defs>
<clipPath id="clip0_1990_779">
<rect width="32" height="32" fill="white"/>
</clipPath>
</defs>
</svg>
