<svg width="32" height="32" viewBox="0 0 32 32" fill="none" xmlns="http://www.w3.org/2000/svg">
<path d="M28.7125 7.81304C27.4286 7.81304 26.2809 8.4587 25.5805 9.43696L20.8535 16.0891C20.6784 16.3435 20.3866 16.5 20.0754 16.5C19.5502 16.5 19.1222 16.0696 19.1222 15.5413C19.1222 15.3457 19.1805 15.15 19.2778 15.013L23.2657 9.00652C23.6742 8.4 23.9076 7.65652 23.9076 6.85435C23.9076 4.72174 22.1957 3 20.0754 3H0V6.85435H17.1964C17.1964 7.91087 16.3404 8.7913 15.2705 8.7913H0C0 10.1609 0.291793 11.4717 0.797568 12.6457H13.3447C13.3447 13.7022 12.4888 14.5826 11.4188 14.5826H1.92584C3.6766 16.9304 6.45836 18.437 9.60973 18.437H14.3368C14.862 18.437 15.29 18.8674 15.29 19.3957C15.29 19.9239 14.862 20.3543 14.3368 20.3543H9.59027L3.17082 30H14.7842C20.0948 30 24.6079 26.5174 26.1836 21.7043L28.3429 15.1109C29.0432 12.9783 30.3271 11.1 32 9.67174C31.3386 8.55652 30.1131 7.81304 28.7125 7.81304ZM28.7125 10.4543C28.3234 10.4543 27.9927 10.1217 27.9927 9.73043C27.9927 9.33913 28.3234 9.00652 28.7125 9.00652C29.1015 9.00652 29.4322 9.33913 29.4322 9.73043C29.4322 10.1413 29.1015 10.4543 28.7125 10.4543Z" fill="#2E9BEF"/>
</svg>
