<svg width="32" height="32" viewBox="0 0 32 32" fill="none" xmlns="http://www.w3.org/2000/svg">
<path d="M17.385 31.0996L16.4887 30.1992L16.4815 24.2972L16.4742 18.3953L16.4157 18.387C16.3592 18.3791 14.7455 19.1769 10.2095 21.4554C9.05147 22.0371 8.09733 22.5065 8.08921 22.4985C8.08109 22.4905 8.10347 22.3534 8.13895 22.1939C8.74879 19.4504 10.3034 16.3979 12.2372 14.147C13.8732 12.2427 15.8223 10.6818 18.0734 9.47309L18.2957 9.35371V15.3809L18.3675 15.3986C18.553 15.4446 19.3117 14.9764 19.7453 14.5484C20.2013 14.0983 20.4994 13.6205 20.7059 13.0086C21.0829 11.8912 20.914 10.6272 20.2567 9.64789C20.0253 9.30307 19.7605 9.01902 17.7952 7.00673C15.6493 4.8096 15.4203 4.56497 15.1669 4.20005C14.9725 3.92022 14.8485 3.6639 14.7589 3.35673C14.6677 3.04439 14.6694 2.39115 14.7622 2.06933C14.9429 1.44271 15.3647 0.865136 15.8956 0.517594C16.2385 0.293076 16.8026 0.0818002 17.0892 0.070539L17.1913 0.0665211L17.0766 0.0478467C16.8771 0.0153645 17.4186 -0.0189851 17.636 0.0123653C17.7995 0.035963 17.8083 0.0401223 17.7077 0.0462339C17.6031 0.0525436 17.6082 0.0553165 17.765 0.0773863C18.5737 0.191244 19.3639 0.70414 19.9578 1.5008C20.2291 1.86473 22.6315 5.70926 23.8411 7.71534C24.0254 8.02092 24.0488 8.10581 23.9144 7.98111C23.7443 7.82332 20.082 4.0472 19.2086 3.12899C18.2059 2.0749 18.0926 1.96911 17.8367 1.84704C17.6696 1.76728 17.6236 1.75814 17.3921 1.75865C17.0713 1.75936 16.9204 1.82336 16.6851 2.05857C16.4642 2.27933 16.3924 2.46627 16.4092 2.77669C16.4228 3.02891 16.493 3.19839 16.6706 3.40814C16.7259 3.47342 17.6533 4.43393 18.7315 5.54266C19.8096 6.65135 20.8263 7.69854 20.9907 7.86972C21.7821 8.6938 22.2724 9.60254 22.5015 10.6699C22.6016 11.1365 22.6292 12.0638 22.5576 12.5525C22.4099 13.5609 21.9774 14.5375 21.336 15.3112C21.0903 15.6076 20.5806 16.0789 20.274 16.2933C19.9093 16.5483 19.7494 16.6397 18.9731 17.0372L18.31 17.3767L18.2957 24.6884L18.2814 32L17.385 31.0996ZM12.7863 18.2899C14.7315 17.3061 16.0272 16.6452 16.2201 16.5382C16.4939 16.3865 16.4731 16.5478 16.4825 14.5048C16.487 13.5166 16.4835 12.6794 16.4747 12.6444C16.4464 12.5313 16.3321 12.5646 16.0919 12.7565C14.0587 14.3798 12.5258 16.2366 11.2581 18.6116C11.0358 19.0282 11.0128 19.1466 11.1635 19.0994C11.1951 19.0895 11.9254 18.7252 12.7863 18.2899ZM8.00015 22.5806C8.00152 22.5476 8.00832 22.5409 8.01747 22.5635C8.02576 22.5839 8.02473 22.6083 8.0152 22.6177C8.00568 22.6271 7.99891 22.6104 8.00015 22.5806Z" fill="#C62B47"/>
</svg>
