<svg width="32" height="25" viewBox="0 0 32 25" fill="none" xmlns="http://www.w3.org/2000/svg">
<path d="M21.3451 13.9222C23.4465 13.9222 26.4893 13.4861 26.4893 10.9918C26.4961 10.7993 26.4792 10.6066 26.4389 10.4182L25.1864 4.99186C24.8973 3.79757 24.6434 3.25578 22.5421 2.20742C20.9131 1.37545 17.3575 0 16.3068 0C15.3318 0 15.046 1.25803 13.8793 1.25803C12.7563 1.25803 11.9225 0.318701 10.8701 0.318701C9.86141 0.318701 9.20578 1.00642 8.69808 2.41542C8.69808 2.41542 7.28595 6.39415 7.10102 6.97116C7.0733 7.0773 7.06196 7.18703 7.0674 7.29657C7.0674 8.84311 13.1698 13.9138 21.3451 13.9138M26.8138 12.005C27.1046 13.3804 27.1046 13.523 27.1046 13.7041C27.1046 16.0525 24.4585 17.3558 20.9803 17.3558C13.1194 17.3608 6.23357 12.7648 6.23357 9.72876C6.23235 9.30548 6.31818 8.88644 6.48574 8.49757C3.66483 8.63847 0 9.14168 0 12.3656C0 17.646 12.5411 24.1542 22.4681 24.1542C30.0802 24.1542 32 20.7189 32 18.0066C32 15.873 30.1508 13.4509 26.8171 12.005" fill="#EE0000"/>
<path d="M26.8136 12.0049C27.1044 13.3803 27.1044 13.5229 27.1044 13.704C27.1044 16.0524 24.4584 17.3557 20.9801 17.3557C13.1193 17.3607 6.23341 12.7647 6.23341 9.72868C6.2322 9.30539 6.31802 8.88636 6.48558 8.49748L7.10255 6.97778C7.07436 7.08158 7.0619 7.18901 7.06556 7.29648C7.06556 8.84302 13.168 13.9137 21.3449 13.9137C23.4463 13.9137 26.4891 13.481 26.4891 10.985C26.4961 10.7919 26.4792 10.5987 26.4387 10.4097L26.8136 12.0049Z" fill="black"/>
</svg>
