<svg width="32" height="28" viewBox="0 0 32 28" fill="none" xmlns="http://www.w3.org/2000/svg">
<path d="M30.7463 21.0448C29.0385 21.935 20.192 25.5723 18.3086 26.5542C16.4252 27.5362 15.379 27.5267 13.8911 26.8155C12.4034 26.1042 2.98913 22.3015 1.29325 21.4908C0.44575 21.0858 0 20.7438 0 20.4208V17.1863C0 17.1863 12.2562 14.5182 14.2349 13.8083C16.2134 13.0985 16.8999 13.0728 18.5836 13.6896C20.2676 14.3066 30.3359 16.1231 32 16.7326L31.9993 19.9213C31.9995 20.2411 31.6155 20.5918 30.7463 21.0448Z" fill="#912626"/>
<path d="M30.7456 17.8293C29.038 18.7191 20.1917 22.3566 18.3083 23.3384C16.4251 24.3205 15.3788 24.3108 13.8911 23.5996C12.4032 22.8888 2.98935 19.0855 1.2936 18.2753C-0.402153 17.4647 -0.437653 16.9068 1.2281 16.2546C2.89385 15.6021 12.2561 11.929 14.235 11.2191C16.2135 10.5095 16.8998 10.4836 18.5836 11.1006C20.2675 11.7173 29.061 15.2175 30.7248 15.8268C32.3894 16.437 32.4532 16.9393 30.7456 17.8293Z" fill="#C6302B"/>
<path d="M30.7463 15.8114C29.0385 16.7016 20.192 20.3389 18.3086 21.3211C16.4252 22.3027 15.379 22.2932 13.8911 21.582C12.4032 20.8711 2.98913 17.068 1.29325 16.2574C0.44575 15.8524 0 15.5109 0 15.1877V11.9529C0 11.9529 12.2562 9.28486 14.2349 8.57498C16.2134 7.86511 16.8999 7.83936 18.5836 8.45623C20.2677 9.07311 30.336 10.8892 32 11.4989L31.9993 14.688C31.9995 15.0076 31.6155 15.3584 30.7463 15.8114Z" fill="#912626"/>
<path d="M30.7456 12.5959C29.038 13.4859 20.1917 17.1231 18.3083 18.1053C16.4251 19.087 15.3788 19.0774 13.8911 18.3661C12.4032 17.6554 2.98935 13.8521 1.2936 13.0419C-0.402153 12.2315 -0.437653 11.6735 1.2281 11.021C2.89385 10.3689 12.2562 6.69551 14.235 5.98576C16.2135 5.27601 16.8998 5.25026 18.5836 5.86714C20.2675 6.48389 29.061 9.98376 30.7248 10.5934C32.3894 11.2034 32.4532 11.7059 30.7456 12.5959Z" fill="#C6302B"/>
<path d="M30.7463 10.3836C29.0385 11.2736 20.192 14.9111 18.3086 15.8934C16.4252 16.8751 15.379 16.8655 13.8911 16.1542C12.4032 15.4434 2.98913 11.6401 1.29325 10.8299C0.44575 10.4245 0 10.0829 0 9.76011V6.52511C0 6.52511 12.2562 3.85724 14.2349 3.14749C16.2134 2.43749 16.8999 2.41199 18.5836 3.02874C20.2677 3.64561 30.336 5.46174 32 6.07136L31.9993 9.26036C31.9995 9.57974 31.6155 9.93049 30.7463 10.3836Z" fill="#912626"/>
<path d="M30.7455 7.16825C29.0379 8.05825 20.1917 11.6957 18.3083 12.6775C16.425 13.6592 15.3788 13.6496 13.891 12.9387C12.4033 12.2275 2.98928 8.4245 1.29366 7.61412C-0.402215 6.80387 -0.43759 6.24575 1.22803 5.59337C2.89378 4.94112 12.2562 1.26825 14.2349 0.558247C16.2134 -0.151628 16.8998 -0.177128 18.5835 0.439747C20.2674 1.05662 29.0609 4.5565 30.7248 5.16612C32.3893 5.77562 32.4532 6.27825 30.7455 7.16825Z" fill="#C6302B"/>
<path d="M19.9098 4.02161L17.1585 4.30724L16.5426 5.78924L15.5479 4.13549L12.371 3.84999L14.7415 2.99511L14.0303 1.68286L16.2496 2.55086L18.3419 1.86586L17.7764 3.22274L19.9098 4.02161ZM16.3784 11.2114L11.2438 9.08174L18.6013 7.95236L16.3784 11.2114ZM9.25965 4.84536C11.4315 4.84536 13.1921 5.52786 13.1921 6.36961C13.1921 7.21161 11.4315 7.89399 9.25965 7.89399C7.08777 7.89399 5.32715 7.21149 5.32715 6.36961C5.32715 5.52786 7.08777 4.84536 9.25965 4.84536Z" fill="white"/>
<path d="M23.1621 4.42664L27.5166 6.14739L23.1659 7.86651L23.1621 4.42664Z" fill="#621B1C"/>
<path d="M18.3438 6.33238L23.1612 4.42676L23.165 7.86663L22.6926 8.05138L18.3438 6.33238Z" fill="#9A2928"/>
</svg>
