<svg width="151" height="50" viewBox="0 0 151 50" fill="none" xmlns="http://www.w3.org/2000/svg">
<g id="Frame 480990477">
<g clip-path="url(#clip0_4196_4009)">
<g id="Group 480989904" opacity="0.7">
<path id="Rectangle 62" d="M-0.901057 -17.1215C-4.38435 -23.7796 0.445365 -31.7571 7.95961 -31.7571H164.296C169.819 -31.7571 174.296 -27.2799 174.296 -21.7571V94.2031C174.296 97.1319 172.415 99.7298 169.633 100.645L161.262 103.397C132.213 112.948 101.15 95.901 93.6045 66.2669L92.9374 63.6467C87.373 41.792 67.6938 26.4954 45.1418 26.4954C30.8654 26.4954 17.77 18.5672 11.152 5.91732L-0.901057 -17.1215Z" fill="url(#paint0_linear_4196_4009)"/>
<g id="Rectangle 63">
<path d="M11.5562 -31.7571L164.345 -31.0079C169.848 -30.9809 174.296 -26.5117 174.296 -21.008V74.2721C174.296 76.7248 172.721 78.9 170.39 79.6651L163.331 81.9828C139.053 89.9544 113.053 75.5284 106.74 50.7672C101.801 31.3971 84.3232 17.7114 64.3334 17.7114C53.3359 17.7114 43.017 12.3937 36.635 3.43741L11.5562 -31.7571Z" fill="url(#paint1_linear_4196_4009)"/>
<path d="M11.5562 -31.7571L164.345 -31.0079C169.848 -30.9809 174.296 -26.5117 174.296 -21.008V74.2721C174.296 76.7248 172.721 78.9 170.39 79.6651L163.331 81.9828C139.053 89.9544 113.053 75.5284 106.74 50.7672C101.801 31.3971 84.3232 17.7114 64.3334 17.7114C53.3359 17.7114 43.017 12.3937 36.635 3.43741L11.5562 -31.7571Z" fill="url(#paint2_linear_4196_4009)"/>
<path d="M11.5562 -31.7571L164.345 -31.0079C169.848 -30.9809 174.296 -26.5117 174.296 -21.008V74.2721C174.296 76.7248 172.721 78.9 170.39 79.6651L163.331 81.9828C139.053 89.9544 113.053 75.5284 106.74 50.7672C101.801 31.3971 84.3232 17.7114 64.3334 17.7114C53.3359 17.7114 43.017 12.3937 36.635 3.43741L11.5562 -31.7571Z" fill="url(#paint3_linear_4196_4009)"/>
</g>
<g id="Rectangle 64">
<path d="M42.6414 -31.7571L164.095 -31.1615C169.599 -31.1346 174.046 -26.6654 174.046 -21.1617V53.8566C174.046 55.837 172.774 57.5934 170.893 58.2112L165.193 60.0826C145.589 66.5193 124.595 54.871 119.498 34.8774C115.51 19.237 101.397 8.1864 85.2565 8.1864C76.3765 8.1864 68.0445 3.89265 62.8913 -3.33916L42.6414 -31.7571Z" fill="url(#paint4_linear_4196_4009)"/>
<path d="M42.6414 -31.7571L164.095 -31.1615C169.599 -31.1346 174.046 -26.6654 174.046 -21.1617V53.8566C174.046 55.837 172.774 57.5934 170.893 58.2112L165.193 60.0826C145.589 66.5193 124.595 54.871 119.498 34.8774C115.51 19.237 101.397 8.1864 85.2565 8.1864C76.3765 8.1864 68.0445 3.89265 62.8913 -3.33916L42.6414 -31.7571Z" fill="url(#paint5_linear_4196_4009)"/>
<path d="M42.6414 -31.7571L164.095 -31.1615C169.599 -31.1346 174.046 -26.6654 174.046 -21.1617V53.8566C174.046 55.837 172.774 57.5934 170.893 58.2112L165.193 60.0826C145.589 66.5193 124.595 54.871 119.498 34.8774C115.51 19.237 101.397 8.1864 85.2565 8.1864C76.3765 8.1864 68.0445 3.89265 62.8913 -3.33916L42.6414 -31.7571Z" fill="url(#paint6_linear_4196_4009)"/>
</g>
</g>
</g>
</g>
<defs>
<linearGradient id="paint0_linear_4196_4009" x1="0.280068" y1="-28.1662" x2="194.868" y2="58.5131" gradientUnits="userSpaceOnUse">
<stop stop-color="#3840B3"/>
<stop offset="1" stop-color="#7954CA"/>
</linearGradient>
<linearGradient id="paint1_linear_4196_4009" x1="33.8033" y1="-31.7571" x2="189.693" y2="34.6235" gradientUnits="userSpaceOnUse">
<stop stop-color="#3A54CD"/>
<stop offset="1" stop-color="#267AD2"/>
</linearGradient>
<linearGradient id="paint2_linear_4196_4009" x1="33.8033" y1="-31.7571" x2="189.693" y2="34.6235" gradientUnits="userSpaceOnUse">
<stop stop-color="#3A54CD"/>
<stop offset="1" stop-color="#267AD2"/>
</linearGradient>
<linearGradient id="paint3_linear_4196_4009" x1="33.8033" y1="-31.7571" x2="189.693" y2="34.6235" gradientUnits="userSpaceOnUse">
<stop stop-color="#444BC8"/>
<stop offset="1" stop-color="#8662DF"/>
</linearGradient>
<linearGradient id="paint4_linear_4196_4009" x1="60.6049" y1="-31.7571" x2="186.479" y2="21.8421" gradientUnits="userSpaceOnUse">
<stop stop-color="#3A54CD"/>
<stop offset="1" stop-color="#267AD2"/>
</linearGradient>
<linearGradient id="paint5_linear_4196_4009" x1="60.6049" y1="-31.7571" x2="186.479" y2="21.8421" gradientUnits="userSpaceOnUse">
<stop stop-color="#3A54CD"/>
<stop offset="1" stop-color="#267AD2"/>
</linearGradient>
<linearGradient id="paint6_linear_4196_4009" x1="60.6049" y1="-31.7571" x2="186.479" y2="21.8421" gradientUnits="userSpaceOnUse">
<stop stop-color="#5559DB"/>
<stop offset="1" stop-color="#9070EE"/>
</linearGradient>
<clipPath id="clip0_4196_4009">
<rect x="0.442139" width="150" height="50" rx="10" fill="white"/>
</clipPath>
</defs>
</svg>
