<svg width="162" height="20" viewBox="0 0 162 20" fill="none" xmlns="http://www.w3.org/2000/svg">
<path d="M5.86522 9.11584C5.80653 9.03896 5.72898 8.97854 5.64008 8.94043C5.55118 8.90233 5.45395 8.88783 5.3578 8.89835C5.26165 8.90886 5.16985 8.94404 5.09129 9.00046C5.01273 9.05688 4.95007 9.13263 4.90939 9.22038L0.0615371 18.9161C0.0172555 19.0043 -0.00373895 19.1025 0.000545941 19.2011C0.00483084 19.2998 0.034253 19.3957 0.0860203 19.4798C0.137788 19.5638 0.210183 19.6333 0.296335 19.6815C0.382488 19.7298 0.479541 19.7552 0.578283 19.7554H7.32883C7.43811 19.7575 7.5456 19.7275 7.63798 19.6691C7.73036 19.6107 7.80358 19.5265 7.84857 19.4269C9.30322 16.4399 8.42207 11.8489 5.86522 9.11584Z" fill="url(#paint0_linear_756_2188)"/>
<path d="M9.42247 0.31021C8.21396 2.16936 7.50967 4.31083 7.37875 6.52438C7.24784 8.73793 7.69479 10.9475 8.67572 12.9361L11.9465 19.4268C11.9942 19.5233 12.0678 19.6045 12.159 19.6615C12.2503 19.7185 12.3556 19.7489 12.4632 19.7494H19.2138C19.3084 19.7416 19.3998 19.7114 19.4804 19.6612C19.561 19.611 19.6285 19.5423 19.6772 19.4609C19.726 19.3794 19.7546 19.2875 19.7608 19.1927C19.7669 19.098 19.7504 19.0031 19.7126 18.916L10.4082 0.31021C10.3636 0.217309 10.2937 0.138894 10.2065 0.0840081C10.1193 0.0291221 10.0184 0 9.91532 0C9.81228 0 9.71134 0.0291221 9.62414 0.0840081C9.53694 0.138894 9.46703 0.217309 9.42247 0.31021Z" fill="#2684FF"/>
<path d="M152.039 10.6454L156.94 19.7557H161.295V3.49463H157.831V13.9879L156.519 10.9441L152.582 3.49463H147.113V19.7557H150.578V7.35379L152.039 10.6454Z" fill="#0052CC"/>
<path d="M125.076 3.49463H121.288V19.7557H125.076V3.49463Z" fill="#0052CC"/>
<path d="M116.919 14.9463C116.919 12.0997 115.411 10.7645 111.152 9.8475C108.801 9.32777 108.233 8.80803 108.233 8.05532C108.233 7.11442 109.073 6.71715 110.623 6.71715C112.505 6.71715 114.363 7.28766 116.119 8.07921V4.36043C114.432 3.59249 112.595 3.2118 110.742 3.24629C106.534 3.24629 104.356 5.07731 104.356 8.07324C104.356 10.4628 105.47 12.3775 109.825 13.2198C112.424 13.7634 112.971 14.1846 112.971 15.0508C112.971 15.917 112.424 16.4368 110.581 16.4368C108.369 16.3963 106.201 15.8105 104.27 14.7312V18.6411C105.581 19.2833 107.313 20.0002 110.542 20.0002C115.094 20.0002 116.901 17.9721 116.901 14.9522" fill="#0052CC"/>
<path d="M101.153 14.9463C101.153 12.0997 99.6593 10.7645 95.388 9.8475C93.0372 9.32777 92.4667 8.80803 92.4667 8.05532C92.4667 7.11442 93.309 6.71715 94.8563 6.71715C96.7381 6.71715 98.593 7.28766 100.349 8.07921V4.36043C98.6627 3.59249 96.8256 3.2118 94.9728 3.24629C90.7671 3.24629 88.5866 5.07731 88.5866 8.07324C88.5866 10.4628 89.7008 12.3775 94.0588 13.2198C96.6574 13.7634 97.201 14.1846 97.201 15.0508C97.201 15.917 96.6574 16.4368 94.8115 16.4368C92.5993 16.3963 90.4314 15.8105 88.5 14.7312V18.6411C89.8143 19.2833 91.5467 20.0002 94.7726 20.0002C99.3278 20.0002 101.132 17.9721 101.132 14.9522" fill="#0052CC"/>
<path d="M62.9998 16.24V3.49463H59.1885V19.7557H66.9725L68.1972 16.24H62.9998Z" fill="#0052CC"/>
<path d="M51.8286 19.7557V7.0073H56.333V3.49463H43.8086V7.0073H48.0172V19.7557H51.8286Z" fill="#0052CC"/>
<path d="M38.2827 3.49463H33.2885L27.6133 19.7557H31.9593L32.7658 17.0166C34.7451 17.5983 36.85 17.5983 38.8294 17.0166L39.6329 19.7557H43.964L38.2827 3.49463ZM35.7856 14.0864C35.078 14.0874 34.3738 13.9869 33.6948 13.7877L35.7856 6.69069L37.8765 13.7877C37.1974 13.9867 36.4933 14.0872 35.7856 14.0864Z" fill="#0052CC"/>
<path d="M80.3911 3.49463H75.3969L69.7217 19.7557H74.0528L74.8593 17.0166C76.8386 17.5983 78.9435 17.5983 80.9228 17.0166L81.7263 19.7557H86.0574L80.3911 3.49463ZM77.894 14.0864C77.1864 14.0877 76.4822 13.9871 75.8032 13.7877L77.894 6.69069L79.9849 13.7877C79.3059 13.9871 78.6017 14.0877 77.894 14.0864Z" fill="#0052CC"/>
<path d="M138.72 3.49463H133.726L128.051 19.7557H132.382L133.185 17.0166C135.165 17.5983 137.27 17.5983 139.249 17.0166L140.052 19.7557H144.387L138.72 3.49463ZM136.223 14.0864C135.515 14.0872 134.811 13.9867 134.132 13.7877L136.223 6.69069L138.314 13.7877C137.635 13.9867 136.931 14.0872 136.223 14.0864Z" fill="#0052CC"/>
<defs>
<linearGradient id="paint0_linear_756_2188" x1="8.52362" y1="10.6123" x2="3.40694" y2="19.4776" gradientUnits="userSpaceOnUse">
<stop stop-color="#0052CC"/>
<stop offset="0.92" stop-color="#2684FF"/>
</linearGradient>
</defs>
</svg>
