<svg width="117" height="40" viewBox="0 0 117 40" fill="none" xmlns="http://www.w3.org/2000/svg">
<g clip-path="url(#clip0_756_2205)">
<path d="M40.1574 20.9664C40.161 19.337 39.6606 17.7463 38.7247 16.4124C37.7888 15.0784 36.4633 14.0666 34.9299 13.5155C35.2443 11.8737 35.1928 10.1827 34.7792 8.56307C34.3655 6.9434 33.5999 5.43485 32.5367 4.14482C31.4736 2.8548 30.1391 1.81503 28.6283 1.09955C27.1175 0.384072 25.4676 0.0104815 23.7959 0.00537918C21.9996 0.00323212 20.2285 0.428455 18.629 1.24593C17.0295 2.0634 15.6474 3.24967 14.5968 4.70677C13.7054 4.01831 12.639 3.59348 11.5184 3.48046C10.3978 3.36744 9.26796 3.57077 8.25708 4.06737C7.2462 4.56397 6.39475 5.33397 5.79933 6.28999C5.20392 7.24601 4.88838 8.34977 4.88852 9.47605C4.89103 10.1938 5.01735 10.9058 5.26191 11.5806C3.72316 12.1311 2.39192 13.1433 1.45011 14.4789C0.508299 15.8145 0.00186224 17.4083 5.12585e-06 19.0426C-0.00185199 20.6768 0.500961 22.2718 1.43973 23.6095C2.37851 24.9473 3.70744 25.9625 5.24494 26.5165C4.75098 29.0505 5.13853 31.6772 6.34325 33.9606C7.54798 36.244 9.4974 38.0467 11.8679 39.0694C14.2384 40.0922 16.8874 40.2734 19.3751 39.5831C21.8628 38.8927 24.0396 37.3723 25.5441 35.2743C26.5915 36.1067 27.8892 36.5612 29.2271 36.5642C30.825 36.5637 32.3573 35.9288 33.4871 34.7989C34.617 33.6691 35.2519 32.1368 35.2524 30.5389C35.2499 29.8212 35.1235 29.1092 34.879 28.4344C36.4173 27.8793 37.7482 26.8656 38.6922 25.5302C39.6361 24.1947 40.1475 22.6018 40.1574 20.9664Z" fill="white"/>
<path d="M15.7845 17.2334L24.5763 21.239L33.436 13.4655C33.5669 12.8233 33.6295 12.1691 33.6227 11.5137C33.6241 9.39794 32.948 7.33732 31.6933 5.63375C30.4386 3.93018 28.6713 2.6732 26.6504 2.04699C24.6294 1.42078 22.461 1.45825 20.4629 2.15391C18.4648 2.84957 16.742 4.16685 15.5469 5.91276L14.0703 13.5674L15.7845 17.2334Z" fill="#FED10A"/>
<path d="M6.6872 26.5344C6.55626 27.1881 6.49369 27.8536 6.5005 28.5202C6.50309 30.6447 7.18614 32.7125 8.44954 34.4206C9.71293 36.1286 11.4902 37.3871 13.5209 38.0115C15.5516 38.6359 17.7289 38.5934 19.7337 37.8902C21.7385 37.1871 23.4653 35.8602 24.6611 34.1042L26.1207 26.4835L24.1689 22.7495L15.3432 18.7271L6.6872 26.5344Z" fill="#24BBB1"/>
<path d="M6.63605 11.3271L12.6613 12.7528L13.9852 5.91288C13.1678 5.28707 12.1694 4.94357 11.14 4.93404C10.1107 4.92451 9.10607 5.24948 8.2773 5.86005C7.44852 6.47062 6.84041 7.33379 6.54443 8.31972C6.24845 9.30565 6.2806 10.361 6.63605 11.3271Z" fill="#EF5098"/>
<path d="M6.11006 12.7698C4.80647 13.1976 3.6675 14.0189 2.84993 15.1207C2.03236 16.2224 1.57637 17.5505 1.54473 18.9222C1.5131 20.2938 1.90736 21.6415 2.67326 22.7798C3.43916 23.9181 4.53904 24.7911 5.82153 25.2785L14.2738 17.6409L12.7293 14.3312L6.11006 12.7698Z" fill="#17A8E0"/>
<path d="M26.1885 34.1042C27.0064 34.7224 28.0022 35.0596 29.0275 35.0653C30.0527 35.071 31.0523 34.7451 31.877 34.136C32.7018 33.527 33.3075 32.6676 33.6037 31.6861C33.8999 30.7046 33.8708 29.6536 33.5206 28.69L27.5123 27.2812L26.1885 34.1042Z" fill="#93C83E"/>
<path d="M27.4103 25.7028L34.0296 27.2473C35.3332 26.8195 36.4721 25.9982 37.2897 24.8964C38.1073 23.7946 38.5633 22.4665 38.5949 21.0949C38.6265 19.7233 38.2323 18.3755 37.4664 17.2372C36.7005 16.0989 35.6006 15.226 34.3181 14.7385L25.6621 22.3252L27.4103 25.7028Z" fill="#0779A1"/>
<path d="M56.1446 28.0959L56.9424 28.011L56.9933 29.6404C55.2059 29.9067 53.4029 30.0542 51.596 30.0817C49.6102 30.0817 48.2015 29.5046 47.3699 28.3505C46.5382 27.1964 46.1309 25.3973 46.1309 22.9702C46.1309 18.1161 48.0601 15.689 51.9185 15.689C53.7855 15.689 55.1772 16.2151 56.0937 17.2505C57.0102 18.2858 57.4685 19.9321 57.4685 22.1555L57.3497 23.734H48.2185C48.2185 25.2615 48.49 26.3986 49.0501 27.1285C49.6102 27.8583 50.5607 28.2317 51.9355 28.2317C53.3399 28.2622 54.7451 28.2169 56.1446 28.0959ZM55.3979 22.1046C55.3979 20.4073 55.1263 19.2023 54.5832 18.5064C54.0401 17.8105 53.1575 17.4541 51.9355 17.4541C50.7134 17.4541 49.78 17.8275 49.1689 18.5573C48.5579 19.2872 48.2355 20.4752 48.2185 22.1046H55.3979ZM60.3538 29.8271V9.96924H62.4245V29.8271H60.3538ZM75.5103 20.1697V26.9757C75.5103 27.6716 77.2245 27.8074 77.2245 27.8074L77.1227 29.6404C75.6631 29.6404 74.458 29.7592 73.7282 29.0633C72.1618 29.7545 70.4673 30.1073 68.7552 30.0987C67.4823 30.0987 66.5149 29.7422 65.8529 29.0124C65.191 28.2826 64.8516 27.2642 64.8516 25.9064C64.8516 24.5486 65.191 23.5642 65.8699 22.9362C66.5488 22.3083 67.6181 21.9009 69.0777 21.7651L73.4227 21.3578V20.1697C73.4227 19.2362 73.219 18.5573 72.8117 18.15C72.4043 17.7427 71.8442 17.539 71.1484 17.539H65.7002V15.706H71.0126C72.5741 15.706 73.7112 16.0624 74.4241 16.7922C75.1369 17.522 75.5103 18.6422 75.5103 20.1697ZM66.9901 25.8046C66.9901 27.5019 67.686 28.3505 69.0947 28.3505C70.3548 28.3531 71.6061 28.1407 72.7947 27.7225L73.4227 27.5019V22.9362L69.3323 23.3266C68.5006 23.3945 67.9066 23.6321 67.5332 24.0395C67.1598 24.4468 66.9901 25.0408 66.9901 25.8046ZM83.6062 17.556C81.6034 17.556 80.5851 18.2518 80.5851 19.6606C80.5851 20.3055 80.8227 20.7638 81.281 21.0353C81.7392 21.3069 82.7915 21.5784 84.4378 21.867C86.0842 22.1555 87.2383 22.5459 87.9172 23.072C88.5961 23.5982 88.9356 24.5486 88.9356 25.9743C88.9356 27.4 88.4773 28.4353 87.5608 29.0973C86.6443 29.7592 85.3204 30.0987 83.5553 30.0987C82.4181 30.0987 78.5993 29.6743 78.5993 29.6743L78.7181 27.8753C80.9076 28.0789 82.503 28.2486 83.5722 28.2486C84.6415 28.2486 85.4562 28.0789 86.0163 27.7395C86.5764 27.4 86.8649 26.823 86.8649 26.0252C86.8649 25.2275 86.6273 24.6844 86.1521 24.3959C85.6768 24.1074 84.6245 23.8358 82.9952 23.5812C81.3658 23.3266 80.2117 22.9532 79.5328 22.444C78.8539 21.9349 78.5144 21.0184 78.5144 19.6775C78.5144 18.3367 78.9897 17.3353 79.9401 16.6904C80.8906 16.0454 82.0787 15.7229 83.4874 15.7229C84.6076 15.7229 88.5113 16.0115 88.5113 16.0115V17.8275C86.4576 17.7087 84.7773 17.556 83.6062 17.556ZM98.9494 17.7936H94.5535V24.4129C94.5535 25.9913 94.6723 27.0436 94.8929 27.5358C95.1136 28.028 95.6737 28.2826 96.5393 28.2826L99.0003 28.1129L99.1361 29.8271C98.2059 29.9995 97.2641 30.1016 96.3186 30.1326C94.8759 30.1326 93.8915 29.7762 93.3315 29.0803C92.7714 28.3844 92.4998 27.0436 92.4998 25.0748V17.7936H90.531V15.9945H92.4998V11.7514H94.5535V15.9775H98.9494V17.7936ZM101.835 12.8546V10.4614H103.905V12.8715L101.835 12.8546ZM101.835 29.8271V15.9945H103.905V29.8271H101.835ZM112.901 15.706C113.512 15.706 114.547 15.8248 116.007 16.0454L116.669 16.1303L116.584 17.8105C115.503 17.6699 114.415 17.5849 113.325 17.556C111.764 17.556 110.694 17.9294 110.134 18.6761C109.574 19.4229 109.286 20.8147 109.286 22.8344C109.286 24.8541 109.54 26.2629 110.066 27.0606C110.593 27.8583 111.679 28.2486 113.342 28.2486L116.601 27.9941L116.686 29.7083C114.971 29.9629 113.682 30.0987 112.833 30.0987C110.677 30.0987 109.184 29.5386 108.369 28.4353C107.554 27.3321 107.13 25.4652 107.13 22.8344C107.13 20.2037 107.571 18.3537 108.454 17.3014C109.337 16.2491 110.83 15.706 112.901 15.706Z" fill="black"/>
</g>
<defs>
<clipPath id="clip0_756_2205">
<rect width="116.686" height="40" fill="white"/>
</clipPath>
</defs>
</svg>
