<svg width="115" height="40" viewBox="0 0 115 40" fill="none" xmlns="http://www.w3.org/2000/svg">
<g clip-path="url(#clip0_756_2443)">
<path d="M87.9256 12.9111H85.9639L85.9758 27.2061H93.8946V25.4353H87.9256V12.9111Z" fill="#8C929D"/>
<path d="M101.442 24.6846C100.951 25.1889 100.126 25.6931 99.0136 25.6931C97.5183 25.6931 96.9202 24.9778 96.9202 24.0397C96.9202 22.6207 97.925 21.9406 100.054 21.9406C100.449 21.9406 101.095 21.9875 101.43 22.0461V24.6846H101.442ZM99.4203 16.0303C97.8413 16.0303 96.3939 16.5814 95.2575 17.4961L95.9513 18.6688C96.7528 18.2115 97.7337 17.7541 99.1332 17.7541C100.736 17.7541 101.454 18.5633 101.454 19.9118V20.6154C101.143 20.5451 100.497 20.5099 100.102 20.5099C96.669 20.5099 94.9346 21.6826 94.9346 24.1569C94.9346 26.3616 96.3102 27.4756 98.4035 27.4756C99.815 27.4756 101.167 26.8424 101.633 25.8221L101.992 27.2176H103.356V19.8884C103.356 17.5782 102.327 16.0303 99.4203 16.0303Z" fill="#8C929D"/>
<path d="M109.672 25.7637C108.942 25.7637 108.296 25.6816 107.806 25.4588V18.8331C108.476 18.282 109.301 17.895 110.342 17.895C112.232 17.895 112.973 19.2084 112.973 21.3192C112.973 24.3447 111.789 25.7637 109.672 25.7637ZM110.497 16.0305C108.751 16.0305 107.806 17.2031 107.806 17.2031V15.3503L107.794 12.9111H105.88L105.892 26.8543C106.849 27.2412 108.165 27.4641 109.588 27.4641C113.236 27.4641 114.995 25.1773 114.995 21.2254C114.995 18.0944 113.368 16.0305 110.497 16.0305Z" fill="#8C929D"/>
<path d="M66.6332 14.459C68.3677 14.459 69.4801 15.0219 70.2218 15.5965L71.0591 14.1658C69.9108 13.1808 68.3677 12.6414 66.7289 12.6414C62.5662 12.6414 59.6475 15.1274 59.6475 20.1465C59.6475 25.4001 62.7934 27.4523 66.394 27.4523C68.2002 27.4523 69.7313 27.0418 70.7361 26.6197L70.7002 21.0025V19.2318H65.3533V21.0025H68.7624L68.7983 25.2711C68.3557 25.4939 67.5782 25.6581 66.5255 25.6581C63.6308 25.6581 61.6929 23.8756 61.6929 20.1113C61.6929 16.3118 63.7025 14.459 66.6332 14.459Z" fill="#8C929D"/>
<path d="M80.4129 12.9111H78.499L78.511 15.3151V23.5942C78.511 25.9044 79.5397 27.4523 82.4464 27.4523C82.8532 27.4523 83.2479 27.4171 83.6307 27.3468V25.6581C83.3556 25.705 83.0565 25.7285 82.7455 25.7285C81.1426 25.7285 80.4368 24.9193 80.4368 23.5708V17.8598H83.6187V16.2884H80.4129V12.9111Z" fill="#8C929D"/>
<path d="M73.6426 27.1942H75.5565V16.2883H73.6426V27.1942Z" fill="#8C929D"/>
<path d="M73.6426 14.7874H75.5565V12.9111H73.6426V14.7874Z" fill="#8C929D"/>
<path d="M22.1829 39.9999L30.317 15.4558H14.0488L22.1829 39.9999Z" fill="#E24329"/>
<path d="M22.1832 39.9999L14.0491 15.4558H2.64941L22.1832 39.9999Z" fill="#FC6D26"/>
<path d="M2.64896 15.4558L0.172844 22.914C-0.0544314 23.5942 0.196768 24.3447 0.782901 24.7551L22.1827 39.9999L2.64896 15.4558Z" fill="#FCA326"/>
<path d="M2.64941 15.4558H14.0491L9.14472 0.66836C8.89352 -0.0938803 7.79303 -0.0938803 7.54183 0.66836L2.64941 15.4558Z" fill="#E24329"/>
<path d="M22.1826 39.9999L30.3167 15.4558H41.7164L22.1826 39.9999Z" fill="#FC6D26"/>
<path d="M41.7164 15.4558L44.1925 22.914C44.4198 23.5942 44.1686 24.3447 43.5824 24.7551L22.1826 39.9999L41.7164 15.4558Z" fill="#FCA326"/>
<path d="M41.7161 15.4558H30.3164L35.2208 0.66836C35.472 -0.0938803 36.5725 -0.0938803 36.8237 0.66836L41.7161 15.4558Z" fill="#E24329"/>
</g>
<defs>
<clipPath id="clip0_756_2443">
<rect width="115" height="40" fill="white"/>
</clipPath>
</defs>
</svg>
