<svg width="124" height="34" viewBox="0 0 124 34" fill="none" xmlns="http://www.w3.org/2000/svg">
<path d="M45.3629 25.0778V18.9454H39.9534V25.0778H37.1995V10.5371H39.9534V16.518H45.3629V10.5371H48.1167V25.0778M58.2124 25.0778H56.0269L55.8285 24.3586C54.8834 24.9714 53.7804 25.2978 52.653 25.2982C50.7031 25.2982 49.8713 23.9661 49.8713 22.1321C49.8713 19.9705 50.8137 19.1422 52.9713 19.1422H55.534V18.0274C55.534 16.8498 55.2064 16.4345 53.4983 16.4345C52.5051 16.4415 51.515 16.5475 50.543 16.7508L50.2154 14.7211C51.4068 14.3914 52.6365 14.2235 53.8734 14.2184C57.2214 14.2184 58.2082 15.396 58.2082 18.0614L58.2124 25.0778ZM55.5412 21.0596H53.5717C52.6954 21.0596 52.4557 21.2986 52.4557 22.1084C52.4557 22.8502 52.6954 23.1799 53.5303 23.1799C54.237 23.1689 54.9294 22.98 55.5433 22.6308L55.5412 21.0596ZM63.3821 25.2838C62.1324 25.2617 60.8927 25.0555 59.7035 24.6718L60.0755 22.6421C61.1084 22.9368 62.1765 23.091 63.2509 23.1006C64.432 23.1006 64.6087 22.8255 64.6087 22.0291C64.6087 21.3759 64.4764 21.0462 62.7466 20.631C60.1426 19.9963 59.8357 19.3431 59.8357 17.2928C59.8357 15.1539 60.7781 14.2142 63.8213 14.2142C64.898 14.2153 65.9706 14.3399 67.0184 14.5851L66.7529 16.7117C65.7849 16.5335 64.8043 16.4315 63.8203 16.4067C62.6609 16.4067 62.4625 16.6818 62.4625 17.334C62.4625 18.185 62.5286 18.2613 63.9742 18.6219C66.9709 19.4101 67.2458 19.8026 67.2458 21.9745C67.2458 24.0371 66.6092 25.3024 63.3914 25.3024L63.3821 25.2838ZM75.1828 25.0778V17.6637C75.1828 17.095 74.9431 16.8127 74.3293 16.8127C73.6741 16.8127 72.5106 17.2042 71.5475 17.709V25.0798H68.8764V10.1095L71.5475 9.7386V15.261C72.7565 14.6428 74.0864 14.2925 75.4432 14.2338C77.2164 14.2338 77.8509 15.4774 77.8509 17.3783V25.085L75.1828 25.0778ZM79.8328 12.9408V9.87048H82.504V12.949L79.8328 12.9408ZM79.8328 25.0778V14.4656H82.504V25.0984L79.8328 25.0778ZM84.366 14.5326C84.366 11.8693 85.9191 10.3207 89.5534 10.3207C90.8889 10.3205 92.2196 10.4817 93.5162 10.8008L93.2062 13.1881C92.0252 12.9648 90.8275 12.8407 89.6257 12.8171C87.7202 12.8171 87.1085 13.4734 87.1085 15.0138V20.6021C87.1085 22.1507 87.7223 22.7987 89.6257 22.7987C90.8275 22.7751 92.0252 22.6511 93.2062 22.4278L93.5121 24.7975C92.2152 25.1066 90.8843 25.2776 89.5492 25.2776C85.914 25.2776 84.3619 23.7291 84.3619 21.0658L84.366 14.5326ZM98.998 25.2941C95.34 25.2941 94.348 23.2871 94.348 21.1039V18.4179C94.348 16.2336 95.3338 14.2276 98.998 14.2276C102.662 14.2276 103.648 16.2347 103.648 18.4179V21.1039C103.64 23.2881 102.656 25.2941 98.998 25.2941ZM98.998 16.5056C97.5741 16.5056 97.0285 17.1403 97.0285 18.3396V21.1904C97.0285 22.3907 97.5793 23.0244 98.998 23.0244C100.417 23.0244 100.968 22.3897 100.968 21.1904V18.3396C100.962 17.1393 100.414 16.5056 98.998 16.5056ZM110.726 16.6705C109.745 17.1135 108.801 17.6318 107.9 18.219V25.0839H105.229V14.445H107.485L107.66 15.6227C108.529 15.0354 109.472 14.5653 110.464 14.2245L110.726 16.6705ZM120.856 21.5387C120.856 23.9084 119.804 25.2921 117.33 25.2921C116.374 25.2818 115.419 25.189 114.483 24.983V29.3762L111.811 29.7471V14.445H113.935L114.211 15.3414C115.184 14.6168 116.367 14.2267 117.582 14.2297C119.727 14.2297 120.864 15.497 120.864 17.9202L120.856 21.5387ZM114.486 22.739C115.263 22.9093 116.056 23.0014 116.852 23.0141C117.816 23.0141 118.188 22.5556 118.188 21.5943V17.8244C118.188 16.9507 117.861 16.4706 116.876 16.4706C115.991 16.5011 115.146 16.8415 114.489 17.4319L114.486 22.739ZM15.8023 1.50957L3.1543 8.78351V26.2544L7.90763 28.9898V11.5107L15.8023 6.964M20.8377 1.49927V15.4135H15.7909V10.2208L11.0376 12.9562V30.7836L15.7909 33.5242V19.6501H20.8377V24.8068L25.5911 22.0744V4.22442M20.8377 33.5314L33.4857 26.2575V8.78351L28.7324 6.04806V23.522L20.8377 28.0687" fill="black"/>
</svg>
