<svg width="46" height="40" viewBox="0 0 46 40" fill="none" xmlns="http://www.w3.org/2000/svg">
<path d="M19.9201 26.2336L17.7628 26.8392C17.9508 27.388 18.1007 28.3728 18.1007 29.6976V36.2096H20.522V29.32C20.9725 28.7712 21.4603 28.5056 21.9861 28.5056C22.2478 28.5056 22.4556 28.5616 22.6809 28.6952L23.3376 26.4424C22.9624 26.272 22.7935 26.2344 22.4366 26.2344C22.1749 26.2344 21.8545 26.2904 21.6483 26.3864C21.1978 26.6136 20.6347 27.1248 20.2786 27.6168C20.2786 27.068 20.1469 26.6328 19.9217 26.2352L19.9201 26.2336ZM11.579 23.016H11.3173V36.192H13.8314V30.36H17.0038V28.184H13.8314V25.1552H17.7914L17.9421 24C15.7985 23.8449 13.6708 23.5156 11.5798 23.0152L11.579 23.016ZM5.7045 37.952L6.86798 39.3152C7.99419 38.8608 9.40194 37.8384 9.77708 36.2112C9.90874 35.6808 9.94601 35.3392 9.94601 33.6176V23.0344H7.41205V33.9008C7.41205 35.3208 7.35653 35.8504 7.16777 36.3432C6.9235 36.892 6.34295 37.5352 5.7037 37.9512L5.7045 37.952ZM28.5459 31.2696C28.5459 33.5792 28.0954 34.564 27.0628 34.564C26.5933 34.564 26.0682 34.3 25.843 33.7688C25.655 33.2768 25.5416 32.444 25.5416 31.308C25.5416 30.3424 25.6352 29.66 25.7859 29.132C25.9738 28.5264 26.4426 28.148 27.0247 28.148C27.4562 28.148 27.8321 28.3376 28.0573 28.66C28.3952 29.1144 28.5451 29.9664 28.5451 31.2728L28.5459 31.2696ZM30.029 35.056C30.8173 34.1096 31.1742 32.9544 31.1742 31.288C31.1742 29.7168 30.8554 28.6376 30.1234 27.728C29.335 26.744 28.3214 26.2704 27.008 26.2704C24.5304 26.2704 22.8792 28.296 22.8792 31.3632C22.8792 34.4304 24.5129 36.3992 27.008 36.3992C28.4158 36.4184 29.335 35.8872 30.0218 35.0552L30.029 35.056ZM36.8973 29.604C36.8973 30.4936 36.3714 30.9856 35.4332 30.9856C34.5885 30.9856 34.0254 30.588 34.0254 29.604C34.0254 28.6952 34.5513 28.1656 35.4514 28.1656C36.3516 28.1656 36.8973 28.696 36.8973 29.604ZM41.1578 27.5216L40.1704 25.92C39.6152 26.4504 38.9316 26.752 38.2669 26.752C37.9656 26.752 37.7974 26.7144 37.1407 26.544C36.6057 26.3789 36.049 26.2958 35.4895 26.2976C33.1435 26.2976 31.6231 27.5856 31.6231 29.592C31.6231 31.0304 32.2616 31.9392 33.594 32.2992C33.0499 32.432 32.4678 32.7152 32.206 33.0376C32.0181 33.2648 31.9245 33.568 31.9245 33.9272C31.9244 34.2035 31.9888 34.4759 32.1125 34.7224C32.2441 34.9304 32.4138 35.1008 32.6383 35.196C33.0697 35.3664 33.7645 35.48 34.8352 35.5L35.8488 35.5192C36.5055 35.5568 36.8433 35.6712 37.1058 35.8032C37.3501 35.9552 37.5373 36.2952 37.5373 36.6752C37.5373 37.0552 37.312 37.4328 36.9552 37.6592C36.6363 37.8864 36.1105 37.9808 35.4348 37.9808C34.3276 37.9808 33.7082 37.5648 33.7082 36.7888C33.7082 36.448 33.7455 36.3728 33.8208 36.1648H31.6128C31.5192 36.3544 31.4066 36.6192 31.4066 37.1488C31.4066 37.8112 31.6509 38.3792 32.1577 38.8712C32.9825 39.6856 34.3347 39.9128 35.6299 39.9128C37.0559 39.9128 38.4454 39.572 39.252 38.6632C39.7596 38.1032 39.984 37.4712 39.984 36.6568C39.984 35.7848 39.7397 35.1232 39.1957 34.5744C38.5572 33.9504 37.826 33.7224 36.4182 33.7024L35.1231 33.6832C34.8788 33.6832 34.7289 33.5888 34.7289 33.456C34.7289 33.192 35.0668 32.964 35.6862 32.6608L36.0431 32.68C37.9941 32.68 39.4217 31.4688 39.4217 29.784C39.4217 29.14 39.2337 28.648 38.8776 28.1936C39.179 28.2312 39.2718 28.2496 39.4963 28.2496C40.1347 28.2496 40.6415 28.0416 41.1665 27.5296L41.1578 27.5216ZM10.9406 11.5616C7.93787 12.3 5.89167 13.7576 5.89167 15.4232C5.89167 16.4648 6.68001 17.4112 7.97515 18.1496C7.58098 17.5256 7.37477 16.8432 7.37477 16.1616C7.39381 14.4392 8.72622 12.8296 10.9406 11.5616ZM42.6211 18.0928C42.6211 16.9944 41.9454 15.9912 40.8192 15.1584C40.9127 15.4992 40.9881 15.84 40.9881 16.1808C40.9881 19.3048 36.653 21.9928 30.4969 23.1088C31.2137 23.1859 31.9341 23.2238 32.6549 23.2224C38.1543 23.2032 42.6211 20.9136 42.6211 18.0928ZM39.0743 16.3888C39.0743 15.2336 38.0988 14.1728 36.4277 13.3032C36.8219 13.7768 37.0281 14.2872 37.0281 14.8176C37.0281 17.6016 31.1726 19.8536 23.9284 19.8536C16.7033 19.8536 10.8287 17.6008 10.8287 14.8176C10.8288 14.4574 10.9262 14.1039 11.1103 13.7952C9.94681 14.5712 9.29012 15.4608 9.29012 16.408C9.29012 19.4184 15.9522 21.86 24.1735 21.86C32.3948 21.86 39.0759 19.38 39.0759 16.388L39.0743 16.3888ZM32.5804 16.2368C29.5396 18.2048 20.1937 18.9632 16.1774 16.4264C13.024 14.4384 14.113 11.2768 5.08587 4.34802C3.90415 3.43922 5.31112 2.47362 6.19305 3.09842C7.07498 3.72322 6.26839 3.87442 8.05129 5.67282C11.6544 9.30722 11.6171 6.03282 12.1802 7.28082C13.3809 9.87442 16.0085 12.4872 16.0085 12.4872C18.6551 14.2288 20.7568 14.6072 24.6613 11.9384C27.1389 10.2536 26.1253 14.6264 32.1878 11.4648C34.4021 10.3096 34.3086 11.0864 36.561 7.92482C37.4992 6.61842 39.2813 8.92802 37.2557 9.24962C36.4484 9.38242 35.0787 10.272 34.4957 11.6736C33.6511 13.7752 34.008 15.3272 32.5812 16.236L32.5804 16.2368ZM15.7269 10.8984C14.9759 10.5576 14.1883 9.27042 13.8869 8.75922C14.7316 7.92722 14.3945 6.54322 13.906 5.78722C13.4365 5.02962 12.8551 5.23842 12.2357 4.53762C11.5973 3.83682 12.48 2.02002 13.2866 3.42082C16.3004 8.66482 18.2974 6.48802 20.756 6.16482C23.121 5.86082 25.2228 7.16802 25.8612 3.47682C25.9738 2.87122 26.556 2.73842 26.6123 3.72322C26.6678 4.72642 27.0437 7.14962 28.3389 7.45282C29.634 7.77442 30.6849 7.14882 30.9855 6.80882C31.286 6.46882 31.455 6.50482 31.5858 7.36882C31.7175 8.22082 32.0554 9.41362 33.8755 8.08882C37.611 5.40082 36.5404 4.35922 38.0044 3.65922C38.8293 3.26162 40.1442 4.54882 38.2487 5.51522C35.5458 6.89682 35.2643 8.60082 33.5567 9.68002C30.6857 11.4976 31.5676 9.75602 26.9502 9.09282C25.1673 8.84642 24.6042 10.8344 23.2146 10.2664C20.0422 8.94162 17.8096 9.20642 15.7262 10.8904L15.7269 10.8984ZM25.7304 1.18642C25.843 1.98162 25.9746 1.96242 26.2562 2.01842C26.5377 2.09442 26.8946 1.64002 26.8946 1.22322C26.9137 0.788023 26.7067 0.522423 26.2943 0.541623C25.8628 0.560823 25.7121 0.768823 25.7391 1.18562L25.7304 1.18642ZM39.6176 2.60642C39.9555 2.92802 40.8564 2.72002 41.0626 2.47362C41.6067 1.86802 41.6178 1.50802 41.3442 1.09202C41.0626 0.694423 40.4797 0.751223 39.8992 1.18642C39.3186 1.62162 39.4296 2.43602 39.6176 2.60642ZM39.3733 6.62002C39.0918 6.99842 39.0719 7.28242 39.2797 7.49202C39.505 7.71922 39.9555 7.90802 40.2743 7.66242C40.5931 7.39842 40.5931 7.01842 40.3298 6.69682C40.0483 6.35602 39.6731 6.35602 39.3725 6.62082L39.3733 6.62002ZM10.8922 1.88802C11.3236 2.02082 11.5306 2.43682 11.8867 1.96402C12.0747 1.73682 12.0929 1.41522 11.8495 1.07442C11.6988 0.866423 10.985 0.714423 10.686 1.01842C10.387 1.32242 10.6669 1.81362 10.8922 1.89042V1.88802ZM2.09033 1.62402C2.87867 2.11602 3.38546 2.85442 3.99377 2.18402C4.19998 1.95682 4.44426 1.56002 4.01281 0.764023C3.69398 0.176823 2.66136 -0.0503764 2.30526 0.176824C1.93012 0.384824 1.48043 1.23682 2.09905 1.61522L2.09033 1.62402ZM9.35356 5.39202C9.59784 5.65602 10.0293 5.63842 10.2918 5.48642C10.5361 5.33442 10.498 4.93762 10.2545 4.59682C10.1038 4.38882 9.65415 4.27522 9.35356 4.59682C9.05298 4.91842 9.18463 5.20242 9.35356 5.39202Z" fill="#41BF47"/>
</svg>
