<svg width="183" height="34" viewBox="0 0 183 34" fill="none" xmlns="http://www.w3.org/2000/svg">
<g clip-path="url(#clip0_760_3551)">
<path d="M63.0662 24.4159V12.9841H63.0169L59.5183 24.4159H55.8966L52.398 12.9841H52.3488V24.4159H48.6778V9.53478H54.7879L57.6951 19.6855H57.7444L60.627 9.51014H66.7372V24.3913L63.0662 24.4159ZM80.0169 18.5768C80.0169 18.9464 79.9923 19.6362 79.9923 19.6362H72.1082C72.1821 20.7942 73.1183 21.5826 74.6212 21.5826C76.1488 21.5826 77.1836 20.9913 77.898 20.4246H78.0705L79.2038 23.3565C78.4893 23.9232 76.8633 24.6623 74.6952 24.6623C71.1966 24.6623 68.6836 22.4203 68.6836 18.5275C68.6836 14.6841 71.1966 12.2449 74.4734 12.2449C77.7995 12.2449 80.0169 14.8072 80.0169 18.5768ZM72.2314 17.0986H76.7894C76.6908 16.1623 75.8531 15.2507 74.5227 15.2507C73.1676 15.2507 72.3792 16.1377 72.2314 17.0986ZM91.1778 14.0928L89.9212 16.8768H89.7488C88.7386 15.7681 87.3343 15.2014 86.2502 15.2014C85.3386 15.2014 84.9937 15.5957 84.9937 15.9899C84.9937 16.5072 85.1908 16.5812 87.7285 17.1971C90.0937 17.7638 91.6459 18.6754 91.6459 20.9667C91.6459 23.3565 89.9705 24.6623 87.0633 24.6623C84.1807 24.6623 82.1111 23.5783 81.298 22.7159L82.6285 19.7348H82.8009C83.8357 20.5971 85.1169 21.4348 86.9401 21.4348C88.0241 21.4348 88.2212 21.1391 88.2212 20.7449C88.2212 20.3507 87.9995 20.129 85.4372 19.4884C82.6778 18.7985 81.6183 17.6899 81.6183 15.8913C81.6183 13.6493 83.4169 12.2203 86.1024 12.2203C88.6647 12.2449 90.6357 13.4522 91.1778 14.0928ZM102.585 14.0928L101.328 16.8768H101.156C100.146 15.7681 98.7415 15.2014 97.6575 15.2014C96.7459 15.2014 96.401 15.5957 96.401 15.9899C96.401 16.5072 96.5981 16.5812 99.1357 17.1971C101.501 17.7638 103.053 18.6754 103.053 20.9667C103.053 23.3565 101.378 24.6623 98.4705 24.6623C95.5879 24.6623 93.5183 23.5783 92.7053 22.7159L94.0357 19.7348H94.2082C95.243 20.5971 96.5241 21.4348 98.3473 21.4348C99.4314 21.4348 99.6285 21.1391 99.6285 20.7449C99.6285 20.3507 99.4067 20.129 96.8444 19.4884C94.085 18.7985 93.0256 17.6899 93.0256 15.8913C93.0256 13.6493 94.8241 12.2203 97.5097 12.2203C100.097 12.2449 102.068 13.4522 102.585 14.0928ZM114.066 16.8275V24.4159H111.282L110.986 22.8391H110.913C110.346 23.8493 109.163 24.6623 107.488 24.6623C105.197 24.6623 104.014 23.1841 104.014 21.2377C104.014 19.2913 104.901 18.0594 107.685 17.5174C110.469 16.9754 110.666 16.7783 110.666 16.187C110.666 15.6203 110.124 15.3 109.015 15.3C107.808 15.3 106.453 16.1623 105.714 17.271H105.542L104.137 14.3884C105.443 13.1072 107.118 12.2449 109.237 12.2449C111.923 12.2449 114.066 13.9942 114.066 16.8275ZM110.666 19.1435C110.469 19.4638 110.1 19.6855 108.843 19.9812C107.636 20.2768 107.463 20.6217 107.463 21.0899C107.463 21.558 107.857 21.7797 108.473 21.7797C109.459 21.7797 110.715 21.1391 110.715 20.1783V19.1435H110.666ZM123.995 14.0681H124.069L124.266 12.4913H127.026V22.8884C127.026 26.5594 124.956 28.5797 121.186 28.5797C119.043 28.5797 117.392 27.8652 116.382 27.1261L117.442 24.0957H117.614C118.624 24.9087 119.708 25.4014 121.063 25.4014C122.862 25.4014 123.502 24.687 123.502 23.0855V22.0014H123.428C122.911 22.7652 121.901 23.4058 120.373 23.4058C117.54 23.4058 115.569 21.1884 115.569 18.0348C115.569 14.5855 117.91 12.2203 120.669 12.2203C122.344 12.2449 123.502 13.2304 123.995 14.0681ZM119.191 17.9362C119.191 19.3899 120.102 20.3014 121.482 20.3014C122.813 20.3014 123.724 19.4638 123.724 17.9116C123.724 16.4333 122.936 15.3739 121.482 15.3739C119.979 15.3739 119.191 16.4826 119.191 17.9362ZM140.084 18.5768C140.084 18.9464 140.059 19.6362 140.059 19.6362H132.175C132.249 20.7942 133.185 21.5826 134.688 21.5826C136.215 21.5826 137.25 20.9913 137.965 20.4246H138.137L139.246 23.3812C138.531 23.9478 136.905 24.687 134.737 24.687C131.239 24.687 128.726 22.4449 128.726 18.5522C128.726 14.7087 131.239 12.2696 134.515 12.2696C137.866 12.2449 140.084 14.8072 140.084 18.5768ZM132.298 17.0986H136.856C136.757 16.1623 135.92 15.2507 134.589 15.2507C133.259 15.2507 132.446 16.1377 132.298 17.0986ZM149.963 9.53478C152.895 9.53478 154.472 10.9638 154.472 13.3536C154.472 15.0536 153.684 16.113 152.131 16.7783V16.8275C153.536 17.3696 154.472 18.5275 154.472 20.4493C154.472 22.371 153.388 24.4159 149.421 24.4159H141.981V9.53478H149.963ZM145.75 15.5957H149.298C150.185 15.5957 150.678 15.0783 150.678 14.3145C150.678 13.5754 150.284 12.9841 149.175 12.9841H145.75V15.5957ZM145.75 20.9667H149.298C150.185 20.9667 150.678 20.4493 150.678 19.6609C150.678 18.8725 150.284 18.2812 149.175 18.2812H145.75V20.9667ZM160.286 8.86957C160.286 10.1507 159.498 11.087 158.069 11.087C156.64 11.087 155.852 10.1507 155.852 8.86957C155.852 7.56377 156.64 6.70145 158.069 6.70145C159.498 6.70145 160.286 7.56377 160.286 8.86957ZM156.295 24.4159V12.4913H159.794V24.3913H156.295V24.4159ZM170.142 13.2304L169.624 16.4333H169.452C169.107 16.0638 168.589 15.7188 167.826 15.7188C166.421 15.7188 165.608 17 165.608 19.1435V24.4159H162.11V12.4913H164.992L165.189 14.0681H165.263C165.904 12.787 166.889 12.2449 167.973 12.2449C168.811 12.2449 169.698 12.5652 170.142 13.2304ZM179.578 24.4159L179.282 22.8391H179.208C178.518 23.9232 177.484 24.6623 175.586 24.6623C172.384 24.6623 170.363 22.1 170.363 18.6261C170.363 15.0536 172.482 12.2449 175.685 12.2449C177.089 12.2449 178.247 12.787 178.913 13.7232H178.962V8.62319H182.362V24.4159H179.578ZM173.862 18.4783C173.862 20.2768 174.897 21.4101 176.449 21.4101C178.001 21.4101 179.06 20.4 179.06 18.4536C179.06 16.6551 178.026 15.3739 176.498 15.3739C174.971 15.3739 173.862 16.6797 173.862 18.4783ZM36.4082 6.06087C34.7821 6.06087 33.3285 6.87391 32.4415 8.1058L26.4546 16.4826C26.2328 16.8029 25.8633 17 25.4691 17C24.8038 17 24.2618 16.458 24.2618 15.7928C24.2618 15.5464 24.3357 15.3 24.4589 15.1275L29.5096 7.56377C30.027 6.8 30.3227 5.86377 30.3227 4.85362C30.3227 2.16812 28.1546 0 25.4691 0H0.0429688V4.85362H21.8227C21.8227 6.18406 20.7386 7.29275 19.3836 7.29275H0.0429688C0.0429688 9.01739 0.412534 10.6681 1.05311 12.1464H16.9444C16.9444 13.4768 15.8604 14.5855 14.5053 14.5855H2.4821C4.69949 17.542 8.22268 19.4391 12.214 19.4391H18.2009C18.8662 19.4391 19.4082 19.9812 19.4082 20.6464C19.4082 21.3116 18.8662 21.8536 18.2009 21.8536H12.1893L4.05891 34H18.7676C25.4937 34 31.2096 29.6145 33.2053 23.5536L35.9401 15.2507C36.827 12.5652 38.4531 10.2 40.572 8.40145C39.7343 6.9971 38.1821 6.06087 36.4082 6.06087ZM36.4082 9.38696C35.9154 9.38696 35.4966 8.96812 35.4966 8.47536C35.4966 7.98261 35.9154 7.56377 36.4082 7.56377C36.9009 7.56377 37.3198 7.98261 37.3198 8.47536C37.3198 8.99275 36.9009 9.38696 36.4082 9.38696Z" fill="#2E9BEF"/>
</g>
<defs>
<clipPath id="clip0_760_3551">
<rect width="182.403" height="34" fill="white"/>
</clipPath>
</defs>
</svg>
