<svg width="120" height="40" viewBox="0 0 120 40" fill="none" xmlns="http://www.w3.org/2000/svg">
<path d="M65.645 12.7624C65.645 13.7068 64.8695 14.5494 63.8581 14.5494C63.0825 14.5494 62.4084 14.7518 61.8353 15.1901C61.1949 15.5949 60.6891 16.1678 60.2847 16.8082C59.4755 17.8872 59.0717 19.168 58.9026 19.6397V26.045C58.9026 27.0227 58.06 27.8319 57.0487 27.8319C56.5758 27.8285 56.1233 27.6392 55.7889 27.3048C55.4545 26.9704 55.2651 26.5179 55.2617 26.045V12.7624C55.2617 11.7847 56.0704 11.0094 57.0487 11.0094C58.06 11.0094 58.9026 11.785 58.9026 12.7624V12.9985C59.1048 12.7624 59.3722 12.493 59.6106 12.3242C60.7232 11.5828 62.1723 10.9755 63.8581 11.0094C64.8695 11.0094 65.645 11.785 65.645 12.7624ZM64.6537 19.4041C64.6876 14.8194 68.261 10.9763 72.8788 10.9763C77.2614 10.9763 80.731 14.2462 81.0036 18.7971V18.9656C81.0036 19.0334 81.0036 19.2014 80.9696 19.269C80.8653 20.0782 80.1604 20.6177 79.2166 20.6177H68.4989C68.6674 21.3932 69.0381 22.2695 69.6451 22.8428C70.3531 23.6521 71.7016 24.2583 72.8812 24.3595C74.0948 24.4605 75.542 24.1574 76.3873 23.5169C77.095 22.775 78.4773 22.8765 78.9156 23.4126C79.3538 23.8822 79.6909 24.8964 78.9156 25.6039C77.2635 27.1206 75.2747 27.8291 72.8809 27.8291C68.2631 27.7959 64.6897 23.9865 64.6558 19.4018L64.6537 19.4041ZM68.3283 17.7523H77.8682C77.5312 16.4036 75.8118 14.415 72.8788 14.1789C70.0137 14.3135 68.6006 16.3702 68.328 17.7523H68.3283ZM98.1803 26.0119C98.1803 26.9896 97.3711 27.8327 96.3595 27.8327C95.4465 27.8327 94.7416 27.1923 94.5726 26.3831C93.2943 27.2596 91.6735 27.8327 89.9878 27.8327C85.437 27.8327 81.7961 23.9896 81.7961 19.4385C81.7961 14.8199 85.437 10.9768 89.9878 10.9768C91.6399 10.9768 93.2578 11.516 94.505 12.3925V6.05502C94.505 5.07729 95.3142 4.23416 96.359 4.23416C97.3703 4.23416 98.1798 5.07676 98.1798 6.05502V26.0121L98.1803 26.0119ZM89.9886 14.6511C88.775 14.6511 87.6624 15.1567 86.8201 16.0332C85.9775 16.8758 85.4714 18.0893 85.4714 19.438C85.4714 20.7163 85.977 21.9324 86.8201 22.7753C87.6627 23.6518 88.775 24.1579 89.9886 24.1579C91.2355 24.1579 92.3147 23.6523 93.1573 22.7753C93.9999 21.9327 94.506 20.7189 94.506 19.438C94.506 18.0893 94.0005 16.8763 93.1573 16.0332C92.3147 15.1567 91.2358 14.6511 89.9886 14.6511ZM104.595 6.76249C104.595 7.77387 103.82 8.61647 102.774 8.61647C101.763 8.61647 100.954 7.77387 100.954 6.76249V6.05449C100.953 5.81515 100.999 5.57798 101.09 5.35666C101.182 5.13534 101.316 4.93426 101.485 4.765C101.654 4.59575 101.855 4.46168 102.076 4.37052C102.298 4.27937 102.535 4.23294 102.774 4.2339C103.819 4.2339 104.595 5.04311 104.595 6.05476V6.76249ZM104.595 12.8668V26.0145C104.595 27.0259 103.82 27.8353 102.774 27.8353C102.535 27.8363 102.298 27.7899 102.076 27.6987C101.855 27.6075 101.654 27.4735 101.485 27.3042C101.316 27.135 101.182 26.9339 101.09 26.7126C100.999 26.4913 100.953 26.2541 100.954 26.0147V12.867C100.954 11.7883 101.763 11.0128 102.774 11.0128C103.82 11.0128 104.595 11.7881 104.595 12.8668ZM106.912 23.0093C107.518 22.2006 108.698 22.0994 109.44 22.7398C110.316 23.4817 111.834 24.2565 113.148 24.2231C114.061 24.2231 114.901 23.92 115.441 23.5827C115.91 23.1783 116.047 22.8413 116.047 22.5713C116.047 22.4028 116.013 22.3355 115.946 22.234C115.912 22.133 115.778 21.9982 115.508 21.8296C115.038 21.4923 114.025 21.1214 112.811 20.8853H112.777C111.732 20.6831 110.72 20.4157 109.844 20.0088C108.931 19.5705 108.123 18.964 107.518 18.0539C107.148 17.4471 106.945 16.7052 106.945 15.9304C106.945 14.3795 107.822 13.0648 108.934 12.2219C110.114 11.4132 111.53 10.975 113.081 10.975C115.407 10.975 117.059 12.0876 118.137 12.8289C118.947 13.3684 119.182 14.481 118.677 15.3234C118.137 16.1326 117.025 16.3687 116.182 15.7929C115.104 15.0852 114.159 14.5455 113.078 14.5455C112.235 14.5455 111.493 14.8152 111.055 15.1522C110.617 15.4559 110.516 15.7593 110.516 15.9278C110.516 16.0624 110.516 16.0963 110.583 16.1973C110.617 16.2646 110.718 16.3994 110.954 16.5343C111.392 16.8377 112.269 17.1411 113.415 17.3435L113.449 17.3774H113.483C114.596 17.5793 115.64 17.883 116.618 18.3549C117.531 18.7592 118.439 19.3999 119.012 20.3437C119.416 21.0178 119.652 21.7934 119.652 22.5689C119.652 24.2208 118.739 25.6028 117.528 26.4819C116.315 27.3245 114.798 27.8306 113.146 27.8306C110.516 27.7967 108.494 26.5837 107.145 25.5047C106.403 24.898 106.303 23.7517 106.909 23.0098L106.912 23.0093Z" fill="#636466"/>
<path d="M42.9814 30.3109C40.6133 31.5453 28.3452 36.5894 25.7334 37.9509C23.1216 39.3124 21.6707 39.2996 19.6075 38.3135C17.5443 37.3274 4.48893 32.0537 2.13721 30.9296C0.961744 30.3677 0.34375 29.894 0.34375 29.4458V24.9602C0.34375 24.9602 17.34 21.2601 20.0841 20.2758C22.8281 19.2916 23.7798 19.2585 26.1148 20.1115C28.4498 20.9645 42.4122 23.4861 44.7198 24.3313L44.7188 28.753C44.7191 29.1964 44.1866 29.6827 42.9814 30.3109Z" fill="#A41E11"/>
<path d="M42.982 25.8242C40.6138 27.0581 28.3458 32.1028 25.734 33.4642C23.1222 34.8257 21.6712 34.8129 19.608 33.8268C17.5448 32.8407 4.48949 27.5665 2.13777 26.443C-0.213947 25.3194 -0.263253 24.5452 2.04699 23.6407L20.0849 16.6573C22.8287 15.6733 23.7806 15.6399 26.1156 16.493C28.4506 17.346 40.6459 22.2023 42.9533 23.0475C45.2607 23.8927 45.3501 24.59 42.9794 25.8245L42.982 25.8242Z" fill="#D82C20"/>
<path d="M42.9814 22.9963C40.6133 24.2307 28.3452 29.2748 25.7334 30.6371C23.1216 31.9993 21.6707 31.9852 19.6075 30.9989C17.5443 30.0125 4.48893 24.7391 2.13721 23.615C0.961744 23.0531 0.34375 22.5794 0.34375 22.1317V17.6456C0.34375 17.6456 17.34 13.9457 20.0841 12.9612C22.8281 11.9767 23.7798 11.9438 26.1148 12.7969C28.4498 13.6499 42.4122 16.1709 44.7198 17.0164L44.7188 21.4389C44.7191 21.8824 44.1866 22.3686 42.9814 22.9968V22.9963Z" fill="#A41E11"/>
<path d="M42.982 18.5093C40.6138 19.7438 28.3458 24.7879 25.734 26.1501C23.1222 27.5124 21.6712 27.4983 19.608 26.5119C17.5448 25.5256 4.48949 20.2519 2.13777 19.1281C-0.213947 18.0043 -0.263253 17.2306 2.04699 16.3256L20.0849 9.34273C22.8287 8.35848 23.7806 8.32534 26.1156 9.17838C28.4506 10.0314 40.6459 14.8875 42.9533 15.7329C45.2607 16.5784 45.3501 17.2754 42.9794 18.5099L42.982 18.5093Z" fill="#D82C20"/>
<path d="M42.9814 15.41C40.6133 16.6444 28.3452 21.689 25.7334 23.0534C23.1216 24.4177 21.6707 24.4015 19.6075 23.4152C17.5443 22.4288 4.48893 17.1552 2.13721 16.0313C0.961744 15.4694 0.34375 14.9957 0.34375 14.548V10.0596C0.34375 10.0596 17.34 6.35969 20.0841 5.37544C22.8281 4.39119 23.7798 4.35806 26.1148 5.2111C28.4498 6.06413 42.4122 8.58515 44.7198 9.43062L44.7188 13.8528C44.7191 14.2958 44.1866 14.7821 42.9814 15.41Z" fill="#A41E11"/>
<path d="M42.982 10.9232C40.6138 12.1576 28.3458 17.2023 25.734 18.564C23.1222 19.9257 21.6712 19.9122 19.608 18.9261C17.5448 17.94 4.48949 12.6661 2.13777 11.5423C-0.213947 10.4184 -0.263253 9.64446 2.04699 8.73977L20.0849 1.75688C22.8287 0.77237 23.7806 0.7395 26.1156 1.59253C28.4506 2.44557 40.6459 7.30161 42.9533 8.14708C45.2607 8.99255 45.3501 9.68933 42.9794 10.9235L42.982 10.9232Z" fill="#D82C20"/>
<path d="M22.25 6.76227L17.81 6.36314L21.123 5.16837L20.1317 3.33447L23.236 4.5475L26.1578 3.59012L25.3673 5.48663L28.349 6.60314L24.5039 7.00226L23.643 9.07355L22.25 6.76227ZM16.2344 13.6752L26.5178 12.097L23.4134 16.6517L16.2344 13.6752Z" fill="white"/>
<path d="M13.4611 12.0154C16.4965 12.0154 18.9573 11.0615 18.9573 9.88489C18.9573 8.70825 16.4965 7.75439 13.4611 7.75439C10.4256 7.75439 7.96484 8.70825 7.96484 9.88489C7.96484 11.0615 10.4256 12.0154 13.4611 12.0154Z" fill="white"/>
<path d="M38.9766 9.57455L32.8984 11.9745V7.16675L38.9766 9.57455Z" fill="#7A0C00"/>
<path d="M32.8945 7.16919V11.977L32.2345 12.2378L26.1562 9.83786L32.8945 7.16919Z" fill="#AD2115"/>
</svg>
