<svg width="593" height="421" viewBox="0 0 593 421" fill="none" xmlns="http://www.w3.org/2000/svg">
<path d="M271 174V110C271 106.686 273.686 104 277 104H350.161C353.475 104 356.161 106.686 356.161 110V127.291C356.161 130.604 358.848 133.291 362.161 133.291H441.5" stroke="#FCA326" stroke-width="2" stroke-linecap="round" stroke-dasharray="6 6"/>
<path d="M221 254V370C221 373.314 223.686 376 227 376H263.5C266.814 376 269.5 373.314 269.5 370L269.5 340.5C269.5 337.186 272.186 334.5 275.5 334.5H327.5" stroke="#FCA326" stroke-width="2" stroke-linecap="round" stroke-dasharray="6 6"/>
<path d="M311 229H438.902C442.216 229 444.902 226.314 444.902 223V203C444.902 199.686 447.589 197 450.902 197H494" stroke="#FCA326" stroke-width="2" stroke-linecap="round" stroke-dasharray="6 6"/>
<path d="M311 269H411" stroke="#FCA326" stroke-width="2" stroke-linecap="round" stroke-dasharray="6 6"/>
<path d="M236 184V151.667C236 148.353 233.314 145.667 230 145.667H189C185.686 145.667 183 142.98 183 139.667V114" stroke="#FCA326" stroke-width="2" stroke-linecap="round" stroke-dasharray="6 6"/>
<path d="M234.5 209.5H149C145.686 209.5 143 206.814 143 203.5V177C143 173.686 140.314 171 137 171H111" stroke="#FCA326" stroke-width="2" stroke-linecap="round" stroke-dasharray="6 6"/>
<path d="M235 231H176.543C173.229 231 170.543 233.686 170.543 237V255C170.543 258.314 167.856 261 164.543 261H148" stroke="#FCA326" stroke-width="2" stroke-linecap="round" stroke-dasharray="6 6"/>
<g filter="url(#filter0_d_760_2683)">
<circle cx="430" cy="127" r="25" fill="white"/>
</g>
<path d="M424.015 132.993L435.983 121.006M435.983 132.993L424.015 121.006" stroke="#F05542" stroke-width="3" stroke-linecap="round" stroke-linejoin="round"/>
<g filter="url(#filter1_d_760_2683)">
<circle cx="504" cy="197" r="25" fill="white"/>
</g>
<g clip-path="url(#clip0_760_2683)">
<path d="M504 190.561C499.042 190.561 494.767 193.186 492.791 197C494.767 200.803 499.042 203.439 504 203.439C508.957 203.439 513.232 200.814 515.209 197C513.232 193.198 508.957 190.561 504 190.561ZM504 202.625C502.887 202.625 501.8 202.295 500.875 201.677C499.95 201.059 499.229 200.18 498.803 199.153C498.377 198.125 498.266 196.994 498.483 195.903C498.7 194.812 499.236 193.809 500.022 193.023C500.809 192.236 501.811 191.7 502.902 191.483C503.994 191.266 505.125 191.377 506.152 191.803C507.18 192.229 508.059 192.95 508.677 193.875C509.295 194.8 509.625 195.888 509.625 197C509.625 198.492 509.032 199.923 507.977 200.978C506.922 202.032 505.492 202.625 504 202.625Z" fill="#E6E7E8"/>
<path d="M504 202.625C507.107 202.625 509.625 200.107 509.625 197C509.625 193.893 507.107 191.375 504 191.375C500.893 191.375 498.375 193.893 498.375 197C498.375 200.107 500.893 202.625 504 202.625Z" fill="#8C8A80"/>
<path d="M493.5 191H492V185.75C492 185.551 492.079 185.36 492.22 185.22C492.36 185.079 492.551 185 492.75 185H498V186.5H493.5V191ZM516 191H514.5V186.5H510V185H515.25C515.449 185 515.64 185.079 515.78 185.22C515.921 185.36 516 185.551 516 185.75V191ZM498 209H492.75C492.551 209 492.36 208.921 492.22 208.78C492.079 208.64 492 208.449 492 208.25V203H493.5V207.5H498V209ZM515.25 209H510V207.5H514.5V203H516V208.25C516 208.449 515.921 208.64 515.78 208.78C515.64 208.921 515.449 209 515.25 209Z" fill="#6169E4"/>
</g>
<g filter="url(#filter2_d_760_2683)">
<circle cx="415" cy="269" r="25" fill="white"/>
</g>
<path d="M417.263 269.654C417.448 269.837 417.671 269.976 417.917 270.061V277.039L412.084 275.581V261.544L413.982 262.019C413.885 262.394 413.835 262.779 413.834 263.167C413.834 266.146 416.912 269.305 417.263 269.654ZM425.411 262.114C425.202 261.95 424.958 261.836 424.697 261.781C424.437 261.726 424.168 261.731 423.91 261.796L423.018 262.019C423.116 262.394 423.165 262.779 423.167 263.167C423.167 266.146 420.088 269.305 419.737 269.655C419.552 269.838 419.329 269.976 419.084 270.061V277.039L424.758 275.62C425.136 275.526 425.473 275.308 425.713 275C425.953 274.693 426.084 274.314 426.084 273.923V263.493C426.084 263.227 426.024 262.965 425.908 262.726C425.791 262.487 425.621 262.278 425.411 262.114ZM403.917 264.661V275.089C403.917 275.552 404.101 275.997 404.428 276.325C404.755 276.653 405.199 276.839 405.663 276.84C405.807 276.84 405.951 276.823 406.091 276.788L410.917 275.58V261.545L405.243 262.963C404.864 263.057 404.527 263.275 404.287 263.583C404.047 263.891 403.916 264.27 403.917 264.661ZM422 263.167C422 265.712 419.039 268.703 418.913 268.829C418.803 268.939 418.655 269 418.5 269C418.346 269 418.197 268.939 418.088 268.829C417.962 268.703 415 265.712 415 263.167C415 262.238 415.369 261.348 416.025 260.692C416.682 260.035 417.572 259.667 418.5 259.667C419.429 259.667 420.319 260.035 420.975 260.692C421.632 261.348 422 262.238 422 263.167ZM420.25 263.167C420.25 262.821 420.148 262.482 419.955 262.195C419.763 261.907 419.49 261.682 419.17 261.55C418.85 261.418 418.498 261.383 418.159 261.45C417.819 261.518 417.508 261.685 417.263 261.929C417.018 262.174 416.851 262.486 416.784 262.825C416.716 263.165 416.751 263.517 416.884 263.836C417.016 264.156 417.24 264.43 417.528 264.622C417.816 264.814 418.154 264.917 418.5 264.917C418.964 264.916 419.409 264.732 419.737 264.404C420.065 264.076 420.25 263.631 420.25 263.167Z" fill="#819CF4"/>
<g filter="url(#filter3_d_760_2683)">
<circle cx="183" cy="89" r="25" fill="white"/>
</g>
<path opacity="0.4" d="M191.332 91.2869C190.346 90.7162 190.005 89.4855 190.562 88.5091C190.745 88.1939 191.011 87.9318 191.332 87.7499C191.82 87.4766 192.177 87.0253 192.323 86.4954C192.47 85.9656 192.393 85.4008 192.111 84.9258L191.417 83.7129C191.137 83.2371 190.674 82.8896 190.13 82.7471C189.586 82.6047 189.006 82.679 188.518 82.9536C188.029 83.2287 187.448 83.3032 186.902 83.1608C186.356 83.0184 185.891 82.6708 185.609 82.1944C185.424 81.8782 185.326 81.5211 185.324 81.1573C185.326 80.6081 185.104 80.0805 184.706 79.6913C184.308 79.3021 183.768 79.0833 183.204 79.0833H181.806C180.634 79.0833 179.682 80.0062 179.677 81.1481C179.681 81.8886 179.277 82.5746 178.619 82.9457C177.961 83.3168 177.15 83.3163 176.492 82.9443C176 82.6585 175.41 82.579 174.857 82.7237C174.303 82.8685 173.834 83.2253 173.555 83.7129L172.889 84.8795C172.308 85.8695 172.656 87.1311 173.669 87.7036C174.684 88.2795 175.028 89.5473 174.439 90.5369C174.258 90.8516 173.992 91.1112 173.669 91.2869C173.18 91.5601 172.823 92.0115 172.677 92.5414C172.531 93.0712 172.607 93.636 172.889 94.111L173.555 95.2962C174.146 96.2849 175.448 96.6205 176.464 96.0462C177.481 95.485 178.772 95.8232 179.363 96.8054C179.551 97.1202 179.65 97.4782 179.648 97.8424C179.648 98.3957 179.875 98.9261 180.279 99.3156C180.682 99.7051 181.229 99.9214 181.797 99.9166H183.194C184.37 99.9166 185.324 98.9879 185.324 97.8424C185.316 97.29 185.536 96.7577 185.935 96.3644C186.333 95.9712 186.877 95.7498 187.444 95.7499C187.818 95.7476 188.186 95.8436 188.508 96.0276C189.525 96.5941 190.82 96.2549 191.408 95.2684L192.111 94.0832C192.679 93.1002 192.332 91.8552 191.332 91.2869Z" fill="#200E32"/>
<path d="M182.501 92.1041C183.939 92.1041 185.105 90.9382 185.105 89.4999C185.105 88.0617 183.939 86.8958 182.501 86.8958C181.062 86.8958 179.896 88.0617 179.896 89.4999C179.896 90.9382 181.062 92.1041 182.501 92.1041Z" fill="#200E32"/>
<g filter="url(#filter4_d_760_2683)">
<circle cx="89" cy="168" r="25" fill="white"/>
</g>
<g clip-path="url(#clip1_760_2683)">
<path d="M86.1886 177.464C84.3511 179.301 78.9915 179.653 78.1688 178.831C77.3474 178.009 77.6989 172.648 79.5372 170.811C81.374 168.974 83.9294 169.396 85.7663 171.234C87.6031 173.071 88.0262 175.626 86.1893 177.463L86.1886 177.464Z" fill="#0066FF"/>
<path d="M85.9875 174.705C84.9677 175.726 81.9928 175.92 81.5364 175.464C81.08 175.008 81.2756 172.032 82.2947 171.012C83.3151 169.992 84.7332 170.228 85.7529 171.248C86.7727 172.267 87.0072 173.685 85.9875 174.705Z" fill="white"/>
<path d="M87.4119 159.72L89.8809 159.874L84.4469 167.56L79.6848 166.043C78.4595 165.653 78.3511 164.317 79.3964 163.637L84.42 160.37C85.466 159.69 86.1293 159.641 87.4119 159.72ZM97.2792 169.588L97.1255 167.118L89.4401 172.552L90.9566 177.315C91.3464 178.539 92.6822 178.649 93.3618 177.603L96.6287 172.58C97.309 171.534 97.3586 170.87 97.2792 169.588Z" fill="#00A1FF"/>
<path d="M96.7162 169.225C92.662 173.28 87.3733 174.565 84.9037 172.096C82.4347 169.627 83.7202 164.338 87.7744 160.283C91.8293 156.229 98.4531 156.278 99.5877 157.413C100.722 158.547 100.771 165.171 96.7162 169.225Z" fill="#A8D0FF"/>
<path d="M88.3799 168.62C89.0545 169.295 89.1098 170.441 88.3799 171.055L84.9514 173.734C84.5865 174.02 83.938 174.412 83.2634 173.737C82.5888 173.062 82.9842 172.409 83.2655 172.049L85.9442 168.62C86.5594 167.891 87.7053 167.946 88.3799 168.62Z" fill="#00A1FF"/>
<path d="M93.7997 163.2C94.3619 163.762 94.6777 164.525 94.6777 165.32C94.6777 166.115 94.3619 166.877 93.7997 167.439C93.2376 168.001 92.4751 168.317 91.6801 168.317C90.8851 168.317 90.1227 168.001 89.5606 167.439C88.9984 166.877 88.6826 166.115 88.6826 165.32C88.6826 164.525 88.9984 163.762 89.5606 163.2C90.1227 162.638 90.8851 162.322 91.6801 162.322C92.4751 162.322 93.2376 162.638 93.7997 163.2Z" fill="white"/>
<path d="M99.5873 157.412C98.8369 156.661 95.6827 156.388 92.459 157.462L99.5384 164.541C100.613 161.318 100.339 158.163 99.588 157.412H99.5873Z" fill="#0066FF"/>
</g>
<g filter="url(#filter5_d_760_2683)">
<circle cx="127" cy="261" r="25" fill="white"/>
</g>
<path d="M131.6 258C131.6 258.9 131 259.6 130.1 259.9L127.3 260.7L126.9 260.8V261.2L126.4 264.7C126.3 265.6 125.6 266.3 124.7 266.4C124.6 266.4 124.5 266.4 124.4 266.4C123.6 266.4 123 266 122.6 265.3C122.6 265.3 122.6 265.3 122.6 265.2L118.1 255.5C117.7 254.8 117.9 254 118.4 253.3C118.9 252.7 119.8 252.5 120.5 252.7L130.3 256C130.7 256.1 131.1 256.4 131.3 256.7C131.5 257.1 131.6 257.5 131.6 258Z" fill="#886CFF"/>
<path d="M134 263C134 263.5 133.5 264 133 264H130C129.5 264 129 263.5 129 263C129 262.5 129.5 262 130 262H133C133.5 262 134 262.5 134 263Z" fill="#584AE5"/>
<path d="M135 266C135 266.5 134.5 267 134 267H130C129.5 267 129 266.5 129 266C129 265.5 129.5 265 130 265H134C134.5 265 135 265.5 135 266Z" fill="#886CFF"/>
<path d="M136 269C136 269.5 135.5 270 135 270H130C129.5 270 129 269.5 129 269C129 268.5 129.5 268 130 268H135C135.5 268 136 268.5 136 269Z" fill="#584AE5"/>
<path opacity="0.1" d="M122.7 265.3L126.9 261.1L126.4 264.6C126.3 265.5 125.6 266.2 124.7 266.3C124.6 266.3 124.5 266.3 124.4 266.3C123.7 266.4 123 266 122.7 265.3ZM130.2 259.8L127.4 260.6L131.3 256.7C131.5 257 131.7 257.5 131.7 257.9C131.6 258.8 131 259.6 130.2 259.8ZM130 262H133C133.5 262 134 262.5 134 263C134 263.5 133.5 264 133 264H130C129.5 264 129 263.5 129 263C129 262.5 129.5 262 130 262ZM134 265C134.5 265 135 265.5 135 266C135 266.5 134.5 267 134 267H130C129.5 267 129 266.5 129 266C129 265.5 129.5 265 130 265H134ZM136 269C136 269.5 135.5 270 135 270H130C129.5 270 129 269.5 129 269C129 268.5 129.5 268 130 268H135C135.5 268 136 268.5 136 269Z" fill="black"/>
<g filter="url(#filter6_d_760_2683)">
<circle cx="335" cy="332" r="25" fill="white"/>
</g>
<g clip-path="url(#clip2_760_2683)">
<path d="M345.438 344.219C345.335 344.219 345.233 344.2 345.138 344.161C345.043 344.122 344.956 344.065 344.883 343.992L336.344 335.453C336.197 335.306 336.114 335.107 336.114 334.898C336.114 334.69 336.197 334.491 336.344 334.344C336.491 334.197 336.691 334.114 336.899 334.114C337.107 334.114 337.306 334.197 337.453 334.344L345.992 342.883C346.066 342.955 346.124 343.042 346.163 343.137C346.203 343.232 346.224 343.334 346.224 343.438C346.224 343.541 346.203 343.643 346.163 343.738C346.124 343.833 346.066 343.92 345.992 343.992C345.919 344.065 345.833 344.122 345.738 344.161C345.643 344.2 345.541 344.219 345.438 344.219Z" fill="#B2D4E8"/>
<path d="M331.375 337.969C336.121 337.969 339.969 334.121 339.969 329.375C339.969 324.629 336.121 320.781 331.375 320.781C326.629 320.781 322.781 324.629 322.781 329.375C322.781 334.121 326.629 337.969 331.375 337.969Z" fill="#D7E0E7"/>
<path d="M324.343 330.024C324.343 327.744 325.249 325.558 326.861 323.947C328.472 322.335 330.658 321.43 332.937 321.43C333.79 321.429 334.639 321.558 335.453 321.813C334.396 321.241 333.231 320.897 332.034 320.803C330.836 320.709 329.632 320.867 328.499 321.268C327.366 321.668 326.33 322.301 325.457 323.127C324.584 323.952 323.894 324.952 323.431 326.061C322.969 327.169 322.744 328.363 322.771 329.564C322.798 330.765 323.076 331.947 323.589 333.034C324.101 334.121 324.835 335.088 325.744 335.874C326.654 336.659 327.717 337.245 328.867 337.594C327.499 336.858 326.357 335.766 325.56 334.433C324.764 333.1 324.343 331.576 324.343 330.024Z" fill="#C0C7CC"/>
<path d="M335.281 326.289C335.178 326.29 335.076 326.27 334.981 326.231C334.886 326.192 334.799 326.135 334.726 326.063C333.847 325.185 332.656 324.692 331.414 324.692C330.171 324.692 328.98 325.185 328.101 326.063C327.954 326.215 327.752 326.302 327.541 326.306C327.329 326.31 327.124 326.229 326.972 326.082C326.82 325.935 326.732 325.733 326.729 325.522C326.725 325.31 326.806 325.105 326.953 324.953C327.533 324.372 328.222 323.911 328.981 323.597C329.74 323.282 330.553 323.12 331.375 323.12C332.196 323.12 333.009 323.282 333.768 323.597C334.527 323.911 335.216 324.372 335.796 324.953C335.87 325.026 335.928 325.112 335.967 325.207C336.007 325.303 336.028 325.405 336.028 325.508C336.028 325.611 336.007 325.713 335.967 325.808C335.928 325.903 335.87 325.99 335.796 326.063C335.659 326.2 335.475 326.28 335.281 326.289Z" fill="#F7F7F7"/>
</g>
<path d="M407.051 160.814L410.666 169H408.996L408.146 167.008H404.508L403.717 169H402.059L405.434 160.814H407.051ZM404.988 165.807H407.631L406.248 162.566L404.988 165.807ZM412.84 163.527V166.914C412.84 167.27 412.928 167.541 413.104 167.729C413.283 167.912 413.52 168.004 413.812 168.004C414.055 168.004 414.287 167.93 414.51 167.781C414.732 167.633 414.912 167.424 415.049 167.154V163.527H416.49V169H415.049V168.256C414.529 168.822 413.967 169.105 413.361 169.105C412.775 169.105 412.303 168.914 411.943 168.531C411.584 168.148 411.404 167.648 411.404 167.031V163.527H412.84ZM419.432 162.074H419.549V163.527H421.424V164.617H419.549V167.143C419.549 167.389 419.623 167.588 419.771 167.74C419.92 167.893 420.123 167.969 420.381 167.969C420.717 167.969 421.104 167.848 421.541 167.605V168.76C421.021 168.99 420.533 169.105 420.076 169.105C419.459 169.105 418.977 168.938 418.629 168.602C418.285 168.266 418.113 167.811 418.113 167.236V164.617H417.258V164.383L419.432 162.074ZM425.074 163.422C425.645 163.422 426.162 163.541 426.627 163.779C427.092 164.018 427.451 164.352 427.705 164.781C427.959 165.211 428.086 165.697 428.086 166.24C428.086 166.807 427.963 167.303 427.717 167.729C427.475 168.154 427.115 168.49 426.639 168.736C426.166 168.982 425.645 169.105 425.074 169.105C424.5 169.105 423.979 168.982 423.51 168.736C423.041 168.49 422.684 168.154 422.438 167.729C422.195 167.303 422.074 166.807 422.074 166.24C422.074 165.689 422.203 165.201 422.461 164.775C422.719 164.346 423.078 164.014 423.539 163.779C424 163.541 424.512 163.422 425.074 163.422ZM423.586 166.24C423.586 166.787 423.719 167.225 423.984 167.553C424.254 167.877 424.613 168.039 425.062 168.039C425.531 168.039 425.9 167.883 426.17 167.57C426.439 167.258 426.574 166.811 426.574 166.229C426.574 165.674 426.438 165.246 426.164 164.945C425.895 164.641 425.527 164.488 425.062 164.488C424.625 164.488 424.27 164.648 423.996 164.969C423.723 165.289 423.586 165.713 423.586 166.24ZM435.135 160.709C435.932 160.709 436.699 160.908 437.438 161.307V162.713C436.59 162.201 435.838 161.945 435.182 161.945C434.783 161.945 434.471 162.023 434.244 162.18C434.021 162.332 433.91 162.537 433.91 162.795C433.91 163.104 434.119 163.389 434.537 163.65C434.654 163.729 435.105 163.947 435.891 164.307C436.562 164.623 437.047 164.975 437.344 165.361C437.641 165.748 437.789 166.213 437.789 166.756C437.789 167.459 437.535 168.027 437.027 168.461C436.523 168.891 435.869 169.105 435.064 169.105C434.541 169.105 434.09 169.049 433.711 168.936C433.336 168.818 432.914 168.619 432.445 168.338V166.779C433.32 167.506 434.145 167.869 434.918 167.869C435.305 167.869 435.617 167.785 435.855 167.617C436.094 167.449 436.213 167.227 436.213 166.949C436.213 166.57 436.006 166.262 435.592 166.023C435.248 165.836 434.805 165.611 434.262 165.35C433.617 165.057 433.135 164.715 432.814 164.324C432.498 163.934 432.34 163.48 432.34 162.965C432.34 162.277 432.596 161.73 433.107 161.324C433.619 160.914 434.295 160.709 435.135 160.709ZM440.49 162.074H440.607V163.527H442.482V164.617H440.607V167.143C440.607 167.389 440.682 167.588 440.83 167.74C440.979 167.893 441.182 167.969 441.439 167.969C441.775 167.969 442.162 167.848 442.6 167.605V168.76C442.08 168.99 441.592 169.105 441.135 169.105C440.518 169.105 440.035 168.938 439.688 168.602C439.344 168.266 439.172 167.811 439.172 167.236V164.617H438.316V164.383L440.49 162.074ZM446.133 163.422C446.703 163.422 447.221 163.541 447.686 163.779C448.15 164.018 448.51 164.352 448.764 164.781C449.018 165.211 449.145 165.697 449.145 166.24C449.145 166.807 449.021 167.303 448.775 167.729C448.533 168.154 448.174 168.49 447.697 168.736C447.225 168.982 446.703 169.105 446.133 169.105C445.559 169.105 445.037 168.982 444.568 168.736C444.1 168.49 443.742 168.154 443.496 167.729C443.254 167.303 443.133 166.807 443.133 166.24C443.133 165.689 443.262 165.201 443.52 164.775C443.777 164.346 444.137 164.014 444.598 163.779C445.059 163.541 445.57 163.422 446.133 163.422ZM444.645 166.24C444.645 166.787 444.777 167.225 445.043 167.553C445.312 167.877 445.672 168.039 446.121 168.039C446.59 168.039 446.959 167.883 447.229 167.57C447.498 167.258 447.633 166.811 447.633 166.229C447.633 165.674 447.496 165.246 447.223 164.945C446.953 164.641 446.586 164.488 446.121 164.488C445.684 164.488 445.328 164.648 445.055 164.969C444.781 165.289 444.645 165.713 444.645 166.24ZM453.117 163.422C453.898 163.422 454.527 163.684 455.004 164.207C455.484 164.73 455.725 165.412 455.725 166.252C455.725 166.803 455.611 167.295 455.385 167.729C455.162 168.162 454.844 168.5 454.43 168.742C454.016 168.984 453.547 169.105 453.023 169.105C452.598 169.105 452.17 168.998 451.74 168.783V171.76H450.299V163.527H451.729V163.879C452.162 163.574 452.625 163.422 453.117 163.422ZM451.74 167.729C452.1 167.936 452.436 168.039 452.748 168.039C453.201 168.039 453.564 167.877 453.838 167.553C454.111 167.229 454.248 166.811 454.248 166.299C454.248 165.74 454.125 165.303 453.879 164.986C453.637 164.67 453.291 164.512 452.842 164.512C452.674 164.512 452.512 164.541 452.355 164.6C452.199 164.654 451.994 164.773 451.74 164.957V167.729Z" fill="#282A2E"/>
<path d="M466.729 230.814L469.043 236.07L471.299 230.814H472.957L469.342 239.105H468.791L465.059 230.814H466.729ZM474.504 230.996C474.727 230.996 474.918 231.076 475.078 231.236C475.238 231.396 475.318 231.588 475.318 231.811C475.318 232.025 475.238 232.217 475.078 232.385C474.922 232.549 474.73 232.631 474.504 232.631C474.285 232.631 474.094 232.549 473.93 232.385C473.77 232.217 473.689 232.025 473.689 231.811C473.689 231.584 473.771 231.393 473.936 231.236C474.1 231.076 474.289 230.996 474.504 230.996ZM475.225 233.527V239H473.783V233.527H475.225ZM478.488 233.422C478.789 233.422 479.072 233.457 479.338 233.527C479.604 233.594 479.885 233.701 480.182 233.85V235.004C479.908 234.828 479.615 234.688 479.303 234.582C478.99 234.473 478.711 234.418 478.465 234.418C478.258 234.418 478.096 234.457 477.979 234.535C477.861 234.613 477.803 234.725 477.803 234.869C477.803 234.951 477.852 235.033 477.949 235.115C478.047 235.197 478.314 235.348 478.752 235.566C479.377 235.883 479.814 236.176 480.064 236.445C480.318 236.711 480.445 237.031 480.445 237.406C480.445 237.934 480.262 238.35 479.895 238.654C479.527 238.955 479.031 239.105 478.406 239.105C478.016 239.105 477.65 239.062 477.311 238.977C476.975 238.891 476.695 238.787 476.473 238.666V237.465C477.176 237.855 477.768 238.051 478.248 238.051C478.494 238.051 478.693 238.008 478.846 237.922C478.998 237.832 479.074 237.715 479.074 237.57C479.074 237.484 479.047 237.406 478.992 237.336C478.938 237.266 478.855 237.193 478.746 237.119C478.637 237.045 478.295 236.867 477.721 236.586C477.279 236.375 476.953 236.146 476.742 235.9C476.531 235.65 476.426 235.355 476.426 235.016C476.426 234.531 476.615 234.145 476.994 233.855C477.373 233.566 477.871 233.422 478.488 233.422ZM482.953 233.527V236.914C482.953 237.27 483.041 237.541 483.217 237.729C483.396 237.912 483.633 238.004 483.926 238.004C484.168 238.004 484.4 237.93 484.623 237.781C484.846 237.633 485.025 237.424 485.162 237.154V233.527H486.604V239H485.162V238.256C484.643 238.822 484.08 239.105 483.475 239.105C482.889 239.105 482.416 238.914 482.057 238.531C481.697 238.148 481.518 237.648 481.518 237.031V233.527H482.953ZM490.014 233.422C490.717 233.422 491.254 233.572 491.625 233.873C491.996 234.17 492.182 234.586 492.182 235.121V237.799C492.182 238.006 492.266 238.109 492.434 238.109C492.504 238.109 492.602 238.08 492.727 238.021C492.855 237.959 492.963 237.889 493.049 237.811V238.643C492.545 238.951 492.084 239.105 491.666 239.105C491.408 239.105 491.209 239.062 491.068 238.977C490.932 238.891 490.836 238.738 490.781 238.52C490.23 238.91 489.678 239.105 489.123 239.105C488.729 239.105 488.389 238.973 488.104 238.707C487.822 238.441 487.682 238.123 487.682 237.752C487.682 237.279 487.822 236.906 488.104 236.633C488.385 236.359 488.877 236.121 489.58 235.918L490.746 235.578V235.326C490.746 234.791 490.422 234.523 489.773 234.523C489.441 234.523 489.111 234.6 488.783 234.752C488.455 234.904 488.156 235.129 487.887 235.426V234.131C488.484 233.658 489.193 233.422 490.014 233.422ZM489.135 237.535C489.135 237.734 489.197 237.895 489.322 238.016C489.451 238.137 489.609 238.197 489.797 238.197C490.113 238.197 490.43 238.053 490.746 237.764V236.322C490.344 236.459 490.027 236.588 489.797 236.709C489.57 236.83 489.402 236.953 489.293 237.078C489.188 237.203 489.135 237.355 489.135 237.535ZM495.334 230.814V239H493.893V230.814H495.334ZM503.291 230.814C504.061 230.814 504.688 231.027 505.172 231.453C505.656 231.879 505.898 232.434 505.898 233.117C505.898 233.582 505.777 233.988 505.535 234.336C505.297 234.68 504.941 234.951 504.469 235.15C504.73 235.291 504.963 235.482 505.166 235.725C505.369 235.967 505.621 236.375 505.922 236.949C506.422 237.941 506.793 238.625 507.035 239H505.271C505.15 238.82 504.986 238.533 504.779 238.139C504.326 237.268 503.994 236.682 503.783 236.381C503.572 236.076 503.369 235.861 503.174 235.736C502.979 235.607 502.754 235.543 502.5 235.543H501.926V239H500.344V230.814H503.291ZM502.934 234.307C503.348 234.307 503.672 234.203 503.906 233.996C504.145 233.789 504.264 233.506 504.264 233.146C504.264 232.771 504.146 232.492 503.912 232.309C503.678 232.121 503.344 232.027 502.91 232.027H501.926V234.307H502.934ZM510.1 233.422C510.904 233.422 511.541 233.68 512.01 234.195C512.479 234.711 512.713 235.424 512.713 236.334V236.551H508.84C508.898 237.039 509.08 237.416 509.385 237.682C509.693 237.943 510.115 238.074 510.65 238.074C510.994 238.074 511.324 238.016 511.641 237.898C511.961 237.777 512.291 237.596 512.631 237.354V238.426C511.99 238.879 511.213 239.105 510.299 239.105C509.436 239.105 508.73 238.846 508.184 238.326C507.637 237.807 507.363 237.115 507.363 236.252C507.363 235.42 507.615 234.74 508.119 234.213C508.627 233.686 509.287 233.422 510.1 233.422ZM511.359 235.678C511.32 235.279 511.199 234.969 510.996 234.746C510.793 234.52 510.514 234.406 510.158 234.406C509.795 234.406 509.502 234.514 509.279 234.729C509.061 234.943 508.922 235.26 508.863 235.678H511.359ZM514.699 233.527L516.012 236.697L517.295 233.527H518.83L516.357 239.105H515.66L513.152 233.527H514.699ZM520.348 230.996C520.57 230.996 520.762 231.076 520.922 231.236C521.082 231.396 521.162 231.588 521.162 231.811C521.162 232.025 521.082 232.217 520.922 232.385C520.766 232.549 520.574 232.631 520.348 232.631C520.129 232.631 519.938 232.549 519.773 232.385C519.613 232.217 519.533 232.025 519.533 231.811C519.533 231.584 519.615 231.393 519.779 231.236C519.943 231.076 520.133 230.996 520.348 230.996ZM521.068 233.527V239H519.627V233.527H521.068ZM525.006 233.422C525.811 233.422 526.447 233.68 526.916 234.195C527.385 234.711 527.619 235.424 527.619 236.334V236.551H523.746C523.805 237.039 523.986 237.416 524.291 237.682C524.6 237.943 525.021 238.074 525.557 238.074C525.9 238.074 526.23 238.016 526.547 237.898C526.867 237.777 527.197 237.596 527.537 237.354V238.426C526.896 238.879 526.119 239.105 525.205 239.105C524.342 239.105 523.637 238.846 523.09 238.326C522.543 237.807 522.27 237.115 522.27 236.252C522.27 235.42 522.521 234.74 523.025 234.213C523.533 233.686 524.193 233.422 525.006 233.422ZM526.266 235.678C526.227 235.279 526.105 234.969 525.902 234.746C525.699 234.52 525.42 234.406 525.064 234.406C524.701 234.406 524.408 234.514 524.186 234.729C523.967 234.943 523.828 235.26 523.77 235.678H526.266ZM529.535 233.527L530.807 236.686L532.102 233.527H533.039L534.322 236.686L535.594 233.527H537.094L534.656 239.105H534.047L532.57 235.76L531.094 239.105H530.496L528.035 233.527H529.535ZM539.59 233.422C539.891 233.422 540.174 233.457 540.439 233.527C540.705 233.594 540.986 233.701 541.283 233.85V235.004C541.01 234.828 540.717 234.688 540.404 234.582C540.092 234.473 539.812 234.418 539.566 234.418C539.359 234.418 539.197 234.457 539.08 234.535C538.963 234.613 538.904 234.725 538.904 234.869C538.904 234.951 538.953 235.033 539.051 235.115C539.148 235.197 539.416 235.348 539.854 235.566C540.479 235.883 540.916 236.176 541.166 236.445C541.42 236.711 541.547 237.031 541.547 237.406C541.547 237.934 541.363 238.35 540.996 238.654C540.629 238.955 540.133 239.105 539.508 239.105C539.117 239.105 538.752 239.062 538.412 238.977C538.076 238.891 537.797 238.787 537.574 238.666V237.465C538.277 237.855 538.869 238.051 539.35 238.051C539.596 238.051 539.795 238.008 539.947 237.922C540.1 237.832 540.176 237.715 540.176 237.57C540.176 237.484 540.148 237.406 540.094 237.336C540.039 237.266 539.957 237.193 539.848 237.119C539.738 237.045 539.396 236.867 538.822 236.586C538.381 236.375 538.055 236.146 537.844 235.9C537.633 235.65 537.527 235.355 537.527 235.016C537.527 234.531 537.717 234.145 538.096 233.855C538.475 233.566 538.973 233.422 539.59 233.422Z" fill="#282A2E"/>
<path d="M390.244 302.814C391.014 302.814 391.641 303.027 392.125 303.453C392.609 303.879 392.852 304.434 392.852 305.117C392.852 305.582 392.73 305.988 392.488 306.336C392.25 306.68 391.895 306.951 391.422 307.15C391.684 307.291 391.916 307.482 392.119 307.725C392.322 307.967 392.574 308.375 392.875 308.949C393.375 309.941 393.746 310.625 393.988 311H392.225C392.104 310.82 391.939 310.533 391.732 310.139C391.279 309.268 390.947 308.682 390.736 308.381C390.525 308.076 390.322 307.861 390.127 307.736C389.932 307.607 389.707 307.543 389.453 307.543H388.879V311H387.297V302.814H390.244ZM389.887 306.307C390.301 306.307 390.625 306.203 390.859 305.996C391.098 305.789 391.217 305.506 391.217 305.146C391.217 304.771 391.1 304.492 390.865 304.309C390.631 304.121 390.297 304.027 389.863 304.027H388.879V306.307H389.887ZM397.316 305.422C397.887 305.422 398.404 305.541 398.869 305.779C399.334 306.018 399.693 306.352 399.947 306.781C400.201 307.211 400.328 307.697 400.328 308.24C400.328 308.807 400.205 309.303 399.959 309.729C399.717 310.154 399.357 310.49 398.881 310.736C398.408 310.982 397.887 311.105 397.316 311.105C396.742 311.105 396.221 310.982 395.752 310.736C395.283 310.49 394.926 310.154 394.68 309.729C394.438 309.303 394.316 308.807 394.316 308.24C394.316 307.689 394.445 307.201 394.703 306.775C394.961 306.346 395.32 306.014 395.781 305.779C396.242 305.541 396.754 305.422 397.316 305.422ZM395.828 308.24C395.828 308.787 395.961 309.225 396.227 309.553C396.496 309.877 396.855 310.039 397.305 310.039C397.773 310.039 398.143 309.883 398.412 309.57C398.682 309.258 398.816 308.811 398.816 308.229C398.816 307.674 398.68 307.246 398.406 306.945C398.137 306.641 397.77 306.488 397.305 306.488C396.867 306.488 396.512 306.648 396.238 306.969C395.965 307.289 395.828 307.713 395.828 308.24ZM402.871 305.527V308.914C402.871 309.27 402.959 309.541 403.135 309.729C403.314 309.912 403.551 310.004 403.844 310.004C404.086 310.004 404.318 309.93 404.541 309.781C404.764 309.633 404.943 309.424 405.08 309.154V305.527H406.521V311H405.08V310.256C404.561 310.822 403.998 311.105 403.393 311.105C402.807 311.105 402.334 310.914 401.975 310.531C401.615 310.148 401.436 309.648 401.436 309.031V305.527H402.871ZM409.463 304.074H409.58V305.527H411.455V306.617H409.58V309.143C409.58 309.389 409.654 309.588 409.803 309.74C409.951 309.893 410.154 309.969 410.412 309.969C410.748 309.969 411.135 309.848 411.572 309.605V310.76C411.053 310.99 410.564 311.105 410.107 311.105C409.49 311.105 409.008 310.938 408.66 310.602C408.316 310.266 408.145 309.811 408.145 309.236V306.617H407.289V306.383L409.463 304.074ZM414.842 305.422C415.646 305.422 416.283 305.68 416.752 306.195C417.221 306.711 417.455 307.424 417.455 308.334V308.551H413.582C413.641 309.039 413.822 309.416 414.127 309.682C414.436 309.943 414.857 310.074 415.393 310.074C415.736 310.074 416.066 310.016 416.383 309.898C416.703 309.777 417.033 309.596 417.373 309.354V310.426C416.732 310.879 415.955 311.105 415.041 311.105C414.178 311.105 413.473 310.846 412.926 310.326C412.379 309.807 412.105 309.115 412.105 308.252C412.105 307.42 412.357 306.74 412.861 306.213C413.369 305.686 414.029 305.422 414.842 305.422ZM416.102 307.678C416.062 307.279 415.941 306.969 415.738 306.746C415.535 306.52 415.256 306.406 414.9 306.406C414.537 306.406 414.244 306.514 414.021 306.729C413.803 306.943 413.664 307.26 413.605 307.678H416.102ZM423.537 302.814L426.227 306.043L428.916 302.814H430.328V311H428.746V305.252H428.699L426.332 308.135H426.109L423.742 305.252H423.695V311H422.113V302.814H423.537ZM433.92 305.422C434.623 305.422 435.16 305.572 435.531 305.873C435.902 306.17 436.088 306.586 436.088 307.121V309.799C436.088 310.006 436.172 310.109 436.34 310.109C436.41 310.109 436.508 310.08 436.633 310.021C436.762 309.959 436.869 309.889 436.955 309.811V310.643C436.451 310.951 435.99 311.105 435.572 311.105C435.314 311.105 435.115 311.062 434.975 310.977C434.838 310.891 434.742 310.738 434.688 310.52C434.137 310.91 433.584 311.105 433.029 311.105C432.635 311.105 432.295 310.973 432.01 310.707C431.729 310.441 431.588 310.123 431.588 309.752C431.588 309.279 431.729 308.906 432.01 308.633C432.291 308.359 432.783 308.121 433.486 307.918L434.652 307.578V307.326C434.652 306.791 434.328 306.523 433.68 306.523C433.348 306.523 433.018 306.6 432.689 306.752C432.361 306.904 432.062 307.129 431.793 307.426V306.131C432.391 305.658 433.1 305.422 433.92 305.422ZM433.041 309.535C433.041 309.734 433.104 309.895 433.229 310.016C433.357 310.137 433.516 310.197 433.703 310.197C434.02 310.197 434.336 310.053 434.652 309.764V308.322C434.25 308.459 433.934 308.588 433.703 308.709C433.477 308.83 433.309 308.953 433.199 309.078C433.094 309.203 433.041 309.355 433.041 309.535ZM440.57 305.422C441.352 305.422 441.98 305.684 442.457 306.207C442.938 306.73 443.178 307.412 443.178 308.252C443.178 308.803 443.064 309.295 442.838 309.729C442.615 310.162 442.297 310.5 441.883 310.742C441.469 310.984 441 311.105 440.477 311.105C440.051 311.105 439.623 310.998 439.193 310.783V313.76H437.752V305.527H439.182V305.879C439.615 305.574 440.078 305.422 440.57 305.422ZM439.193 309.729C439.553 309.936 439.889 310.039 440.201 310.039C440.654 310.039 441.018 309.877 441.291 309.553C441.564 309.229 441.701 308.811 441.701 308.299C441.701 307.74 441.578 307.303 441.332 306.986C441.09 306.67 440.744 306.512 440.295 306.512C440.127 306.512 439.965 306.541 439.809 306.6C439.652 306.654 439.447 306.773 439.193 306.957V309.729Z" fill="#282A2E"/>
<path d="M154.264 120.814V122.051H150.854V124.166H154.264V125.414H150.854V129H149.271V120.814H154.264ZM156.912 123.527V126.914C156.912 127.27 157 127.541 157.176 127.729C157.355 127.912 157.592 128.004 157.885 128.004C158.127 128.004 158.359 127.93 158.582 127.781C158.805 127.633 158.984 127.424 159.121 127.154V123.527H160.562V129H159.121V128.256C158.602 128.822 158.039 129.105 157.434 129.105C156.848 129.105 156.375 128.914 156.016 128.531C155.656 128.148 155.477 127.648 155.477 127.031V123.527H156.912ZM163.492 120.814V129H162.051V120.814H163.492ZM166.469 120.814V129H165.027V120.814H166.469ZM173.096 120.814V129H171.514V120.814H173.096ZM177.924 123.422C178.51 123.422 178.977 123.615 179.324 124.002C179.676 124.385 179.852 124.891 179.852 125.52V129H178.416V125.666C178.416 125.311 178.33 125.029 178.158 124.822C177.99 124.615 177.76 124.512 177.467 124.512C177.244 124.512 177.035 124.578 176.84 124.711C176.645 124.84 176.43 125.057 176.195 125.361V129H174.754V123.527H176.195V124.295C176.461 123.982 176.732 123.76 177.01 123.627C177.291 123.49 177.596 123.422 177.924 123.422ZM182.746 122.074H182.863V123.527H184.738V124.617H182.863V127.143C182.863 127.389 182.938 127.588 183.086 127.74C183.234 127.893 183.438 127.969 183.695 127.969C184.031 127.969 184.418 127.848 184.855 127.605V128.76C184.336 128.99 183.848 129.105 183.391 129.105C182.773 129.105 182.291 128.938 181.943 128.602C181.6 128.266 181.428 127.811 181.428 127.236V124.617H180.572V124.383L182.746 122.074ZM188.125 123.422C188.93 123.422 189.566 123.68 190.035 124.195C190.504 124.711 190.738 125.424 190.738 126.334V126.551H186.865C186.924 127.039 187.105 127.416 187.41 127.682C187.719 127.943 188.141 128.074 188.676 128.074C189.02 128.074 189.35 128.016 189.666 127.898C189.986 127.777 190.316 127.596 190.656 127.354V128.426C190.016 128.879 189.238 129.105 188.324 129.105C187.461 129.105 186.756 128.846 186.209 128.326C185.662 127.807 185.389 127.115 185.389 126.252C185.389 125.42 185.641 124.74 186.145 124.213C186.652 123.686 187.312 123.422 188.125 123.422ZM189.385 125.678C189.346 125.279 189.225 124.969 189.021 124.746C188.818 124.52 188.539 124.406 188.184 124.406C187.82 124.406 187.527 124.514 187.305 124.729C187.086 124.943 186.947 125.26 186.889 125.678H189.385ZM196.926 123.527V124.547H195.988C196.141 124.734 196.246 124.908 196.305 125.068C196.367 125.225 196.398 125.395 196.398 125.578C196.398 126.016 196.234 126.416 195.906 126.779C195.617 127.096 195.121 127.301 194.418 127.395C194.039 127.441 193.787 127.496 193.662 127.559C193.541 127.617 193.48 127.709 193.48 127.834C193.48 127.947 193.555 128.035 193.703 128.098C193.855 128.156 194.098 128.213 194.43 128.268C195.254 128.4 195.859 128.604 196.246 128.877C196.637 129.15 196.832 129.512 196.832 129.961C196.832 130.539 196.596 130.982 196.123 131.291C195.65 131.604 194.971 131.76 194.084 131.76C193.244 131.76 192.576 131.613 192.08 131.32C191.584 131.027 191.336 130.635 191.336 130.143C191.336 129.447 191.814 128.967 192.771 128.701C192.357 128.521 192.15 128.285 192.15 127.992C192.15 127.609 192.463 127.346 193.088 127.201V127.178C192.662 127.061 192.322 126.852 192.068 126.551C191.818 126.25 191.693 125.898 191.693 125.496C191.693 124.906 191.916 124.432 192.361 124.072C192.807 123.709 193.389 123.527 194.107 123.527H196.926ZM193.023 125.508C193.023 125.793 193.123 126.031 193.322 126.223C193.525 126.41 193.771 126.504 194.061 126.504C194.357 126.504 194.602 126.406 194.793 126.211C194.984 126.012 195.08 125.762 195.08 125.461C195.08 125.191 194.98 124.967 194.781 124.787C194.582 124.604 194.342 124.512 194.061 124.512C193.771 124.512 193.525 124.611 193.322 124.811C193.123 125.006 193.023 125.238 193.023 125.508ZM192.678 130.078C192.678 130.566 193.166 130.811 194.143 130.811C194.564 130.811 194.895 130.742 195.133 130.605C195.375 130.473 195.496 130.297 195.496 130.078C195.496 129.836 195.359 129.652 195.086 129.527C194.816 129.406 194.434 129.346 193.938 129.346C193.566 129.346 193.264 129.414 193.029 129.551C192.795 129.691 192.678 129.867 192.678 130.078ZM200.887 123.422C201.078 123.422 201.266 123.465 201.449 123.551C201.637 123.637 201.854 123.781 202.1 123.984L201.584 125.244C201.166 124.932 200.83 124.775 200.576 124.775C200.354 124.775 200.133 124.859 199.914 125.027C199.699 125.191 199.525 125.41 199.393 125.684C199.264 125.957 199.199 126.23 199.199 126.504V129H197.758V123.527H199.199V124.922H199.223C199.484 124.395 199.748 124.014 200.014 123.779C200.279 123.541 200.57 123.422 200.887 123.422ZM204.742 123.422C205.445 123.422 205.982 123.572 206.354 123.873C206.725 124.17 206.91 124.586 206.91 125.121V127.799C206.91 128.006 206.994 128.109 207.162 128.109C207.232 128.109 207.33 128.08 207.455 128.021C207.584 127.959 207.691 127.889 207.777 127.811V128.643C207.273 128.951 206.812 129.105 206.395 129.105C206.137 129.105 205.938 129.062 205.797 128.977C205.66 128.891 205.564 128.738 205.51 128.52C204.959 128.91 204.406 129.105 203.852 129.105C203.457 129.105 203.117 128.973 202.832 128.707C202.551 128.441 202.41 128.123 202.41 127.752C202.41 127.279 202.551 126.906 202.832 126.633C203.113 126.359 203.605 126.121 204.309 125.918L205.475 125.578V125.326C205.475 124.791 205.15 124.523 204.502 124.523C204.17 124.523 203.84 124.6 203.512 124.752C203.184 124.904 202.885 125.129 202.615 125.426V124.131C203.213 123.658 203.922 123.422 204.742 123.422ZM203.863 127.535C203.863 127.734 203.926 127.895 204.051 128.016C204.18 128.137 204.338 128.197 204.525 128.197C204.842 128.197 205.158 128.053 205.475 127.764V126.322C205.072 126.459 204.756 126.588 204.525 126.709C204.299 126.83 204.131 126.953 204.021 127.078C203.916 127.203 203.863 127.355 203.863 127.535ZM210.074 122.074H210.191V123.527H212.066V124.617H210.191V127.143C210.191 127.389 210.266 127.588 210.414 127.74C210.562 127.893 210.766 127.969 211.023 127.969C211.359 127.969 211.746 127.848 212.184 127.605V128.76C211.664 128.99 211.176 129.105 210.719 129.105C210.102 129.105 209.619 128.938 209.271 128.602C208.928 128.266 208.756 127.811 208.756 127.236V124.617H207.9V124.383L210.074 122.074ZM213.771 120.996C213.994 120.996 214.186 121.076 214.346 121.236C214.506 121.396 214.586 121.588 214.586 121.811C214.586 122.025 214.506 122.217 214.346 122.385C214.189 122.549 213.998 122.631 213.771 122.631C213.553 122.631 213.361 122.549 213.197 122.385C213.037 122.217 212.957 122.025 212.957 121.811C212.957 121.584 213.039 121.393 213.203 121.236C213.367 121.076 213.557 120.996 213.771 120.996ZM214.492 123.527V129H213.051V123.527H214.492ZM218.693 123.422C219.264 123.422 219.781 123.541 220.246 123.779C220.711 124.018 221.07 124.352 221.324 124.781C221.578 125.211 221.705 125.697 221.705 126.24C221.705 126.807 221.582 127.303 221.336 127.729C221.094 128.154 220.734 128.49 220.258 128.736C219.785 128.982 219.264 129.105 218.693 129.105C218.119 129.105 217.598 128.982 217.129 128.736C216.66 128.49 216.303 128.154 216.057 127.729C215.814 127.303 215.693 126.807 215.693 126.24C215.693 125.689 215.822 125.201 216.08 124.775C216.338 124.346 216.697 124.014 217.158 123.779C217.619 123.541 218.131 123.422 218.693 123.422ZM217.205 126.24C217.205 126.787 217.338 127.225 217.604 127.553C217.873 127.877 218.232 128.039 218.682 128.039C219.15 128.039 219.52 127.883 219.789 127.57C220.059 127.258 220.193 126.811 220.193 126.229C220.193 125.674 220.057 125.246 219.783 124.945C219.514 124.641 219.146 124.488 218.682 124.488C218.244 124.488 217.889 124.648 217.615 124.969C217.342 125.289 217.205 125.713 217.205 126.24ZM226.029 123.422C226.615 123.422 227.082 123.615 227.43 124.002C227.781 124.385 227.957 124.891 227.957 125.52V129H226.521V125.666C226.521 125.311 226.436 125.029 226.264 124.822C226.096 124.615 225.865 124.512 225.572 124.512C225.35 124.512 225.141 124.578 224.945 124.711C224.75 124.84 224.535 125.057 224.301 125.361V129H222.859V123.527H224.301V124.295C224.566 123.982 224.838 123.76 225.115 123.627C225.396 123.49 225.701 123.422 226.029 123.422Z" fill="#282A2E"/>
<path d="M74.0039 199.814C74.8555 199.814 75.6133 199.988 76.2773 200.336C76.9414 200.684 77.457 201.172 77.8242 201.801C78.1914 202.43 78.375 203.137 78.375 203.922C78.375 204.723 78.1895 205.434 77.8184 206.055C77.4512 206.672 76.9277 207.15 76.248 207.49C75.5684 207.83 74.7891 208 73.9102 208H70.5762V199.814H74.0039ZM73.8398 206.764C74.7148 206.764 75.416 206.502 75.9434 205.979C76.4746 205.451 76.7402 204.762 76.7402 203.91C76.7402 203.027 76.4727 202.33 75.9375 201.818C75.4062 201.307 74.6895 201.051 73.7871 201.051H72.1582V206.764H73.8398ZM82.125 202.422C82.9297 202.422 83.5664 202.68 84.0352 203.195C84.5039 203.711 84.7383 204.424 84.7383 205.334V205.551H80.8652C80.9238 206.039 81.1055 206.416 81.4102 206.682C81.7188 206.943 82.1406 207.074 82.6758 207.074C83.0195 207.074 83.3496 207.016 83.666 206.898C83.9863 206.777 84.3164 206.596 84.6562 206.354V207.426C84.0156 207.879 83.2383 208.105 82.3242 208.105C81.4609 208.105 80.7559 207.846 80.209 207.326C79.6621 206.807 79.3887 206.115 79.3887 205.252C79.3887 204.42 79.6406 203.74 80.1445 203.213C80.6523 202.686 81.3125 202.422 82.125 202.422ZM83.3848 204.678C83.3457 204.279 83.2246 203.969 83.0215 203.746C82.8184 203.52 82.5391 203.406 82.1836 203.406C81.8203 203.406 81.5273 203.514 81.3047 203.729C81.0859 203.943 80.9473 204.26 80.8887 204.678H83.3848ZM88.6934 202.422C89.4746 202.422 90.1035 202.684 90.5801 203.207C91.0605 203.73 91.3008 204.412 91.3008 205.252C91.3008 205.803 91.1875 206.295 90.9609 206.729C90.7383 207.162 90.4199 207.5 90.0059 207.742C89.5918 207.984 89.123 208.105 88.5996 208.105C88.1738 208.105 87.7461 207.998 87.3164 207.783V210.76H85.875V202.527H87.3047V202.879C87.7383 202.574 88.2012 202.422 88.6934 202.422ZM87.3164 206.729C87.6758 206.936 88.0117 207.039 88.3242 207.039C88.7773 207.039 89.1406 206.877 89.4141 206.553C89.6875 206.229 89.8242 205.811 89.8242 205.299C89.8242 204.74 89.7012 204.303 89.4551 203.986C89.2129 203.67 88.8672 203.512 88.418 203.512C88.25 203.512 88.0879 203.541 87.9316 203.6C87.7754 203.654 87.5703 203.773 87.3164 203.957V206.729ZM93.9375 199.814V208H92.4961V199.814H93.9375ZM98.1387 202.422C98.709 202.422 99.2266 202.541 99.6914 202.779C100.156 203.018 100.516 203.352 100.77 203.781C101.023 204.211 101.15 204.697 101.15 205.24C101.15 205.807 101.027 206.303 100.781 206.729C100.539 207.154 100.18 207.49 99.7031 207.736C99.2305 207.982 98.709 208.105 98.1387 208.105C97.5645 208.105 97.043 207.982 96.5742 207.736C96.1055 207.49 95.748 207.154 95.502 206.729C95.2598 206.303 95.1387 205.807 95.1387 205.24C95.1387 204.689 95.2676 204.201 95.5254 203.775C95.7832 203.346 96.1426 203.014 96.6035 202.779C97.0645 202.541 97.5762 202.422 98.1387 202.422ZM96.6504 205.24C96.6504 205.787 96.7832 206.225 97.0488 206.553C97.3184 206.877 97.6777 207.039 98.127 207.039C98.5957 207.039 98.9648 206.883 99.2344 206.57C99.5039 206.258 99.6387 205.811 99.6387 205.229C99.6387 204.674 99.502 204.246 99.2285 203.945C98.959 203.641 98.5918 203.488 98.127 203.488C97.6895 203.488 97.334 203.648 97.0605 203.969C96.7871 204.289 96.6504 204.713 96.6504 205.24ZM103.154 202.527L104.449 205.469L105.762 202.527H107.309L103.529 210.76H101.982L103.723 206.992L101.596 202.527H103.154ZM65.8125 216.422C66.5156 216.422 67.0527 216.572 67.4238 216.873C67.7949 217.17 67.9805 217.586 67.9805 218.121V220.799C67.9805 221.006 68.0645 221.109 68.2324 221.109C68.3027 221.109 68.4004 221.08 68.5254 221.021C68.6543 220.959 68.7617 220.889 68.8477 220.811V221.643C68.3438 221.951 67.8828 222.105 67.4648 222.105C67.207 222.105 67.0078 222.062 66.8672 221.977C66.7305 221.891 66.6348 221.738 66.5801 221.52C66.0293 221.91 65.4766 222.105 64.9219 222.105C64.5273 222.105 64.1875 221.973 63.9023 221.707C63.6211 221.441 63.4805 221.123 63.4805 220.752C63.4805 220.279 63.6211 219.906 63.9023 219.633C64.1836 219.359 64.6758 219.121 65.3789 218.918L66.5449 218.578V218.326C66.5449 217.791 66.2207 217.523 65.5723 217.523C65.2402 217.523 64.9102 217.6 64.582 217.752C64.2539 217.904 63.9551 218.129 63.6855 218.426V217.131C64.2832 216.658 64.9922 216.422 65.8125 216.422ZM64.9336 220.535C64.9336 220.734 64.9961 220.895 65.1211 221.016C65.25 221.137 65.4082 221.197 65.5957 221.197C65.9121 221.197 66.2285 221.053 66.5449 220.764V219.322C66.1426 219.459 65.8262 219.588 65.5957 219.709C65.3691 219.83 65.2012 219.953 65.0918 220.078C64.9863 220.203 64.9336 220.355 64.9336 220.535ZM72.8145 216.422C73.4004 216.422 73.8672 216.615 74.2148 217.002C74.5664 217.385 74.7422 217.891 74.7422 218.52V222H73.3066V218.666C73.3066 218.311 73.2207 218.029 73.0488 217.822C72.8809 217.615 72.6504 217.512 72.3574 217.512C72.1348 217.512 71.9258 217.578 71.7305 217.711C71.5352 217.84 71.3203 218.057 71.0859 218.361V222H69.6445V216.527H71.0859V217.295C71.3516 216.982 71.623 216.76 71.9004 216.627C72.1816 216.49 72.4863 216.422 72.8145 216.422ZM76.9863 216.527L78.2812 219.469L79.5938 216.527H81.1406L77.3613 224.76H75.8145L77.5547 220.992L75.4277 216.527H76.9863ZM82.6582 216.527L83.9297 219.686L85.2246 216.527H86.1621L87.4453 219.686L88.7168 216.527H90.2168L87.7793 222.105H87.1699L85.6934 218.76L84.2168 222.105H83.6191L81.1582 216.527H82.6582ZM92.3789 213.814V217.295H92.4141C92.8789 216.713 93.4395 216.422 94.0957 216.422C94.6777 216.422 95.1465 216.613 95.502 216.996C95.8574 217.379 96.0352 217.879 96.0352 218.496V222H94.5996V218.771C94.5996 218.404 94.5117 218.113 94.3359 217.898C94.1641 217.68 93.9277 217.57 93.627 217.57C93.4082 217.57 93.2012 217.633 93.0059 217.758C92.8145 217.883 92.6055 218.09 92.3789 218.379V222H90.9375V213.814H92.3789ZM99.8789 216.422C100.684 216.422 101.32 216.68 101.789 217.195C102.258 217.711 102.492 218.424 102.492 219.334V219.551H98.6191C98.6777 220.039 98.8594 220.416 99.1641 220.682C99.4727 220.943 99.8945 221.074 100.43 221.074C100.773 221.074 101.104 221.016 101.42 220.898C101.74 220.777 102.07 220.596 102.41 220.354V221.426C101.77 221.879 100.992 222.105 100.078 222.105C99.2148 222.105 98.5098 221.846 97.9629 221.326C97.416 220.807 97.1426 220.115 97.1426 219.252C97.1426 218.42 97.3945 217.74 97.8984 217.213C98.4062 216.686 99.0664 216.422 99.8789 216.422ZM101.139 218.678C101.1 218.279 100.979 217.969 100.775 217.746C100.572 217.52 100.293 217.406 99.9375 217.406C99.5742 217.406 99.2812 217.514 99.0586 217.729C98.8398 217.943 98.7012 218.26 98.6426 218.678H101.139ZM106.758 216.422C106.949 216.422 107.137 216.465 107.32 216.551C107.508 216.637 107.725 216.781 107.971 216.984L107.455 218.244C107.037 217.932 106.701 217.775 106.447 217.775C106.225 217.775 106.004 217.859 105.785 218.027C105.57 218.191 105.396 218.41 105.264 218.684C105.135 218.957 105.07 219.23 105.07 219.504V222H103.629V216.527H105.07V217.922H105.094C105.355 217.395 105.619 217.014 105.885 216.779C106.15 216.541 106.441 216.422 106.758 216.422ZM110.848 216.422C111.652 216.422 112.289 216.68 112.758 217.195C113.227 217.711 113.461 218.424 113.461 219.334V219.551H109.588C109.646 220.039 109.828 220.416 110.133 220.682C110.441 220.943 110.863 221.074 111.398 221.074C111.742 221.074 112.072 221.016 112.389 220.898C112.709 220.777 113.039 220.596 113.379 220.354V221.426C112.738 221.879 111.961 222.105 111.047 222.105C110.184 222.105 109.479 221.846 108.932 221.326C108.385 220.807 108.111 220.115 108.111 219.252C108.111 218.42 108.363 217.74 108.867 217.213C109.375 216.686 110.035 216.422 110.848 216.422ZM112.107 218.678C112.068 218.279 111.947 217.969 111.744 217.746C111.541 217.52 111.262 217.406 110.906 217.406C110.543 217.406 110.25 217.514 110.027 217.729C109.809 217.943 109.67 218.26 109.611 218.678H112.107Z" fill="#282A2E"/>
<path d="M99.1133 292.709C99.9609 292.709 100.723 292.885 101.398 293.236C102.078 293.584 102.619 294.088 103.021 294.748C103.424 295.404 103.625 296.125 103.625 296.91C103.625 297.676 103.428 298.387 103.033 299.043C102.643 299.695 102.104 300.203 101.416 300.566C100.732 300.926 99.9609 301.105 99.1016 301.105C98.2539 301.105 97.4824 300.922 96.7871 300.555C96.0957 300.188 95.5566 299.684 95.1699 299.043C94.7832 298.398 94.5898 297.688 94.5898 296.91C94.5898 296.16 94.7832 295.455 95.1699 294.795C95.5566 294.135 96.0898 293.623 96.7695 293.26C97.4492 292.893 98.2305 292.709 99.1133 292.709ZM96.2246 296.91C96.2246 297.453 96.3477 297.941 96.5938 298.375C96.8398 298.809 97.1816 299.145 97.6191 299.383C98.0605 299.621 98.5586 299.74 99.1133 299.74C99.9531 299.74 100.643 299.477 101.182 298.949C101.725 298.422 101.996 297.742 101.996 296.91C101.996 296.367 101.873 295.879 101.627 295.445C101.385 295.008 101.041 294.67 100.596 294.432C100.154 294.193 99.6562 294.074 99.1016 294.074C98.5469 294.074 98.0469 294.195 97.6016 294.438C97.1602 294.676 96.8203 295.012 96.582 295.445C96.3438 295.875 96.2246 296.363 96.2246 296.91ZM108.102 295.422C108.688 295.422 109.154 295.615 109.502 296.002C109.854 296.385 110.029 296.891 110.029 297.52V301H108.594V297.666C108.594 297.311 108.508 297.029 108.336 296.822C108.168 296.615 107.938 296.512 107.645 296.512C107.422 296.512 107.213 296.578 107.018 296.711C106.822 296.84 106.607 297.057 106.373 297.361V301H104.932V295.527H106.373V296.295C106.639 295.982 106.91 295.76 107.188 295.627C107.469 295.49 107.773 295.422 108.102 295.422ZM113.873 295.422C114.678 295.422 115.314 295.68 115.783 296.195C116.252 296.711 116.486 297.424 116.486 298.334V298.551H112.613C112.672 299.039 112.854 299.416 113.158 299.682C113.467 299.943 113.889 300.074 114.424 300.074C114.768 300.074 115.098 300.016 115.414 299.898C115.734 299.777 116.064 299.596 116.404 299.354V300.426C115.764 300.879 114.986 301.105 114.072 301.105C113.209 301.105 112.504 300.846 111.957 300.326C111.41 299.807 111.137 299.115 111.137 298.252C111.137 297.42 111.389 296.74 111.893 296.213C112.4 295.686 113.061 295.422 113.873 295.422ZM115.133 297.678C115.094 297.279 114.973 296.969 114.77 296.746C114.566 296.52 114.287 296.406 113.932 296.406C113.568 296.406 113.275 296.514 113.053 296.729C112.834 296.943 112.695 297.26 112.637 297.678H115.133ZM120.395 297.59V298.973H117.359V297.59H120.395ZM124.443 295.422C125.08 295.422 125.656 295.545 126.172 295.791V297.016C125.66 296.719 125.176 296.57 124.719 296.57C124.227 296.57 123.824 296.725 123.512 297.033C123.199 297.338 123.043 297.752 123.043 298.275C123.043 298.787 123.199 299.199 123.512 299.512C123.828 299.824 124.248 299.98 124.771 299.98C125.162 299.98 125.662 299.852 126.271 299.594V300.76C125.705 300.99 125.121 301.105 124.52 301.105C123.633 301.105 122.912 300.852 122.357 300.344C121.807 299.836 121.531 299.162 121.531 298.322C121.531 297.451 121.801 296.75 122.34 296.219C122.883 295.688 123.584 295.422 124.443 295.422ZM128.838 292.814V301H127.396V292.814H128.838ZM131.094 292.996C131.316 292.996 131.508 293.076 131.668 293.236C131.828 293.396 131.908 293.588 131.908 293.811C131.908 294.025 131.828 294.217 131.668 294.385C131.512 294.549 131.32 294.631 131.094 294.631C130.875 294.631 130.684 294.549 130.52 294.385C130.359 294.217 130.279 294.025 130.279 293.811C130.279 293.584 130.361 293.393 130.525 293.236C130.689 293.076 130.879 292.996 131.094 292.996ZM131.814 295.527V301H130.373V295.527H131.814ZM135.928 295.422C136.564 295.422 137.141 295.545 137.656 295.791V297.016C137.145 296.719 136.66 296.57 136.203 296.57C135.711 296.57 135.309 296.725 134.996 297.033C134.684 297.338 134.527 297.752 134.527 298.275C134.527 298.787 134.684 299.199 134.996 299.512C135.312 299.824 135.732 299.98 136.256 299.98C136.646 299.98 137.146 299.852 137.756 299.594V300.76C137.189 300.99 136.605 301.105 136.004 301.105C135.117 301.105 134.396 300.852 133.842 300.344C133.291 299.836 133.016 299.162 133.016 298.322C133.016 297.451 133.285 296.75 133.824 296.219C134.367 295.688 135.068 295.422 135.928 295.422ZM140.275 292.814V301H138.834V292.814H140.275ZM144.248 295.527L142.027 298.229L144.523 301H142.695L140.299 298.229L142.555 295.527H144.248ZM149.896 294.074H150.014V295.527H151.889V296.617H150.014V299.143C150.014 299.389 150.088 299.588 150.236 299.74C150.385 299.893 150.588 299.969 150.846 299.969C151.182 299.969 151.568 299.848 152.006 299.605V300.76C151.486 300.99 150.998 301.105 150.541 301.105C149.924 301.105 149.441 300.938 149.094 300.602C148.75 300.266 148.578 299.811 148.578 299.236V296.617H147.723V296.383L149.896 294.074ZM155.539 295.422C156.109 295.422 156.627 295.541 157.092 295.779C157.557 296.018 157.916 296.352 158.17 296.781C158.424 297.211 158.551 297.697 158.551 298.24C158.551 298.807 158.428 299.303 158.182 299.729C157.939 300.154 157.58 300.49 157.104 300.736C156.631 300.982 156.109 301.105 155.539 301.105C154.965 301.105 154.443 300.982 153.975 300.736C153.506 300.49 153.148 300.154 152.902 299.729C152.66 299.303 152.539 298.807 152.539 298.24C152.539 297.689 152.668 297.201 152.926 296.775C153.184 296.346 153.543 296.014 154.004 295.779C154.465 295.541 154.977 295.422 155.539 295.422ZM154.051 298.24C154.051 298.787 154.184 299.225 154.449 299.553C154.719 299.877 155.078 300.039 155.527 300.039C155.996 300.039 156.365 299.883 156.635 299.57C156.904 299.258 157.039 298.811 157.039 298.229C157.039 297.674 156.902 297.246 156.629 296.945C156.359 296.641 155.992 296.488 155.527 296.488C155.09 296.488 154.734 296.648 154.461 296.969C154.188 297.289 154.051 297.713 154.051 298.24ZM100.309 309.422C100.945 309.422 101.521 309.545 102.037 309.791V311.016C101.525 310.719 101.041 310.57 100.584 310.57C100.092 310.57 99.6895 310.725 99.377 311.033C99.0645 311.338 98.9082 311.752 98.9082 312.275C98.9082 312.787 99.0645 313.199 99.377 313.512C99.6934 313.824 100.113 313.98 100.637 313.98C101.027 313.98 101.527 313.852 102.137 313.594V314.76C101.57 314.99 100.986 315.105 100.385 315.105C99.498 315.105 98.7773 314.852 98.2227 314.344C97.6719 313.836 97.3965 313.162 97.3965 312.322C97.3965 311.451 97.666 310.75 98.2051 310.219C98.748 309.688 99.4492 309.422 100.309 309.422ZM105.928 309.422C106.498 309.422 107.016 309.541 107.48 309.779C107.945 310.018 108.305 310.352 108.559 310.781C108.812 311.211 108.939 311.697 108.939 312.24C108.939 312.807 108.816 313.303 108.57 313.729C108.328 314.154 107.969 314.49 107.492 314.736C107.02 314.982 106.498 315.105 105.928 315.105C105.354 315.105 104.832 314.982 104.363 314.736C103.895 314.49 103.537 314.154 103.291 313.729C103.049 313.303 102.928 312.807 102.928 312.24C102.928 311.689 103.057 311.201 103.314 310.775C103.572 310.346 103.932 310.014 104.393 309.779C104.854 309.541 105.365 309.422 105.928 309.422ZM104.439 312.24C104.439 312.787 104.572 313.225 104.838 313.553C105.107 313.877 105.467 314.039 105.916 314.039C106.385 314.039 106.754 313.883 107.023 313.57C107.293 313.258 107.428 312.811 107.428 312.229C107.428 311.674 107.291 311.246 107.018 310.945C106.748 310.641 106.381 310.488 105.916 310.488C105.479 310.488 105.123 310.648 104.85 310.969C104.576 311.289 104.439 311.713 104.439 312.24ZM111.582 306.814V315H110.141V306.814H111.582ZM114.559 306.814V315H113.117V306.814H114.559ZM118.016 309.422C118.719 309.422 119.256 309.572 119.627 309.873C119.998 310.17 120.184 310.586 120.184 311.121V313.799C120.184 314.006 120.268 314.109 120.436 314.109C120.506 314.109 120.604 314.08 120.729 314.021C120.857 313.959 120.965 313.889 121.051 313.811V314.643C120.547 314.951 120.086 315.105 119.668 315.105C119.41 315.105 119.211 315.062 119.07 314.977C118.934 314.891 118.838 314.738 118.783 314.52C118.232 314.91 117.68 315.105 117.125 315.105C116.73 315.105 116.391 314.973 116.105 314.707C115.824 314.441 115.684 314.123 115.684 313.752C115.684 313.279 115.824 312.906 116.105 312.633C116.387 312.359 116.879 312.121 117.582 311.918L118.748 311.578V311.326C118.748 310.791 118.424 310.523 117.775 310.523C117.443 310.523 117.113 310.6 116.785 310.752C116.457 310.904 116.158 311.129 115.889 311.426V310.131C116.486 309.658 117.195 309.422 118.016 309.422ZM117.137 313.535C117.137 313.734 117.199 313.895 117.324 314.016C117.453 314.137 117.611 314.197 117.799 314.197C118.115 314.197 118.432 314.053 118.748 313.764V312.322C118.346 312.459 118.029 312.588 117.799 312.709C117.572 312.83 117.404 312.953 117.295 313.078C117.189 313.203 117.137 313.355 117.137 313.535ZM123.289 306.814V309.879C123.715 309.574 124.197 309.422 124.736 309.422C125.217 309.422 125.652 309.541 126.043 309.779C126.438 310.014 126.742 310.346 126.957 310.775C127.176 311.201 127.285 311.678 127.285 312.205C127.285 313.104 127.018 313.812 126.482 314.332C125.947 314.848 125.215 315.105 124.285 315.105C123.449 315.105 122.637 314.951 121.848 314.643V306.814H123.289ZM123.289 313.857C123.598 313.963 123.957 314.016 124.367 314.016C124.809 314.016 125.158 313.855 125.416 313.535C125.678 313.211 125.809 312.764 125.809 312.193C125.809 311.678 125.678 311.268 125.416 310.963C125.154 310.654 124.809 310.5 124.379 310.5C124.18 310.5 123.996 310.537 123.828 310.611C123.66 310.686 123.48 310.801 123.289 310.957V313.857ZM131.146 309.422C131.717 309.422 132.234 309.541 132.699 309.779C133.164 310.018 133.523 310.352 133.777 310.781C134.031 311.211 134.158 311.697 134.158 312.24C134.158 312.807 134.035 313.303 133.789 313.729C133.547 314.154 133.188 314.49 132.711 314.736C132.238 314.982 131.717 315.105 131.146 315.105C130.572 315.105 130.051 314.982 129.582 314.736C129.113 314.49 128.756 314.154 128.51 313.729C128.268 313.303 128.146 312.807 128.146 312.24C128.146 311.689 128.275 311.201 128.533 310.775C128.791 310.346 129.15 310.014 129.611 309.779C130.072 309.541 130.584 309.422 131.146 309.422ZM129.658 312.24C129.658 312.787 129.791 313.225 130.057 313.553C130.326 313.877 130.686 314.039 131.135 314.039C131.604 314.039 131.973 313.883 132.242 313.57C132.512 313.258 132.646 312.811 132.646 312.229C132.646 311.674 132.51 311.246 132.236 310.945C131.967 310.641 131.6 310.488 131.135 310.488C130.697 310.488 130.342 310.648 130.068 310.969C129.795 311.289 129.658 311.713 129.658 312.24ZM138.441 309.422C138.633 309.422 138.82 309.465 139.004 309.551C139.191 309.637 139.408 309.781 139.654 309.984L139.139 311.244C138.721 310.932 138.385 310.775 138.131 310.775C137.908 310.775 137.688 310.859 137.469 311.027C137.254 311.191 137.08 311.41 136.947 311.684C136.818 311.957 136.754 312.23 136.754 312.504V315H135.312V309.527H136.754V310.922H136.777C137.039 310.395 137.303 310.014 137.568 309.779C137.834 309.541 138.125 309.422 138.441 309.422ZM142.297 309.422C143 309.422 143.537 309.572 143.908 309.873C144.279 310.17 144.465 310.586 144.465 311.121V313.799C144.465 314.006 144.549 314.109 144.717 314.109C144.787 314.109 144.885 314.08 145.01 314.021C145.139 313.959 145.246 313.889 145.332 313.811V314.643C144.828 314.951 144.367 315.105 143.949 315.105C143.691 315.105 143.492 315.062 143.352 314.977C143.215 314.891 143.119 314.738 143.064 314.52C142.514 314.91 141.961 315.105 141.406 315.105C141.012 315.105 140.672 314.973 140.387 314.707C140.105 314.441 139.965 314.123 139.965 313.752C139.965 313.279 140.105 312.906 140.387 312.633C140.668 312.359 141.16 312.121 141.863 311.918L143.029 311.578V311.326C143.029 310.791 142.705 310.523 142.057 310.523C141.725 310.523 141.395 310.6 141.066 310.752C140.738 310.904 140.439 311.129 140.17 311.426V310.131C140.768 309.658 141.477 309.422 142.297 309.422ZM141.418 313.535C141.418 313.734 141.48 313.895 141.605 314.016C141.734 314.137 141.893 314.197 142.08 314.197C142.396 314.197 142.713 314.053 143.029 313.764V312.322C142.627 312.459 142.311 312.588 142.08 312.709C141.854 312.83 141.686 312.953 141.576 313.078C141.471 313.203 141.418 313.355 141.418 313.535ZM147.629 308.074H147.746V309.527H149.621V310.617H147.746V313.143C147.746 313.389 147.82 313.588 147.969 313.74C148.117 313.893 148.32 313.969 148.578 313.969C148.914 313.969 149.301 313.848 149.738 313.605V314.76C149.219 314.99 148.73 315.105 148.273 315.105C147.656 315.105 147.174 314.938 146.826 314.602C146.482 314.266 146.311 313.811 146.311 313.236V310.617H145.455V310.383L147.629 308.074ZM153.008 309.422C153.812 309.422 154.449 309.68 154.918 310.195C155.387 310.711 155.621 311.424 155.621 312.334V312.551H151.748C151.807 313.039 151.988 313.416 152.293 313.682C152.602 313.943 153.023 314.074 153.559 314.074C153.902 314.074 154.232 314.016 154.549 313.898C154.869 313.777 155.199 313.596 155.539 313.354V314.426C154.898 314.879 154.121 315.105 153.207 315.105C152.344 315.105 151.639 314.846 151.092 314.326C150.545 313.807 150.271 313.115 150.271 312.252C150.271 311.42 150.523 310.74 151.027 310.213C151.535 309.686 152.195 309.422 153.008 309.422ZM154.268 311.678C154.229 311.279 154.107 310.969 153.904 310.746C153.701 310.52 153.422 310.406 153.066 310.406C152.703 310.406 152.41 310.514 152.188 310.729C151.969 310.943 151.83 311.26 151.771 311.678H154.268Z" fill="#282A2E"/>
<path d="M301.23 363.814L304.846 372H303.176L302.326 370.008H298.688L297.896 372H296.238L299.613 363.814H301.23ZM299.168 368.807H301.811L300.428 365.566L299.168 368.807ZM307.02 366.527V369.914C307.02 370.27 307.107 370.541 307.283 370.729C307.463 370.912 307.699 371.004 307.992 371.004C308.234 371.004 308.467 370.93 308.689 370.781C308.912 370.633 309.092 370.424 309.229 370.154V366.527H310.67V372H309.229V371.256C308.709 371.822 308.146 372.105 307.541 372.105C306.955 372.105 306.482 371.914 306.123 371.531C305.764 371.148 305.584 370.648 305.584 370.031V366.527H307.02ZM313.611 365.074H313.729V366.527H315.604V367.617H313.729V370.143C313.729 370.389 313.803 370.588 313.951 370.74C314.1 370.893 314.303 370.969 314.561 370.969C314.896 370.969 315.283 370.848 315.721 370.605V371.76C315.201 371.99 314.713 372.105 314.256 372.105C313.639 372.105 313.156 371.938 312.809 371.602C312.465 371.266 312.293 370.811 312.293 370.236V367.617H311.438V367.383L313.611 365.074ZM319.254 366.422C319.824 366.422 320.342 366.541 320.807 366.779C321.271 367.018 321.631 367.352 321.885 367.781C322.139 368.211 322.266 368.697 322.266 369.24C322.266 369.807 322.143 370.303 321.896 370.729C321.654 371.154 321.295 371.49 320.818 371.736C320.346 371.982 319.824 372.105 319.254 372.105C318.68 372.105 318.158 371.982 317.689 371.736C317.221 371.49 316.863 371.154 316.617 370.729C316.375 370.303 316.254 369.807 316.254 369.24C316.254 368.689 316.383 368.201 316.641 367.775C316.898 367.346 317.258 367.014 317.719 366.779C318.18 366.541 318.691 366.422 319.254 366.422ZM317.766 369.24C317.766 369.787 317.898 370.225 318.164 370.553C318.434 370.877 318.793 371.039 319.242 371.039C319.711 371.039 320.08 370.883 320.35 370.57C320.619 370.258 320.754 369.811 320.754 369.229C320.754 368.674 320.617 368.246 320.344 367.945C320.074 367.641 319.707 367.488 319.242 367.488C318.805 367.488 318.449 367.648 318.176 367.969C317.902 368.289 317.766 368.713 317.766 369.24ZM326.59 366.422C327.012 366.422 327.367 366.521 327.656 366.721C327.949 366.916 328.168 367.18 328.312 367.512C328.621 367.133 328.928 366.857 329.232 366.686C329.541 366.51 329.879 366.422 330.246 366.422C330.824 366.422 331.291 366.611 331.646 366.99C332.002 367.365 332.18 367.867 332.18 368.496V372H330.738V368.736C330.738 368.357 330.656 368.059 330.492 367.84C330.332 367.621 330.098 367.512 329.789 367.512C329.348 367.512 328.924 367.795 328.518 368.361V372H327.082V368.713C327.082 368.338 326.996 368.045 326.824 367.834C326.652 367.619 326.422 367.512 326.133 367.512C325.898 367.512 325.684 367.58 325.488 367.717C325.293 367.85 325.084 368.064 324.861 368.361V372H323.42V366.527H324.861V367.295C325.123 366.998 325.389 366.779 325.658 366.639C325.928 366.494 326.238 366.422 326.59 366.422ZM335.549 366.422C336.252 366.422 336.789 366.572 337.16 366.873C337.531 367.17 337.717 367.586 337.717 368.121V370.799C337.717 371.006 337.801 371.109 337.969 371.109C338.039 371.109 338.137 371.08 338.262 371.021C338.391 370.959 338.498 370.889 338.584 370.811V371.643C338.08 371.951 337.619 372.105 337.201 372.105C336.943 372.105 336.744 372.062 336.604 371.977C336.467 371.891 336.371 371.738 336.316 371.52C335.766 371.91 335.213 372.105 334.658 372.105C334.264 372.105 333.924 371.973 333.639 371.707C333.357 371.441 333.217 371.123 333.217 370.752C333.217 370.279 333.357 369.906 333.639 369.633C333.92 369.359 334.412 369.121 335.115 368.918L336.281 368.578V368.326C336.281 367.791 335.957 367.523 335.309 367.523C334.977 367.523 334.646 367.6 334.318 367.752C333.99 367.904 333.691 368.129 333.422 368.426V367.131C334.02 366.658 334.729 366.422 335.549 366.422ZM334.67 370.535C334.67 370.734 334.732 370.895 334.857 371.016C334.986 371.137 335.145 371.197 335.332 371.197C335.648 371.197 335.965 371.053 336.281 370.764V369.322C335.879 369.459 335.562 369.588 335.332 369.709C335.105 369.83 334.938 369.953 334.828 370.078C334.723 370.203 334.67 370.355 334.67 370.535ZM340.881 365.074H340.998V366.527H342.873V367.617H340.998V370.143C340.998 370.389 341.072 370.588 341.221 370.74C341.369 370.893 341.572 370.969 341.83 370.969C342.166 370.969 342.553 370.848 342.99 370.605V371.76C342.471 371.99 341.982 372.105 341.525 372.105C340.908 372.105 340.426 371.938 340.078 371.602C339.734 371.266 339.562 370.811 339.562 370.236V367.617H338.707V367.383L340.881 365.074ZM344.578 363.996C344.801 363.996 344.992 364.076 345.152 364.236C345.312 364.396 345.393 364.588 345.393 364.811C345.393 365.025 345.312 365.217 345.152 365.385C344.996 365.549 344.805 365.631 344.578 365.631C344.359 365.631 344.168 365.549 344.004 365.385C343.844 365.217 343.764 365.025 343.764 364.811C343.764 364.584 343.846 364.393 344.01 364.236C344.174 364.076 344.363 363.996 344.578 363.996ZM345.299 366.527V372H343.857V366.527H345.299ZM349.412 366.422C350.049 366.422 350.625 366.545 351.141 366.791V368.016C350.629 367.719 350.145 367.57 349.688 367.57C349.195 367.57 348.793 367.725 348.48 368.033C348.168 368.338 348.012 368.752 348.012 369.275C348.012 369.787 348.168 370.199 348.48 370.512C348.797 370.824 349.217 370.98 349.74 370.98C350.131 370.98 350.631 370.852 351.24 370.594V371.76C350.674 371.99 350.09 372.105 349.488 372.105C348.602 372.105 347.881 371.852 347.326 371.344C346.775 370.836 346.5 370.162 346.5 369.322C346.5 368.451 346.77 367.75 347.309 367.219C347.852 366.688 348.553 366.422 349.412 366.422ZM357.146 363.814V372H355.705V363.814H357.146ZM359.402 363.996C359.625 363.996 359.816 364.076 359.977 364.236C360.137 364.396 360.217 364.588 360.217 364.811C360.217 365.025 360.137 365.217 359.977 365.385C359.82 365.549 359.629 365.631 359.402 365.631C359.184 365.631 358.992 365.549 358.828 365.385C358.668 365.217 358.588 365.025 358.588 364.811C358.588 364.584 358.67 364.393 358.834 364.236C358.998 364.076 359.188 363.996 359.402 363.996ZM360.123 366.527V372H358.682V366.527H360.123ZM362.461 366.527L363.773 369.697L365.057 366.527H366.592L364.119 372.105H363.422L360.914 366.527H362.461ZM369.791 366.422C370.596 366.422 371.232 366.68 371.701 367.195C372.17 367.711 372.404 368.424 372.404 369.334V369.551H368.531C368.59 370.039 368.771 370.416 369.076 370.682C369.385 370.943 369.807 371.074 370.342 371.074C370.686 371.074 371.016 371.016 371.332 370.898C371.652 370.777 371.982 370.596 372.322 370.354V371.426C371.682 371.879 370.904 372.105 369.99 372.105C369.127 372.105 368.422 371.846 367.875 371.326C367.328 370.807 367.055 370.115 367.055 369.252C367.055 368.42 367.307 367.74 367.811 367.213C368.318 366.686 368.979 366.422 369.791 366.422ZM371.051 368.678C371.012 368.279 370.891 367.969 370.688 367.746C370.484 367.52 370.205 367.406 369.85 367.406C369.486 367.406 369.193 367.514 368.971 367.729C368.752 367.943 368.613 368.26 368.555 368.678H371.051ZM314.859 380.422C315.641 380.422 316.27 380.684 316.746 381.207C317.227 381.73 317.467 382.412 317.467 383.252C317.467 383.803 317.354 384.295 317.127 384.729C316.904 385.162 316.586 385.5 316.172 385.742C315.758 385.984 315.289 386.105 314.766 386.105C314.34 386.105 313.912 385.998 313.482 385.783V388.76H312.041V380.527H313.471V380.879C313.904 380.574 314.367 380.422 314.859 380.422ZM313.482 384.729C313.842 384.936 314.178 385.039 314.49 385.039C314.943 385.039 315.307 384.877 315.58 384.553C315.854 384.229 315.99 383.811 315.99 383.299C315.99 382.74 315.867 382.303 315.621 381.986C315.379 381.67 315.033 381.512 314.584 381.512C314.416 381.512 314.254 381.541 314.098 381.6C313.941 381.654 313.736 381.773 313.482 381.957V384.729ZM321.744 380.422C321.936 380.422 322.123 380.465 322.307 380.551C322.494 380.637 322.711 380.781 322.957 380.984L322.441 382.244C322.023 381.932 321.688 381.775 321.434 381.775C321.211 381.775 320.99 381.859 320.771 382.027C320.557 382.191 320.383 382.41 320.25 382.684C320.121 382.957 320.057 383.23 320.057 383.504V386H318.615V380.527H320.057V381.922H320.08C320.342 381.395 320.605 381.014 320.871 380.779C321.137 380.541 321.428 380.422 321.744 380.422ZM325.834 380.422C326.639 380.422 327.275 380.68 327.744 381.195C328.213 381.711 328.447 382.424 328.447 383.334V383.551H324.574C324.633 384.039 324.814 384.416 325.119 384.682C325.428 384.943 325.85 385.074 326.385 385.074C326.729 385.074 327.059 385.016 327.375 384.898C327.695 384.777 328.025 384.596 328.365 384.354V385.426C327.725 385.879 326.947 386.105 326.033 386.105C325.17 386.105 324.465 385.846 323.918 385.326C323.371 384.807 323.098 384.115 323.098 383.252C323.098 382.42 323.35 381.74 323.854 381.213C324.361 380.686 325.021 380.422 325.834 380.422ZM327.094 382.678C327.055 382.279 326.934 381.969 326.73 381.746C326.527 381.52 326.248 381.406 325.893 381.406C325.529 381.406 325.236 381.514 325.014 381.729C324.795 381.943 324.656 382.26 324.598 382.678H327.094ZM330.434 380.527L331.746 383.697L333.029 380.527H334.564L332.092 386.105H331.395L328.887 380.527H330.434ZM336.082 377.996C336.305 377.996 336.496 378.076 336.656 378.236C336.816 378.396 336.896 378.588 336.896 378.811C336.896 379.025 336.816 379.217 336.656 379.385C336.5 379.549 336.309 379.631 336.082 379.631C335.863 379.631 335.672 379.549 335.508 379.385C335.348 379.217 335.268 379.025 335.268 378.811C335.268 378.584 335.35 378.393 335.514 378.236C335.678 378.076 335.867 377.996 336.082 377.996ZM336.803 380.527V386H335.361V380.527H336.803ZM340.74 380.422C341.545 380.422 342.182 380.68 342.65 381.195C343.119 381.711 343.354 382.424 343.354 383.334V383.551H339.48C339.539 384.039 339.721 384.416 340.025 384.682C340.334 384.943 340.756 385.074 341.291 385.074C341.635 385.074 341.965 385.016 342.281 384.898C342.602 384.777 342.932 384.596 343.271 384.354V385.426C342.631 385.879 341.854 386.105 340.939 386.105C340.076 386.105 339.371 385.846 338.824 385.326C338.277 384.807 338.004 384.115 338.004 383.252C338.004 382.42 338.256 381.74 338.76 381.213C339.268 380.686 339.928 380.422 340.74 380.422ZM342 382.678C341.961 382.279 341.84 381.969 341.637 381.746C341.434 381.52 341.154 381.406 340.799 381.406C340.436 381.406 340.143 381.514 339.92 381.729C339.701 381.943 339.562 382.26 339.504 382.678H342ZM345.27 380.527L346.541 383.686L347.836 380.527H348.773L350.057 383.686L351.328 380.527H352.828L350.391 386.105H349.781L348.305 382.76L346.828 386.105H346.23L343.77 380.527H345.27ZM355.324 380.422C355.625 380.422 355.908 380.457 356.174 380.527C356.439 380.594 356.721 380.701 357.018 380.85V382.004C356.744 381.828 356.451 381.688 356.139 381.582C355.826 381.473 355.547 381.418 355.301 381.418C355.094 381.418 354.932 381.457 354.814 381.535C354.697 381.613 354.639 381.725 354.639 381.869C354.639 381.951 354.688 382.033 354.785 382.115C354.883 382.197 355.15 382.348 355.588 382.566C356.213 382.883 356.65 383.176 356.9 383.445C357.154 383.711 357.281 384.031 357.281 384.406C357.281 384.934 357.098 385.35 356.73 385.654C356.363 385.955 355.867 386.105 355.242 386.105C354.852 386.105 354.486 386.062 354.146 385.977C353.811 385.891 353.531 385.787 353.309 385.666V384.465C354.012 384.855 354.604 385.051 355.084 385.051C355.33 385.051 355.529 385.008 355.682 384.922C355.834 384.832 355.91 384.715 355.91 384.57C355.91 384.484 355.883 384.406 355.828 384.336C355.773 384.266 355.691 384.193 355.582 384.119C355.473 384.045 355.131 383.867 354.557 383.586C354.115 383.375 353.789 383.146 353.578 382.9C353.367 382.65 353.262 382.355 353.262 382.016C353.262 381.531 353.451 381.145 353.83 380.855C354.209 380.566 354.707 380.422 355.324 380.422Z" fill="#282A2E"/>
<path d="M203.352 263.328V268.412C203.352 268.681 203.263 268.929 203.114 269.129C202.895 269.422 202.546 269.612 202.152 269.612H191.883C191.489 269.612 191.139 269.422 190.921 269.129C190.905 269.108 190.889 269.086 190.875 269.063C190.749 268.869 190.682 268.643 190.683 268.412V258.143C190.683 257.48 191.22 256.943 191.883 256.943H202.152C202.595 256.943 202.982 257.183 203.19 257.541L201.539 259.192L197.885 262.847L195.223 260.185C194.753 259.715 193.814 259.715 193.345 260.185L192.249 261.281C192.082 261.447 191.975 261.673 191.927 261.915C191.838 262.357 191.945 262.856 192.249 263.16L196.945 267.856C197.415 268.326 198.354 268.326 198.824 267.856L199.92 266.76L203.352 263.328Z" fill="#FBEBD4"/>
<path d="M206.964 259.715L203.352 263.328L199.92 266.76L198.824 267.856C198.354 268.325 197.415 268.325 196.945 267.856L192.249 263.159C191.945 262.856 191.838 262.356 191.927 261.915C191.975 261.672 192.082 261.447 192.249 261.28L193.345 260.185C193.814 259.715 194.753 259.715 195.223 260.185L197.885 262.846L201.539 259.192L203.19 257.54L203.99 256.741C204.46 256.271 205.399 256.271 205.868 256.741L206.964 257.836C207.092 257.965 207.186 258.128 207.244 258.307C207.399 258.784 207.306 259.373 206.964 259.715Z" fill="#FADFB9"/>
<path d="M468.352 293.328V298.412C468.352 298.681 468.263 298.929 468.114 299.129C467.895 299.422 467.546 299.612 467.152 299.612H456.883C456.489 299.612 456.139 299.422 455.921 299.129C455.905 299.108 455.889 299.086 455.875 299.063C455.749 298.869 455.682 298.643 455.683 298.412V288.143C455.683 287.48 456.22 286.943 456.883 286.943H467.152C467.595 286.943 467.982 287.183 468.19 287.541L466.539 289.192L462.885 292.847L460.223 290.185C459.753 289.715 458.814 289.715 458.345 290.185L457.249 291.281C457.082 291.447 456.975 291.673 456.927 291.915C456.838 292.357 456.945 292.856 457.249 293.16L461.945 297.856C462.415 298.326 463.354 298.326 463.824 297.856L464.92 296.76L468.352 293.328Z" fill="#FBEBD4"/>
<path d="M471.964 289.715L468.352 293.328L464.92 296.76L463.824 297.856C463.354 298.325 462.415 298.325 461.945 297.856L457.249 293.159C456.945 292.856 456.838 292.356 456.927 291.915C456.975 291.672 457.082 291.447 457.249 291.28L458.345 290.185C458.814 289.715 459.753 289.715 460.223 290.185L462.885 292.846L466.539 289.192L468.19 287.54L468.99 286.741C469.46 286.271 470.399 286.271 470.868 286.741L471.964 287.836C472.092 287.965 472.186 288.128 472.244 288.307C472.399 288.784 472.306 289.373 471.964 289.715Z" fill="#FAE0B9"/>
<path d="M288.447 124.16C289.951 124.16 291.17 122.942 291.17 121.44C291.17 119.938 289.951 118.72 288.447 118.72C286.943 118.72 285.724 119.938 285.724 121.44C285.724 122.942 286.943 124.16 288.447 124.16Z" fill="#F3E6D3"/>
<path d="M299.341 124.16C300.845 124.16 302.064 122.942 302.064 121.44C302.064 119.938 300.845 118.72 299.341 118.72C297.836 118.72 296.617 119.938 296.617 121.44C296.617 122.942 297.836 124.16 299.341 124.16Z" fill="#F3E6D3"/>
<path d="M288.447 135.04C289.951 135.04 291.17 133.822 291.17 132.32C291.17 130.818 289.951 129.6 288.447 129.6C286.943 129.6 285.724 130.818 285.724 132.32C285.724 133.822 286.943 135.04 288.447 135.04Z" fill="#F3E6D3"/>
<path d="M299.341 135.04C300.845 135.04 302.064 133.822 302.064 132.32C302.064 130.818 300.845 129.6 299.341 129.6C297.836 129.6 296.617 130.818 296.617 132.32C296.617 133.822 297.836 135.04 299.341 135.04Z" fill="#F3E6D3"/>
<path d="M288.447 145.92C289.951 145.92 291.17 144.702 291.17 143.2C291.17 141.698 289.951 140.48 288.447 140.48C286.943 140.48 285.724 141.698 285.724 143.2C285.724 144.702 286.943 145.92 288.447 145.92Z" fill="#F3E6D3"/>
<path d="M299.341 145.92C300.845 145.92 302.064 144.702 302.064 143.2C302.064 141.698 300.845 140.48 299.341 140.48C297.836 140.48 296.617 141.698 296.617 143.2C296.617 144.702 297.836 145.92 299.341 145.92Z" fill="#F3E6D3"/>
<path d="M310.234 124.16C311.738 124.16 312.958 122.942 312.958 121.44C312.958 119.938 311.738 118.72 310.234 118.72C308.73 118.72 307.511 119.938 307.511 121.44C307.511 122.942 308.73 124.16 310.234 124.16Z" fill="#F3E6D3"/>
<path d="M310.234 135.04C311.738 135.04 312.958 133.822 312.958 132.32C312.958 130.818 311.738 129.6 310.234 129.6C308.73 129.6 307.511 130.818 307.511 132.32C307.511 133.822 308.73 135.04 310.234 135.04Z" fill="#F3E6D3"/>
<path d="M310.234 145.92C311.738 145.92 312.958 144.702 312.958 143.2C312.958 141.698 311.738 140.48 310.234 140.48C308.73 140.48 307.511 141.698 307.511 143.2C307.511 144.702 308.73 145.92 310.234 145.92Z" fill="#F3E6D3"/>
<path d="M288.447 156.8C289.951 156.8 291.17 155.582 291.17 154.08C291.17 152.578 289.951 151.36 288.447 151.36C286.943 151.36 285.724 152.578 285.724 154.08C285.724 155.582 286.943 156.8 288.447 156.8Z" fill="#F3E6D3"/>
<path d="M299.341 156.8C300.845 156.8 302.064 155.582 302.064 154.08C302.064 152.578 300.845 151.36 299.341 151.36C297.836 151.36 296.617 152.578 296.617 154.08C296.617 155.582 297.836 156.8 299.341 156.8Z" fill="#F3E6D3"/>
<path d="M310.234 156.8C311.738 156.8 312.958 155.582 312.958 154.08C312.958 152.578 311.738 151.36 310.234 151.36C308.73 151.36 307.511 152.578 307.511 154.08C307.511 155.582 308.73 156.8 310.234 156.8Z" fill="#F3E6D3"/>
<path d="M288.447 167.68C289.951 167.68 291.17 166.462 291.17 164.96C291.17 163.458 289.951 162.24 288.447 162.24C286.943 162.24 285.724 163.458 285.724 164.96C285.724 166.462 286.943 167.68 288.447 167.68Z" fill="#F3E6D3"/>
<path d="M299.341 167.68C300.845 167.68 302.064 166.462 302.064 164.96C302.064 163.458 300.845 162.24 299.341 162.24C297.836 162.24 296.617 163.458 296.617 164.96C296.617 166.462 297.836 167.68 299.341 167.68Z" fill="#F3E6D3"/>
<path d="M310.234 167.68C311.738 167.68 312.958 166.462 312.958 164.96C312.958 163.458 311.738 162.24 310.234 162.24C308.73 162.24 307.511 163.458 307.511 164.96C307.511 166.462 308.73 167.68 310.234 167.68Z" fill="#F3E6D3"/>
<path d="M288.447 178.56C289.951 178.56 291.17 177.342 291.17 175.84C291.17 174.338 289.951 173.12 288.447 173.12C286.943 173.12 285.724 174.338 285.724 175.84C285.724 177.342 286.943 178.56 288.447 178.56Z" fill="#F3E6D3"/>
<path d="M299.341 178.56C300.845 178.56 302.064 177.342 302.064 175.84C302.064 174.338 300.845 173.12 299.341 173.12C297.836 173.12 296.617 174.338 296.617 175.84C296.617 177.342 297.836 178.56 299.341 178.56Z" fill="#F3E6D3"/>
<path d="M310.234 178.56C311.738 178.56 312.958 177.342 312.958 175.84C312.958 174.338 311.738 173.12 310.234 173.12C308.73 173.12 307.511 174.338 307.511 175.84C307.511 177.342 308.73 178.56 310.234 178.56Z" fill="#F3E6D3"/>
<path d="M321.128 124.16C322.632 124.16 323.851 122.942 323.851 121.44C323.851 119.938 322.632 118.72 321.128 118.72C319.624 118.72 318.404 119.938 318.404 121.44C318.404 122.942 319.624 124.16 321.128 124.16Z" fill="#F3E6D3"/>
<path d="M321.128 135.04C322.632 135.04 323.851 133.822 323.851 132.32C323.851 130.818 322.632 129.6 321.128 129.6C319.624 129.6 318.404 130.818 318.404 132.32C318.404 133.822 319.624 135.04 321.128 135.04Z" fill="#F3E6D3"/>
<path d="M321.128 145.92C322.632 145.92 323.851 144.702 323.851 143.2C323.851 141.698 322.632 140.48 321.128 140.48C319.624 140.48 318.404 141.698 318.404 143.2C318.404 144.702 319.624 145.92 321.128 145.92Z" fill="#F3E6D3"/>
<path d="M321.128 156.8C322.632 156.8 323.851 155.582 323.851 154.08C323.851 152.578 322.632 151.36 321.128 151.36C319.624 151.36 318.404 152.578 318.404 154.08C318.404 155.582 319.624 156.8 321.128 156.8Z" fill="#F3E6D3"/>
<path d="M321.128 167.68C322.632 167.68 323.851 166.462 323.851 164.96C323.851 163.458 322.632 162.24 321.128 162.24C319.624 162.24 318.404 163.458 318.404 164.96C318.404 166.462 319.624 167.68 321.128 167.68Z" fill="#F3E6D3"/>
<path d="M321.128 178.56C322.632 178.56 323.851 177.342 323.851 175.84C323.851 174.338 322.632 173.12 321.128 173.12C319.624 173.12 318.404 174.338 318.404 175.84C318.404 177.342 319.624 178.56 321.128 178.56Z" fill="#F3E6D3"/>
<path d="M332.021 124.16C333.525 124.16 334.745 122.942 334.745 121.44C334.745 119.938 333.525 118.72 332.021 118.72C330.517 118.72 329.298 119.938 329.298 121.44C329.298 122.942 330.517 124.16 332.021 124.16Z" fill="#F3E6D3"/>
<path d="M332.021 135.04C333.525 135.04 334.745 133.822 334.745 132.32C334.745 130.818 333.525 129.6 332.021 129.6C330.517 129.6 329.298 130.818 329.298 132.32C329.298 133.822 330.517 135.04 332.021 135.04Z" fill="#F3E6D3"/>
<path d="M332.021 145.92C333.525 145.92 334.745 144.702 334.745 143.2C334.745 141.698 333.525 140.48 332.021 140.48C330.517 140.48 329.298 141.698 329.298 143.2C329.298 144.702 330.517 145.92 332.021 145.92Z" fill="#F3E6D3"/>
<path d="M332.021 156.8C333.525 156.8 334.745 155.582 334.745 154.08C334.745 152.578 333.525 151.36 332.021 151.36C330.517 151.36 329.298 152.578 329.298 154.08C329.298 155.582 330.517 156.8 332.021 156.8Z" fill="#F3E6D3"/>
<path d="M332.021 167.68C333.525 167.68 334.745 166.462 334.745 164.96C334.745 163.458 333.525 162.24 332.021 162.24C330.517 162.24 329.298 163.458 329.298 164.96C329.298 166.462 330.517 167.68 332.021 167.68Z" fill="#F3E6D3"/>
<path d="M332.021 178.56C333.525 178.56 334.745 177.342 334.745 175.84C334.745 174.338 333.525 173.12 332.021 173.12C330.517 173.12 329.298 174.338 329.298 175.84C329.298 177.342 330.517 178.56 332.021 178.56Z" fill="#F3E6D3"/>
<path d="M342.915 124.16C344.419 124.16 345.638 122.942 345.638 121.44C345.638 119.938 344.419 118.72 342.915 118.72C341.411 118.72 340.191 119.938 340.191 121.44C340.191 122.942 341.411 124.16 342.915 124.16Z" fill="#F3E6D3"/>
<path d="M342.915 135.04C344.419 135.04 345.638 133.822 345.638 132.32C345.638 130.818 344.419 129.6 342.915 129.6C341.411 129.6 340.191 130.818 340.191 132.32C340.191 133.822 341.411 135.04 342.915 135.04Z" fill="#F3E6D3"/>
<path d="M342.915 145.92C344.419 145.92 345.638 144.702 345.638 143.2C345.638 141.698 344.419 140.48 342.915 140.48C341.411 140.48 340.191 141.698 340.191 143.2C340.191 144.702 341.411 145.92 342.915 145.92Z" fill="#F3E6D3"/>
<path d="M342.915 156.8C344.419 156.8 345.638 155.582 345.638 154.08C345.638 152.578 344.419 151.36 342.915 151.36C341.411 151.36 340.191 152.578 340.191 154.08C340.191 155.582 341.411 156.8 342.915 156.8Z" fill="#F3E6D3"/>
<path d="M342.915 167.68C344.419 167.68 345.638 166.462 345.638 164.96C345.638 163.458 344.419 162.24 342.915 162.24C341.411 162.24 340.191 163.458 340.191 164.96C340.191 166.462 341.411 167.68 342.915 167.68Z" fill="#F3E6D3"/>
<path d="M342.915 178.56C344.419 178.56 345.638 177.342 345.638 175.84C345.638 174.338 344.419 173.12 342.915 173.12C341.411 173.12 340.191 174.338 340.191 175.84C340.191 177.342 341.411 178.56 342.915 178.56Z" fill="#F3E6D3"/>
<g filter="url(#filter7_d_760_2683)">
<circle cx="269" cy="228" r="60" fill="white"/>
</g>
<path d="M269.22 258L281.451 221.094H256.989L269.22 258Z" fill="#E24329"/>
<path d="M269.22 258L256.99 221.094H239.849L269.22 258Z" fill="#FC6D26"/>
<path d="M239.848 221.094L236.125 232.309C235.783 233.332 236.161 234.46 237.042 235.077L269.22 258L239.848 221.094Z" fill="#FCA326"/>
<path d="M239.849 221.095H256.99L249.615 198.86C249.238 197.713 247.583 197.713 247.205 198.86L239.849 221.095Z" fill="#E24329"/>
<path d="M269.219 258L281.449 221.094H298.59L269.219 258Z" fill="#FC6D26"/>
<path d="M298.59 221.094L302.314 232.309C302.655 233.332 302.278 234.46 301.396 235.077L269.219 258L298.59 221.094Z" fill="#FCA326"/>
<path d="M298.591 221.095H281.45L288.825 198.86C289.202 197.713 290.857 197.713 291.235 198.86L298.591 221.095Z" fill="#E24329"/>
<defs>
<filter id="filter0_d_760_2683" x="341" y="38" width="178" height="178" filterUnits="userSpaceOnUse" color-interpolation-filters="sRGB">
<feFlood flood-opacity="0" result="BackgroundImageFix"/>
<feColorMatrix in="SourceAlpha" type="matrix" values="0 0 0 0 0 0 0 0 0 0 0 0 0 0 0 0 0 0 127 0" result="hardAlpha"/>
<feMorphology radius="4" operator="dilate" in="SourceAlpha" result="effect1_dropShadow_760_2683"/>
<feOffset/>
<feGaussianBlur stdDeviation="30"/>
<feComposite in2="hardAlpha" operator="out"/>
<feColorMatrix type="matrix" values="0 0 0 0 0.878837 0 0 0 0 0.892236 0 0 0 0 0.945833 0 0 0 0.5 0"/>
<feBlend mode="normal" in2="BackgroundImageFix" result="effect1_dropShadow_760_2683"/>
<feBlend mode="normal" in="SourceGraphic" in2="effect1_dropShadow_760_2683" result="shape"/>
</filter>
<filter id="filter1_d_760_2683" x="415" y="108" width="178" height="178" filterUnits="userSpaceOnUse" color-interpolation-filters="sRGB">
<feFlood flood-opacity="0" result="BackgroundImageFix"/>
<feColorMatrix in="SourceAlpha" type="matrix" values="0 0 0 0 0 0 0 0 0 0 0 0 0 0 0 0 0 0 127 0" result="hardAlpha"/>
<feMorphology radius="4" operator="dilate" in="SourceAlpha" result="effect1_dropShadow_760_2683"/>
<feOffset/>
<feGaussianBlur stdDeviation="30"/>
<feComposite in2="hardAlpha" operator="out"/>
<feColorMatrix type="matrix" values="0 0 0 0 0.878837 0 0 0 0 0.892236 0 0 0 0 0.945833 0 0 0 0.5 0"/>
<feBlend mode="normal" in2="BackgroundImageFix" result="effect1_dropShadow_760_2683"/>
<feBlend mode="normal" in="SourceGraphic" in2="effect1_dropShadow_760_2683" result="shape"/>
</filter>
<filter id="filter2_d_760_2683" x="326" y="180" width="178" height="178" filterUnits="userSpaceOnUse" color-interpolation-filters="sRGB">
<feFlood flood-opacity="0" result="BackgroundImageFix"/>
<feColorMatrix in="SourceAlpha" type="matrix" values="0 0 0 0 0 0 0 0 0 0 0 0 0 0 0 0 0 0 127 0" result="hardAlpha"/>
<feMorphology radius="4" operator="dilate" in="SourceAlpha" result="effect1_dropShadow_760_2683"/>
<feOffset/>
<feGaussianBlur stdDeviation="30"/>
<feComposite in2="hardAlpha" operator="out"/>
<feColorMatrix type="matrix" values="0 0 0 0 0.878837 0 0 0 0 0.892236 0 0 0 0 0.945833 0 0 0 0.5 0"/>
<feBlend mode="normal" in2="BackgroundImageFix" result="effect1_dropShadow_760_2683"/>
<feBlend mode="normal" in="SourceGraphic" in2="effect1_dropShadow_760_2683" result="shape"/>
</filter>
<filter id="filter3_d_760_2683" x="94" y="0" width="178" height="178" filterUnits="userSpaceOnUse" color-interpolation-filters="sRGB">
<feFlood flood-opacity="0" result="BackgroundImageFix"/>
<feColorMatrix in="SourceAlpha" type="matrix" values="0 0 0 0 0 0 0 0 0 0 0 0 0 0 0 0 0 0 127 0" result="hardAlpha"/>
<feMorphology radius="4" operator="dilate" in="SourceAlpha" result="effect1_dropShadow_760_2683"/>
<feOffset/>
<feGaussianBlur stdDeviation="30"/>
<feComposite in2="hardAlpha" operator="out"/>
<feColorMatrix type="matrix" values="0 0 0 0 0.878837 0 0 0 0 0.892236 0 0 0 0 0.945833 0 0 0 0.5 0"/>
<feBlend mode="normal" in2="BackgroundImageFix" result="effect1_dropShadow_760_2683"/>
<feBlend mode="normal" in="SourceGraphic" in2="effect1_dropShadow_760_2683" result="shape"/>
</filter>
<filter id="filter4_d_760_2683" x="0" y="79" width="178" height="178" filterUnits="userSpaceOnUse" color-interpolation-filters="sRGB">
<feFlood flood-opacity="0" result="BackgroundImageFix"/>
<feColorMatrix in="SourceAlpha" type="matrix" values="0 0 0 0 0 0 0 0 0 0 0 0 0 0 0 0 0 0 127 0" result="hardAlpha"/>
<feMorphology radius="4" operator="dilate" in="SourceAlpha" result="effect1_dropShadow_760_2683"/>
<feOffset/>
<feGaussianBlur stdDeviation="30"/>
<feComposite in2="hardAlpha" operator="out"/>
<feColorMatrix type="matrix" values="0 0 0 0 0.878837 0 0 0 0 0.892236 0 0 0 0 0.945833 0 0 0 0.5 0"/>
<feBlend mode="normal" in2="BackgroundImageFix" result="effect1_dropShadow_760_2683"/>
<feBlend mode="normal" in="SourceGraphic" in2="effect1_dropShadow_760_2683" result="shape"/>
</filter>
<filter id="filter5_d_760_2683" x="38" y="172" width="178" height="178" filterUnits="userSpaceOnUse" color-interpolation-filters="sRGB">
<feFlood flood-opacity="0" result="BackgroundImageFix"/>
<feColorMatrix in="SourceAlpha" type="matrix" values="0 0 0 0 0 0 0 0 0 0 0 0 0 0 0 0 0 0 127 0" result="hardAlpha"/>
<feMorphology radius="4" operator="dilate" in="SourceAlpha" result="effect1_dropShadow_760_2683"/>
<feOffset/>
<feGaussianBlur stdDeviation="30"/>
<feComposite in2="hardAlpha" operator="out"/>
<feColorMatrix type="matrix" values="0 0 0 0 0.878837 0 0 0 0 0.892236 0 0 0 0 0.945833 0 0 0 0.5 0"/>
<feBlend mode="normal" in2="BackgroundImageFix" result="effect1_dropShadow_760_2683"/>
<feBlend mode="normal" in="SourceGraphic" in2="effect1_dropShadow_760_2683" result="shape"/>
</filter>
<filter id="filter6_d_760_2683" x="246" y="243" width="178" height="178" filterUnits="userSpaceOnUse" color-interpolation-filters="sRGB">
<feFlood flood-opacity="0" result="BackgroundImageFix"/>
<feColorMatrix in="SourceAlpha" type="matrix" values="0 0 0 0 0 0 0 0 0 0 0 0 0 0 0 0 0 0 127 0" result="hardAlpha"/>
<feMorphology radius="4" operator="dilate" in="SourceAlpha" result="effect1_dropShadow_760_2683"/>
<feOffset/>
<feGaussianBlur stdDeviation="30"/>
<feComposite in2="hardAlpha" operator="out"/>
<feColorMatrix type="matrix" values="0 0 0 0 0.878837 0 0 0 0 0.892236 0 0 0 0 0.945833 0 0 0 0.5 0"/>
<feBlend mode="normal" in2="BackgroundImageFix" result="effect1_dropShadow_760_2683"/>
<feBlend mode="normal" in="SourceGraphic" in2="effect1_dropShadow_760_2683" result="shape"/>
</filter>
<filter id="filter7_d_760_2683" x="145" y="104" width="248" height="248" filterUnits="userSpaceOnUse" color-interpolation-filters="sRGB">
<feFlood flood-opacity="0" result="BackgroundImageFix"/>
<feColorMatrix in="SourceAlpha" type="matrix" values="0 0 0 0 0 0 0 0 0 0 0 0 0 0 0 0 0 0 127 0" result="hardAlpha"/>
<feMorphology radius="4" operator="dilate" in="SourceAlpha" result="effect1_dropShadow_760_2683"/>
<feOffset/>
<feGaussianBlur stdDeviation="30"/>
<feComposite in2="hardAlpha" operator="out"/>
<feColorMatrix type="matrix" values="0 0 0 0 0.9125 0 0 0 0 0.838589 0 0 0 0 0.733802 0 0 0 1 0"/>
<feBlend mode="normal" in2="BackgroundImageFix" result="effect1_dropShadow_760_2683"/>
<feBlend mode="normal" in="SourceGraphic" in2="effect1_dropShadow_760_2683" result="shape"/>
</filter>
<clipPath id="clip0_760_2683">
<rect width="24" height="24" fill="white" transform="translate(492 185)"/>
</clipPath>
<clipPath id="clip1_760_2683">
<rect width="24" height="24" fill="white" transform="translate(77 156)"/>
</clipPath>
<clipPath id="clip2_760_2683">
<rect width="25" height="25" fill="white" transform="translate(322 320)"/>
</clipPath>
</defs>
</svg>
