<svg width="16" height="16" viewBox="0 0 16 16" fill="none" xmlns="http://www.w3.org/2000/svg">
<g id="Iconsax/Outline/call" clip-path="url(#clip0_753_1921)">
<path id="Vector" d="M11.633 15.1666C10.8797 15.1666 10.0863 14.9866 9.26634 14.6399C8.46634 14.2999 7.65967 13.8332 6.87301 13.2666C6.09301 12.6932 5.33967 12.0532 4.62634 11.3532C3.91967 10.6399 3.27967 9.88658 2.71301 9.11325C2.13967 8.31325 1.67967 7.51325 1.35301 6.73992C1.00634 5.91325 0.833008 5.11325 0.833008 4.35992C0.833008 3.83992 0.926341 3.34658 1.10634 2.88658C1.29301 2.41325 1.59301 1.97325 1.99967 1.59325C2.51301 1.08659 3.09967 0.833252 3.72634 0.833252C3.98634 0.833252 4.25301 0.893252 4.47967 0.999919C4.73967 1.11992 4.95967 1.29992 5.11967 1.53992L6.66634 3.71992C6.80634 3.91325 6.91301 4.09992 6.98634 4.28658C7.07301 4.48658 7.11967 4.68658 7.11967 4.87992C7.11967 5.13325 7.04634 5.37992 6.90634 5.61325C6.78381 5.8215 6.63355 6.01214 6.45967 6.17992L6.00634 6.65325C6.01301 6.67325 6.01967 6.68658 6.02634 6.69992C6.10634 6.83992 6.26634 7.07992 6.57301 7.43992C6.89967 7.81325 7.20634 8.15325 7.51301 8.46658C7.90634 8.85325 8.23301 9.15992 8.53967 9.41325C8.91967 9.73325 9.16634 9.89325 9.31301 9.96658L9.29967 9.99992L9.78634 9.51992C9.99301 9.31325 10.193 9.15992 10.3863 9.05992C10.753 8.83325 11.2197 8.79325 11.6863 8.98658C11.8597 9.05992 12.0463 9.15992 12.2463 9.29992L14.4597 10.8732C14.7063 11.0399 14.8863 11.2532 14.993 11.5066C15.093 11.7599 15.1397 11.9932 15.1397 12.2266C15.1397 12.5466 15.0663 12.8666 14.9263 13.1666C14.7863 13.4666 14.613 13.7266 14.393 13.9666C14.013 14.3866 13.5997 14.6866 13.1197 14.8799C12.6597 15.0666 12.1597 15.1666 11.633 15.1666ZM3.72634 1.83325C3.35967 1.83325 3.01967 1.99325 2.69301 2.31325C2.38634 2.59992 2.17301 2.91325 2.03967 3.25325C1.89967 3.59992 1.83301 3.96658 1.83301 4.35992C1.83301 4.97992 1.97967 5.65325 2.27301 6.34658C2.57301 7.05325 2.99301 7.78658 3.52634 8.51992C4.05967 9.25325 4.66634 9.96658 5.33301 10.6399C5.99967 11.2999 6.71967 11.9132 7.45967 12.4532C8.17967 12.9799 8.91967 13.4066 9.65301 13.7132C10.793 14.1999 11.8597 14.3132 12.7397 13.9466C13.0797 13.8066 13.3797 13.5932 13.653 13.2866C13.8063 13.1199 13.9263 12.9399 14.0263 12.7266C14.1063 12.5599 14.1463 12.3866 14.1463 12.2132C14.1463 12.1066 14.1263 11.9999 14.073 11.8799C14.0304 11.7973 13.9658 11.7281 13.8863 11.6799L11.673 10.1066C11.5397 10.0132 11.4197 9.94658 11.3063 9.89992C11.1597 9.83992 11.0997 9.77992 10.873 9.91992C10.7397 9.98658 10.6197 10.0866 10.4863 10.2199L9.97967 10.7199C9.71967 10.9732 9.31967 11.0332 9.01301 10.9199L8.83301 10.8399C8.55967 10.6932 8.23967 10.4666 7.88634 10.1666C7.56634 9.89325 7.21967 9.57325 6.79967 9.15992C6.47301 8.82658 6.14634 8.47325 5.80634 8.07992C5.49301 7.71325 5.26634 7.39992 5.12634 7.13992L5.04634 6.93992C5.00634 6.78658 4.99301 6.69992 4.99301 6.60658C4.99301 6.36658 5.07967 6.15325 5.24634 5.98658L5.74634 5.46658C5.87967 5.33325 5.97967 5.20658 6.04634 5.09325C6.09967 5.00658 6.11967 4.93325 6.11967 4.86658C6.11967 4.81325 6.09967 4.73325 6.06634 4.65325C6.01967 4.54658 5.94634 4.42658 5.85301 4.29992L4.30634 2.11325C4.24393 2.02368 4.15879 1.95235 4.05967 1.90658C3.95301 1.85992 3.83967 1.83325 3.72634 1.83325ZM9.29967 10.0066L9.19301 10.4599L9.37301 9.99325C9.33967 9.98658 9.31301 9.99325 9.29967 10.0066Z" fill="#B2B4DC"/>
</g>
<defs>
<clipPath id="clip0_753_1921">
<rect width="16" height="16" fill="white"/>
</clipPath>
</defs>
</svg>
