<svg width="16" height="16" viewBox="0 0 16 16" fill="none" xmlns="http://www.w3.org/2000/svg">
<g id="Iconsax/Linear/messageedit" clip-path="url(#clip0_753_1927)">
<path id="Vector" d="M10.6663 1.33325H5.33301C2.66634 1.33325 1.33301 2.66659 1.33301 5.33325V13.9999C1.33301 14.3666 1.63301 14.6666 1.99967 14.6666H10.6663C13.333 14.6666 14.6663 13.3333 14.6663 10.6666V5.33325C14.6663 2.66659 13.333 1.33325 10.6663 1.33325Z" stroke="#ACA7DA" stroke-linecap="round" stroke-linejoin="round"/>
<path id="Vector_2" d="M8.60686 5.22677L5.14686 8.68677C5.01352 8.8201 4.88686 9.0801 4.86019 9.26677L4.67353 10.5868C4.60686 11.0668 4.94019 11.4001 5.42019 11.3334L6.74019 11.1468C6.92686 11.1201 7.18686 10.9934 7.32019 10.8601L10.7802 7.4001C11.3735 6.80677 11.6602 6.11343 10.7802 5.23343C9.90019 4.34677 9.20686 4.62677 8.60686 5.22677Z" stroke="#ACA7DA" stroke-miterlimit="10" stroke-linecap="round" stroke-linejoin="round"/>
<path id="Vector_3" d="M8.11328 5.71997C8.25802 6.23676 8.53339 6.70757 8.91287 7.08705C9.29235 7.46653 9.76316 7.7419 10.2799 7.88664" stroke="#ACA7DA" stroke-miterlimit="10" stroke-linecap="round" stroke-linejoin="round"/>
</g>
<defs>
<clipPath id="clip0_753_1927">
<rect width="16" height="16" fill="white"/>
</clipPath>
</defs>
</svg>
