<svg width="16" height="16" viewBox="0 0 16 16" fill="none" xmlns="http://www.w3.org/2000/svg">
<g id="Iconsax/Linear/more2">
<path id="Vector" d="M8.00033 5.61783C9.05811 5.61783 9.92033 4.75561 9.92033 3.69783C9.92033 2.64005 9.05811 1.77783 8.00033 1.77783C6.94255 1.77783 6.08033 2.64005 6.08033 3.69783C6.08033 4.75561 6.94255 5.61783 8.00033 5.61783ZM3.36922 14.2223C4.427 14.2223 5.28922 13.3601 5.28922 12.3023C5.28922 11.2445 4.427 10.3823 3.36922 10.3823C2.31144 10.3823 1.44922 11.2445 1.44922 12.3023C1.44922 13.3601 2.30255 14.2223 3.36922 14.2223ZM12.6314 14.2223C13.6892 14.2223 14.5514 13.3601 14.5514 12.3023C14.5514 11.2445 13.6892 10.3823 12.6314 10.3823C11.5737 10.3823 10.7114 11.2445 10.7114 12.3023C10.7114 13.3601 11.5737 14.2223 12.6314 14.2223Z" stroke="#ACA7DA" stroke-linecap="round" stroke-linejoin="round"/>
</g>
</svg>
