<svg xmlns="http://www.w3.org/2000/svg" xmlns:xlink="http://www.w3.org/1999/xlink" width="2240" zoomAndPan="magnify" viewBox="0 0 1680 944.999993" height="1260" preserveAspectRatio="xMidYMid meet" version="1.0"><defs><filter x="0%" y="0%" width="100%" height="100%" id="9d87da3d9e"><feColorMatrix values="0 0 0 0 1 0 0 0 0 1 0 0 0 0 1 0 0 0 1 0" color-interpolation-filters="sRGB"/></filter><mask id="866fe81d35"><g filter="url(#9d87da3d9e)"><rect x="-168" width="2016" fill="#000000" y="-94.499999" height="1133.999992" fill-opacity="0.17"/></g></mask><clipPath id="4295ab7f14"><path d="M 443 0 L 569.320312 0 L 569.320312 2 L 443 2 Z M 443 0 " clip-rule="nonzero"/></clipPath><clipPath id="82c947d2ac"><path d="M 97 149 L 183 149 L 183 233.878906 L 97 233.878906 Z M 97 149 " clip-rule="nonzero"/></clipPath><clipPath id="4fa523b69c"><path d="M 0.078125 65 L 58 65 L 58 123 L 0.078125 123 Z M 0.078125 65 " clip-rule="nonzero"/></clipPath><clipPath id="a6b6a6453d"><rect x="0" width="571" y="0" height="236"/></clipPath><mask id="fe038e022f"><g filter="url(#9d87da3d9e)"><rect x="-168" width="2016" fill="#000000" y="-94.499999" height="1133.999992" fill-opacity="0.18"/></g></mask><clipPath id="161592b23a"><path d="M 1 59 L 154 59 L 154 178 L 1 178 Z M 1 59 " clip-rule="nonzero"/></clipPath><clipPath id="edbbb5d8b0"><path d="M 194 155 L 252 155 L 252 178 L 194 178 Z M 194 155 " clip-rule="nonzero"/></clipPath><clipPath id="55d73aa9c9"><path d="M 246 1.453125 L 332 1.453125 L 332 86 L 246 86 Z M 246 1.453125 " clip-rule="nonzero"/></clipPath><clipPath id="db9ff3e84a"><path d="M 371 112 L 428.808594 112 L 428.808594 170 L 371 170 Z M 371 112 " clip-rule="nonzero"/></clipPath><clipPath id="ac29949ab4"><rect x="0" width="429" y="0" height="178"/></clipPath></defs><rect x="-168" width="2016" fill="#ffffff" y="-94.499999" height="1133.999992" fill-opacity="1"/><rect x="-168" width="2016" fill="#19133d" y="-94.499999" height="1133.999992" fill-opacity="1"/><g mask="url(#866fe81d35)"><g transform="matrix(1, 0, 0, 1, 652, -0.000000000000049249)"><g clip-path="url(#a6b6a6453d)"><path fill="#d9d9d9" d="M 392.402344 175.507812 L 309.847656 175.507812 C 290.691406 175.507812 275.101562 159.90625 275.101562 140.738281 L 275.101562 58.136719 C 275.101562 38.96875 290.691406 23.367188 309.847656 23.367188 L 392.402344 23.367188 C 411.5625 23.367188 427.152344 38.96875 427.152344 58.136719 L 427.152344 140.738281 C 427.152344 159.90625 411.5625 175.507812 392.402344 175.507812 Z M 309.847656 27.90625 C 293.199219 27.90625 279.636719 41.460938 279.636719 58.136719 L 279.636719 140.738281 C 279.636719 157.398438 293.183594 170.96875 309.847656 170.96875 L 392.402344 170.96875 C 409.054688 170.96875 422.617188 157.414062 422.617188 140.738281 L 422.617188 58.136719 C 422.617188 41.476562 409.070312 27.90625 392.402344 27.90625 Z M 309.847656 27.90625 " fill-opacity="1" fill-rule="nonzero"/><g clip-path="url(#4295ab7f14)"><path fill="#d9d9d9" d="M 540.085938 1.03125 L 472.167969 1.03125 C 456.1875 1.03125 443.175781 -11.984375 443.175781 -27.972656 L 443.175781 -95.929688 C 443.175781 -111.917969 456.1875 -124.9375 472.167969 -124.9375 L 540.085938 -124.9375 C 556.0625 -124.9375 569.074219 -111.917969 569.074219 -95.929688 L 569.074219 -27.972656 C 569.074219 -11.984375 556.0625 1.03125 540.085938 1.03125 Z M 472.167969 -120.398438 C 458.679688 -120.398438 447.710938 -109.425781 447.710938 -95.945312 L 447.710938 -27.972656 C 447.710938 -14.476562 458.679688 -3.503906 472.167969 -3.503906 L 540.085938 -3.503906 C 553.574219 -3.503906 564.539062 -14.476562 564.539062 -27.972656 L 564.539062 -95.929688 C 564.539062 -109.410156 553.574219 -120.382812 540.085938 -120.382812 L 472.167969 -120.382812 Z M 472.167969 -120.398438 " fill-opacity="1" fill-rule="nonzero"/></g><path fill="#d9d9d9" d="M 220.609375 79.4375 L 191.367188 79.4375 C 183.773438 79.4375 177.59375 73.257812 177.59375 65.660156 L 177.59375 36.398438 C 177.59375 28.800781 183.773438 22.621094 191.367188 22.621094 L 220.609375 22.621094 C 228.207031 22.621094 234.382812 28.800781 234.382812 36.398438 L 234.382812 65.660156 C 234.382812 73.257812 228.207031 79.4375 220.609375 79.4375 Z M 191.367188 27.171875 C 186.277344 27.171875 182.132812 31.324219 182.132812 36.414062 L 182.132812 65.675781 C 182.132812 70.765625 186.277344 74.914062 191.367188 74.914062 L 220.609375 74.914062 C 225.699219 74.914062 229.847656 70.765625 229.847656 65.675781 L 229.847656 36.414062 C 229.847656 31.324219 225.699219 27.171875 220.609375 27.171875 Z M 191.367188 27.171875 " fill-opacity="1" fill-rule="nonzero"/><g clip-path="url(#82c947d2ac)"><path fill="#d9d9d9" d="M 162.289062 233.863281 L 117.601562 233.863281 C 106.648438 233.863281 97.742188 224.953125 97.742188 213.992188 L 97.742188 169.28125 C 97.742188 158.324219 106.648438 149.410156 117.601562 149.410156 L 162.289062 149.410156 C 173.238281 149.410156 182.144531 158.324219 182.144531 169.28125 L 182.144531 213.992188 C 182.132812 224.953125 173.238281 233.863281 162.289062 233.863281 Z M 117.601562 153.964844 C 109.15625 153.964844 102.292969 160.832031 102.292969 169.28125 L 102.292969 213.992188 C 102.292969 222.441406 109.15625 229.3125 117.601562 229.3125 L 162.289062 229.3125 C 170.730469 229.3125 177.59375 222.441406 177.59375 213.992188 L 177.59375 169.28125 C 177.59375 160.832031 170.730469 153.964844 162.289062 153.964844 Z M 117.601562 153.964844 " fill-opacity="1" fill-rule="nonzero"/></g><g clip-path="url(#4fa523b69c)"><path fill="#d9d9d9" d="M 43.253906 122.570312 L 14.007812 122.570312 C 6.414062 122.570312 0.238281 116.386719 0.238281 108.789062 L 0.238281 79.527344 C 0.238281 71.929688 6.414062 65.75 14.007812 65.75 L 43.253906 65.75 C 50.847656 65.75 57.023438 71.929688 57.023438 79.527344 L 57.023438 108.789062 C 57.023438 116.386719 50.847656 122.570312 43.253906 122.570312 Z M 14.007812 70.289062 C 8.921875 70.289062 4.773438 74.4375 4.773438 79.527344 L 4.773438 108.789062 C 4.773438 113.878906 8.921875 118.03125 14.007812 118.03125 L 43.253906 118.03125 C 48.339844 118.03125 52.488281 113.878906 52.488281 108.789062 L 52.488281 79.527344 C 52.488281 74.4375 48.339844 70.289062 43.253906 70.289062 Z M 14.007812 70.289062 " fill-opacity="1" fill-rule="nonzero"/></g></g></g></g><g mask="url(#fe038e022f)"><g transform="matrix(1, 0, 0, 1, 7, 767)"><g clip-path="url(#ac29949ab4)"><g clip-path="url(#161592b23a)"><path fill="#d9d9d9" d="M 36.476562 59.824219 L 119.027344 59.824219 C 138.1875 59.824219 153.777344 75.425781 153.777344 94.59375 L 153.777344 177.195312 C 153.777344 196.363281 138.1875 211.964844 119.027344 211.964844 L 36.476562 211.964844 C 17.316406 211.964844 1.726562 196.363281 1.726562 177.195312 L 1.726562 94.59375 C 1.726562 75.425781 17.316406 59.824219 36.476562 59.824219 Z M 119.027344 207.425781 C 135.679688 207.425781 149.242188 193.871094 149.242188 177.195312 L 149.242188 94.59375 C 149.242188 77.933594 135.695312 64.363281 119.027344 64.363281 L 36.476562 64.363281 C 19.824219 64.363281 6.261719 77.917969 6.261719 94.59375 L 6.261719 177.195312 C 6.261719 193.855469 19.808594 207.425781 36.476562 207.425781 Z M 119.027344 207.425781 " fill-opacity="1" fill-rule="nonzero"/></g><g clip-path="url(#edbbb5d8b0)"><path fill="#d9d9d9" d="M 208.265625 155.890625 L 237.511719 155.890625 C 245.105469 155.890625 251.28125 162.074219 251.28125 169.671875 L 251.28125 198.933594 C 251.28125 206.53125 245.105469 212.710938 237.511719 212.710938 L 208.265625 212.710938 C 200.671875 212.710938 194.496094 206.53125 194.496094 198.933594 L 194.496094 169.671875 C 194.496094 162.074219 200.671875 155.890625 208.265625 155.890625 Z M 237.511719 208.160156 C 242.597656 208.160156 246.746094 204.007812 246.746094 198.917969 L 246.746094 169.65625 C 246.746094 164.566406 242.597656 160.414062 237.511719 160.414062 L 208.265625 160.414062 C 203.179688 160.414062 199.03125 164.566406 199.03125 169.65625 L 199.03125 198.917969 C 199.03125 204.007812 203.179688 208.160156 208.265625 208.160156 Z M 237.511719 208.160156 " fill-opacity="1" fill-rule="nonzero"/></g><g clip-path="url(#55d73aa9c9)"><path fill="#d9d9d9" d="M 266.589844 1.46875 L 311.277344 1.46875 C 322.230469 1.46875 331.136719 10.378906 331.136719 21.339844 L 331.136719 66.050781 C 331.136719 77.007812 322.230469 85.921875 311.277344 85.921875 L 266.589844 85.921875 C 255.640625 85.921875 246.730469 77.007812 246.730469 66.050781 L 246.730469 21.339844 C 246.746094 10.378906 255.640625 1.46875 266.589844 1.46875 Z M 311.277344 81.367188 C 319.722656 81.367188 326.585938 74.5 326.585938 66.050781 L 326.585938 21.339844 C 326.585938 12.886719 319.722656 6.019531 311.277344 6.019531 L 266.589844 6.019531 C 258.144531 6.019531 251.28125 12.886719 251.28125 21.339844 L 251.28125 66.050781 C 251.28125 74.5 258.144531 81.367188 266.589844 81.367188 Z M 311.277344 81.367188 " fill-opacity="1" fill-rule="nonzero"/></g><g clip-path="url(#db9ff3e84a)"><path fill="#d9d9d9" d="M 385.625 112.761719 L 414.867188 112.761719 C 422.464844 112.761719 428.640625 118.945312 428.640625 126.542969 L 428.640625 155.804688 C 428.640625 163.402344 422.464844 169.582031 414.867188 169.582031 L 385.625 169.582031 C 378.03125 169.582031 371.855469 163.402344 371.855469 155.804688 L 371.855469 126.542969 C 371.855469 118.945312 378.03125 112.761719 385.625 112.761719 Z M 414.867188 165.042969 C 419.957031 165.042969 424.105469 160.894531 424.105469 155.804688 L 424.105469 126.542969 C 424.105469 121.453125 419.957031 117.300781 414.867188 117.300781 L 385.625 117.300781 C 380.539062 117.300781 376.390625 121.453125 376.390625 126.542969 L 376.390625 155.804688 C 376.390625 160.894531 380.539062 165.042969 385.625 165.042969 Z M 414.867188 165.042969 " fill-opacity="1" fill-rule="nonzero"/></g></g></g></g></svg>