<svg width="36" height="36" viewBox="0 0 36 36" fill="none" xmlns="http://www.w3.org/2000/svg">
<g id="Iconsax/Linear/calendaradd">
<path id="Vector" d="M12 3V7.5M24 3V7.5M5.25 13.635H30.75M29.235 28.575H24.765M27 26.385V30.87M27 34.5C28.5913 34.5 30.1174 33.8679 31.2426 32.7426C32.3679 31.6174 33 30.0913 33 28.5C33 26.9087 32.3679 25.3826 31.2426 24.2574C30.1174 23.1321 28.5913 22.5 27 22.5C25.4087 22.5 23.8826 23.1321 22.7574 24.2574C21.6321 25.3826 21 26.9087 21 28.5C21 30.0913 21.6321 31.6174 22.7574 32.7426C23.8826 33.8679 25.4087 34.5 27 34.5Z" stroke="white" stroke-width="1.8" stroke-miterlimit="10" stroke-linecap="round" stroke-linejoin="round"/>
<path id="Vector_2" d="M31.5 12.75V24.54C30.405 23.295 28.8 22.5 27 22.5C23.685 22.5 21 25.185 21 28.5C21 29.625 21.315 30.69 21.87 31.59C22.185 32.13 22.59 32.61 23.055 33H12C6.75 33 4.5 30 4.5 25.5V12.75C4.5 8.25 6.75 5.25 12 5.25H24C29.25 5.25 31.5 8.25 31.5 12.75Z" stroke="white" stroke-width="1.5" stroke-miterlimit="10" stroke-linecap="round" stroke-linejoin="round"/>
<path id="Vector_3" d="M17.9924 20.5498H18.0074M12.4409 20.5498H12.4559M12.4409 25.0498H12.4559" stroke="white" stroke-width="2" stroke-linecap="round" stroke-linejoin="round"/>
</g>
</svg>
