<svg width="280" height="264" viewBox="0 0 280 264" fill="none" xmlns="http://www.w3.org/2000/svg">
<g opacity="0.8">
<path d="M-85.3432 -81.3644C-88.8265 -88.0225 -83.9968 -96 -76.4825 -96H307.77C324.339 -96 337.77 -82.5685 337.77 -66V205.064C337.77 209.384 334.997 213.215 330.894 214.564L272.089 233.898C222.572 250.18 169.622 221.121 156.761 170.608L141.082 109.026C130.928 69.1458 95.017 41.2324 53.8642 41.2324H21.1744C-4.8773 41.2324 -28.7738 26.765 -40.8503 3.68143L-85.3432 -81.3644Z" fill="url(#paint0_linear_1167_3382)"/>
<path d="M-45.6172 -96L307.915 -94.2665C324.426 -94.1855 337.768 -80.778 337.768 -64.2668V156.228C337.768 160.549 334.993 164.381 330.888 165.729L297.713 176.622C248.214 192.874 195.298 163.832 182.427 113.348L176.041 88.3037C165.877 48.4373 129.973 20.5388 88.8312 20.5388H73.4991C50.8645 20.5388 29.6269 9.5943 16.4917 -8.83907L-45.6172 -96Z" fill="url(#paint1_linear_1167_3382)"/>
<path d="M-45.6172 -96L307.915 -94.2665C324.426 -94.1855 337.768 -80.778 337.768 -64.2668V156.228C337.768 160.549 334.993 164.381 330.888 165.729L297.713 176.622C248.214 192.874 195.298 163.832 182.427 113.348L176.041 88.3037C165.877 48.4373 129.973 20.5388 88.8312 20.5388H73.4991C50.8645 20.5388 29.6269 9.5943 16.4917 -8.83907L-45.6172 -96Z" fill="url(#paint2_linear_1167_3382)"/>
<path d="M-45.6172 -96L307.915 -94.2665C324.426 -94.1855 337.768 -80.778 337.768 -64.2668V156.228C337.768 160.549 334.993 164.381 330.888 165.729L297.713 176.622C248.214 192.874 195.298 163.832 182.427 113.348L176.041 88.3037C165.877 48.4373 129.973 20.5388 88.8312 20.5388H73.4991C50.8645 20.5388 29.6269 9.5943 16.4917 -8.83907L-45.6172 -96Z" fill="url(#paint3_linear_1167_3382)"/>
<path d="M27.6172 -96L307.33 -94.6285C323.841 -94.5475 337.183 -81.1399 337.183 -64.6288V106.268C337.183 110.589 334.408 114.421 330.303 115.769L316.326 120.358C270.144 135.521 220.686 108.08 208.677 60.9789C199.283 24.1328 166.036 -1.90036 128.011 -1.90036C107.091 -1.90036 87.4625 -12.0157 75.3224 -29.0525L27.6172 -96Z" fill="url(#paint4_linear_1167_3382)"/>
<path d="M27.6172 -96L307.33 -94.6285C323.841 -94.5475 337.183 -81.1399 337.183 -64.6288V106.268C337.183 110.589 334.408 114.421 330.303 115.769L316.326 120.358C270.144 135.521 220.686 108.08 208.677 60.9789C199.283 24.1328 166.036 -1.90036 128.011 -1.90036C107.091 -1.90036 87.4625 -12.0157 75.3224 -29.0525L27.6172 -96Z" fill="url(#paint5_linear_1167_3382)"/>
<path d="M27.6172 -96L307.33 -94.6285C323.841 -94.5475 337.183 -81.1399 337.183 -64.6288V106.268C337.183 110.589 334.408 114.421 330.303 115.769L316.326 120.358C270.144 135.521 220.686 108.08 208.677 60.9789C199.283 24.1328 166.036 -1.90036 128.011 -1.90036C107.091 -1.90036 87.4625 -12.0157 75.3224 -29.0525L27.6172 -96Z" fill="url(#paint6_linear_1167_3382)"/>
</g>
<defs>
<linearGradient id="paint0_linear_1167_3382" x1="-72.1794" y1="-87.5405" x2="386.236" y2="116.66" gradientUnits="userSpaceOnUse">
<stop stop-color="#3840B3"/>
<stop offset="1" stop-color="#7954CA"/>
</linearGradient>
<linearGradient id="paint1_linear_1167_3382" x1="6.79317" y1="-96" x2="374.042" y2="60.3806" gradientUnits="userSpaceOnUse">
<stop stop-color="#3A54CD"/>
<stop offset="1" stop-color="#267AD2"/>
</linearGradient>
<linearGradient id="paint2_linear_1167_3382" x1="6.79317" y1="-96" x2="374.042" y2="60.3806" gradientUnits="userSpaceOnUse">
<stop stop-color="#3A54CD"/>
<stop offset="1" stop-color="#267AD2"/>
</linearGradient>
<linearGradient id="paint3_linear_1167_3382" x1="6.79317" y1="-96" x2="374.042" y2="60.3806" gradientUnits="userSpaceOnUse">
<stop stop-color="#444BC8"/>
<stop offset="1" stop-color="#8662DF"/>
</linearGradient>
<linearGradient id="paint4_linear_1167_3382" x1="69.9361" y1="-96" x2="366.472" y2="30.2701" gradientUnits="userSpaceOnUse">
<stop stop-color="#3A54CD"/>
<stop offset="1" stop-color="#267AD2"/>
</linearGradient>
<linearGradient id="paint5_linear_1167_3382" x1="69.9361" y1="-96" x2="366.472" y2="30.2701" gradientUnits="userSpaceOnUse">
<stop stop-color="#3A54CD"/>
<stop offset="1" stop-color="#267AD2"/>
</linearGradient>
<linearGradient id="paint6_linear_1167_3382" x1="69.9361" y1="-96" x2="366.472" y2="30.2701" gradientUnits="userSpaceOnUse">
<stop stop-color="#5559DB"/>
<stop offset="1" stop-color="#9070EE"/>
</linearGradient>
</defs>
</svg>
