<svg width="36" height="36" viewBox="0 0 36 36" fill="none" xmlns="http://www.w3.org/2000/svg">
<g id="customer service">
<path id="Vector" d="M8.09998 26.1C8.81606 26.1 9.50282 25.8155 10.0092 25.3092C10.5155 24.8028 10.8 24.1161 10.8 23.4V16.2C10.8001 15.4932 10.5231 14.8145 10.0284 14.3097C9.53362 13.8048 8.86066 13.5141 8.15398 13.5C8.37528 11.5206 9.31814 9.69209 10.8024 8.36391C12.2866 7.03572 14.2082 6.30095 16.2 6.30001H19.8C21.7917 6.30095 23.7133 7.03572 25.1976 8.36391C26.6818 9.69209 27.6247 11.5206 27.846 13.5C27.1393 13.5141 26.4663 13.8048 25.9716 14.3097C25.4769 14.8145 25.1998 15.4932 25.2 16.2V23.4C25.1987 24.0889 25.4608 24.7522 25.9327 25.2541C26.4045 25.7561 27.0503 26.0587 27.738 26.1C27.5523 26.6252 27.2087 27.0801 26.7543 27.4024C26.2999 27.7246 25.757 27.8984 25.2 27.9H21.438C21.2257 27.2995 20.8079 26.7934 20.2585 26.4711C19.7092 26.1489 19.0636 26.0312 18.4358 26.1389C17.8081 26.2466 17.2386 26.5727 16.8281 27.0597C16.4176 27.5467 16.1924 28.1631 16.1924 28.8C16.1924 29.4369 16.4176 30.0533 16.8281 30.5403C17.2386 31.0273 17.8081 31.3534 18.4358 31.4611C19.0636 31.5688 19.7092 31.4511 20.2585 31.1289C20.8079 30.8066 21.2257 30.3005 21.438 29.7H25.2C26.2949 29.695 27.3504 29.2911 28.1688 28.5638C28.9872 27.8365 29.5124 26.8357 29.646 25.749C30.4624 25.4053 31.1593 24.8282 31.6492 24.0902C32.1391 23.3521 32.4003 22.4859 32.4 21.6V18C32.4013 17.1233 32.1464 16.2653 31.6668 15.5314C31.1871 14.7975 30.5035 14.2197 29.7 13.869C29.5639 11.3365 28.4612 8.95273 26.6191 7.20946C24.777 5.46619 22.3362 4.49636 19.8 4.50001H16.2C13.6638 4.49636 11.2229 5.46619 9.38086 7.20946C7.53879 8.95273 6.43601 11.3365 6.29998 13.869C5.49644 14.2197 4.81284 14.7975 4.33318 15.5314C3.85352 16.2653 3.59868 17.1233 3.59998 18V21.6C3.59998 22.7935 4.07409 23.9381 4.918 24.782C5.76191 25.6259 6.9065 26.1 8.09998 26.1ZM18.9 29.7C18.722 29.7 18.548 29.6472 18.4 29.5483C18.252 29.4494 18.1366 29.3089 18.0685 29.1444C18.0004 28.98 17.9825 28.799 18.0173 28.6244C18.052 28.4498 18.1377 28.2895 18.2636 28.1636C18.3894 28.0377 18.5498 27.952 18.7244 27.9173C18.899 27.8826 19.0799 27.9004 19.2444 27.9685C19.4088 28.0366 19.5494 28.152 19.6483 28.3C19.7472 28.448 19.8 28.622 19.8 28.8C19.8 29.0387 19.7052 29.2676 19.5364 29.4364C19.3676 29.6052 19.1387 29.7 18.9 29.7ZM30.6 18V21.6C30.6 22.3161 30.3155 23.0028 29.8092 23.5092C29.3028 24.0155 28.6161 24.3 27.9 24.3C27.6613 24.3 27.4324 24.2052 27.2636 24.0364C27.0948 23.8676 27 23.6387 27 23.4V16.2C27 15.9613 27.0948 15.7324 27.2636 15.5636C27.4324 15.3948 27.6613 15.3 27.9 15.3C28.6161 15.3 29.3028 15.5845 29.8092 16.0908C30.3155 16.5972 30.6 17.2839 30.6 18ZM5.39998 18C5.39998 17.2839 5.68444 16.5972 6.19079 16.0908C6.69714 15.5845 7.38389 15.3 8.09998 15.3C8.33867 15.3 8.56759 15.3948 8.73637 15.5636C8.90516 15.7324 8.99998 15.9613 8.99998 16.2V23.4C8.99998 23.6387 8.90516 23.8676 8.73637 24.0364C8.56759 24.2052 8.33867 24.3 8.09998 24.3C7.38389 24.3 6.69714 24.0155 6.19079 23.5092C5.68444 23.0028 5.39998 22.3161 5.39998 21.6V18Z" fill="url(#paint0_linear_8733_355)"/>
</g>
<defs>
<linearGradient id="paint0_linear_8733_355" x1="5.99988" y1="6" x2="31.9999" y2="31" gradientUnits="userSpaceOnUse">
<stop stop-color="#4140AA"/>
<stop offset="1" stop-color="#B753C7"/>
</linearGradient>
</defs>
</svg>
