<svg width="36" height="36" viewBox="0 0 36 36" fill="none" xmlns="http://www.w3.org/2000/svg">
<g id="customer service">
<path id="Vector" d="M8.1001 26.1C8.81618 26.1 9.50294 25.8155 10.0093 25.3092C10.5156 24.8028 10.8001 24.1161 10.8001 23.4V16.2C10.8002 15.4932 10.5232 14.8145 10.0285 14.3097C9.53375 13.8048 8.86079 13.5141 8.1541 13.5C8.37541 11.5206 9.31826 9.69209 10.8025 8.36391C12.2868 7.03572 14.2083 6.30095 16.2001 6.30001H19.8001C21.7918 6.30095 23.7134 7.03572 25.1977 8.36391C26.6819 9.69209 27.6248 11.5206 27.8461 13.5C27.1394 13.5141 26.4664 13.8048 25.9717 14.3097C25.477 14.8145 25.1999 15.4932 25.2001 16.2V23.4C25.1989 24.0889 25.461 24.7522 25.9328 25.2541C26.4046 25.7561 27.0504 26.0587 27.7381 26.1C27.5524 26.6252 27.2088 27.0801 26.7544 27.4024C26.3001 27.7246 25.7571 27.8984 25.2001 27.9H21.4381C21.2258 27.2995 20.808 26.7934 20.2587 26.4711C19.7093 26.1489 19.0637 26.0312 18.4359 26.1389C17.8082 26.2466 17.2387 26.5727 16.8282 27.0597C16.4177 27.5467 16.1925 28.1631 16.1925 28.8C16.1925 29.4369 16.4177 30.0533 16.8282 30.5403C17.2387 31.0273 17.8082 31.3534 18.4359 31.4611C19.0637 31.5688 19.7093 31.4511 20.2587 31.1289C20.808 30.8066 21.2258 30.3005 21.4381 29.7H25.2001C26.295 29.695 27.3505 29.2911 28.1689 28.5638C28.9873 27.8365 29.5125 26.8357 29.6461 25.749C30.4625 25.4053 31.1594 24.8282 31.6493 24.0902C32.1392 23.3521 32.4004 22.4859 32.4001 21.6V18C32.4014 17.1233 32.1466 16.2653 31.6669 15.5314C31.1872 14.7975 30.5036 14.2197 29.7001 13.869C29.5641 11.3365 28.4613 8.95273 26.6192 7.20946C24.7771 5.46619 22.3363 4.49636 19.8001 4.50001H16.2001C13.6639 4.49636 11.2231 5.46619 9.38099 7.20946C7.53891 8.95273 6.43613 11.3365 6.3001 13.869C5.49656 14.2197 4.81296 14.7975 4.3333 15.5314C3.85364 16.2653 3.5988 17.1233 3.6001 18V21.6C3.6001 22.7935 4.07421 23.9381 4.91812 24.782C5.76203 25.6259 6.90663 26.1 8.1001 26.1ZM18.9001 29.7C18.7221 29.7 18.5481 29.6472 18.4001 29.5483C18.2521 29.4494 18.1367 29.3089 18.0686 29.1444C18.0005 28.98 17.9827 28.799 18.0174 28.6244C18.0521 28.4498 18.1378 28.2895 18.2637 28.1636C18.3896 28.0377 18.5499 27.952 18.7245 27.9173C18.8991 27.8826 19.0801 27.9004 19.2445 27.9685C19.409 28.0366 19.5495 28.152 19.6484 28.3C19.7473 28.448 19.8001 28.622 19.8001 28.8C19.8001 29.0387 19.7053 29.2676 19.5365 29.4364C19.3677 29.6052 19.1388 29.7 18.9001 29.7ZM30.6001 18V21.6C30.6001 22.3161 30.3156 23.0028 29.8093 23.5092C29.3029 24.0155 28.6162 24.3 27.9001 24.3C27.6614 24.3 27.4325 24.2052 27.2637 24.0364C27.0949 23.8676 27.0001 23.6387 27.0001 23.4V16.2C27.0001 15.9613 27.0949 15.7324 27.2637 15.5636C27.4325 15.3948 27.6614 15.3 27.9001 15.3C28.6162 15.3 29.3029 15.5845 29.8093 16.0908C30.3156 16.5972 30.6001 17.2839 30.6001 18ZM5.4001 18C5.4001 17.2839 5.68456 16.5972 6.19091 16.0908C6.69726 15.5845 7.38402 15.3 8.1001 15.3C8.3388 15.3 8.56771 15.3948 8.7365 15.5636C8.90528 15.7324 9.0001 15.9613 9.0001 16.2V23.4C9.0001 23.6387 8.90528 23.8676 8.7365 24.0364C8.56771 24.2052 8.3388 24.3 8.1001 24.3C7.38402 24.3 6.69726 24.0155 6.19091 23.5092C5.68456 23.0028 5.4001 22.3161 5.4001 21.6V18Z" fill="white"/>
</g>
</svg>
