<svg width="21" height="14" viewBox="0 0 21 14" fill="none" xmlns="http://www.w3.org/2000/svg">
<path opacity="0.7" d="M7.45201 1.29494C5.88831 2.67946 5.10646 4.43048 5.10646 6.54799L5.15532 7.20768C6.99593 7.58232 7.91623 8.69808 7.91623 10.555C7.91623 11.5649 7.55788 12.3956 6.84119 13.0471C6.14078 13.6824 5.27749 14 4.25131 14C2.94823 14 1.9139 13.5113 1.14834 12.534C0.382781 11.5404 0 10.2618 0 8.69808C0 6.61315 0.700407 4.73996 2.10122 3.07853C3.51832 1.40081 5.30192 0.374636 7.45201 0V1.29494ZM19.9127 1.29494C18.349 2.67946 17.5672 4.43048 17.5672 6.54799L17.6161 7.20768C19.4404 7.56603 20.3525 8.68179 20.3525 10.555C20.3525 11.5649 20.0023 12.3956 19.3019 13.0471C18.6015 13.6824 17.7382 14 16.712 14C15.409 14 14.3746 13.5195 13.6091 12.5585C12.8435 11.5974 12.4607 10.3106 12.4607 8.69808C12.4607 6.6783 13.153 4.82141 14.5375 3.1274C15.9383 1.4171 17.7301 0.374636 19.9127 0V1.29494Z" fill="white"/>
</svg>
