<svg width="40" height="40" viewBox="0 0 40 40" fill="none" xmlns="http://www.w3.org/2000/svg">
<path d="M20 4.15625C28.75 4.15625 35.8438 11.25 35.8438 20C35.8438 28.75 28.75 35.8437 20 35.8437C11.25 35.8437 4.15626 28.75 4.15626 20C4.15626 11.25 11.25 4.15625 20 4.15625ZM20 34.3437C27.9063 34.3437 34.3438 27.9062 34.3438 20C34.3438 12.0937 27.9063 5.65625 20 5.65625C12.0938 5.65625 5.65625 12.0937 5.65625 20C5.65625 27.9062 12.0938 34.3437 20 34.3437Z" fill="#6169E4"/>
<path d="M12.4688 19.25H25.7187L20.9687 14.5C20.6875 14.2188 20.6875 13.7187 20.9687 13.4375C21.25 13.1562 21.75 13.1562 22.0312 13.4375L28.0938 19.4687C28.1563 19.5312 28.2188 19.625 28.25 19.7187C28.3125 19.9062 28.3125 20.125 28.25 20.2812C28.2188 20.375 28.1563 20.4687 28.0938 20.5312L22.0312 26.5625C21.875 26.7187 21.6875 26.7812 21.5 26.7812C21.3125 26.7812 21.125 26.7187 20.9687 26.5625C20.6875 26.2812 20.6875 25.7812 20.9687 25.5L25.7187 20.75H12.4375C12.0312 20.75 11.6875 20.4062 11.6875 20C11.6875 19.5937 12.0312 19.25 12.4688 19.25Z" fill="#6169E4"/>
</svg>
