<svg width="40" height="40" viewBox="0 0 40 40" fill="none" xmlns="http://www.w3.org/2000/svg">
<path d="M20 4.15625C11.25 4.15625 4.15625 11.25 4.15625 20C4.15625 28.75 11.25 35.8437 20 35.8437C28.75 35.8437 35.8437 28.75 35.8437 20C35.8437 11.25 28.75 4.15625 20 4.15625ZM20 34.3437C12.0937 34.3437 5.65625 27.9062 5.65625 20C5.65625 12.0937 12.0937 5.65625 20 5.65625C27.9062 5.65625 34.3437 12.0937 34.3437 20C34.3437 27.9062 27.9062 34.3437 20 34.3437Z" fill="#6169E4"/>
<path d="M27.5312 19.25H14.2813L19.0313 14.5C19.3125 14.2188 19.3125 13.7187 19.0313 13.4375C18.75 13.1562 18.25 13.1562 17.9688 13.4375L11.9062 19.4687C11.8437 19.5312 11.7812 19.625 11.75 19.7187C11.6875 19.9062 11.6875 20.125 11.75 20.2812C11.7812 20.375 11.8437 20.4687 11.9062 20.5312L17.9688 26.5625C18.125 26.7187 18.3125 26.7812 18.5 26.7812C18.6875 26.7812 18.875 26.7187 19.0313 26.5625C19.3125 26.2812 19.3125 25.7812 19.0313 25.5L14.2813 20.75H27.5625C27.9688 20.75 28.3125 20.4062 28.3125 20C28.3125 19.5937 27.9688 19.25 27.5312 19.25Z" fill="#6169E4"/>
</svg>
