<svg width="16" height="16" viewBox="0 0 16 16" fill="none" xmlns="http://www.w3.org/2000/svg">
<path d="M14.6673 14.6667L13.334 13.3334M7.66732 14C8.49902 14 9.32258 13.8362 10.091 13.5179C10.8594 13.1997 11.5576 12.7332 12.1457 12.145C12.7338 11.5569 13.2003 10.8588 13.5186 10.0904C13.8368 9.32197 14.0007 8.49841 14.0007 7.66671C14.0007 6.835 13.8368 6.01144 13.5186 5.24305C13.2003 4.47465 12.7338 3.77647 12.1457 3.18836C11.5576 2.60026 10.8594 2.13375 10.091 1.81547C9.32258 1.49719 8.49902 1.33337 7.66732 1.33337C5.98761 1.33337 4.3767 2.00063 3.18897 3.18836C2.00124 4.37609 1.33398 5.987 1.33398 7.66671C1.33398 9.34641 2.00124 10.9573 3.18897 12.145C4.3767 13.3328 5.98761 14 7.66732 14Z" stroke="#6169E4" stroke-width="1.5" stroke-linecap="round" stroke-linejoin="round"/>
</svg>
