<svg width="36" height="36" viewBox="0 0 36 36" fill="none" xmlns="http://www.w3.org/2000/svg">
<g id="Iconsax/Linear/like">
<path id="Vector" d="M27 28.2897H25.86C24.66 28.2897 23.52 28.7546 22.68 29.5946L20.115 32.1297C18.945 33.2847 17.04 33.2847 15.87 32.1297L13.305 29.5946C12.465 28.7546 11.31 28.2897 10.125 28.2897H9C6.51 28.2897 4.5 26.2947 4.5 23.8347V7.46965C4.5 5.00965 6.51 3.01465 9 3.01465H27C29.49 3.01465 31.5 5.00965 31.5 7.46965V23.8347C31.5 26.2797 29.49 28.2897 27 28.2897Z" stroke="url(#paint0_linear_604_1851)" stroke-width="1.8" stroke-miterlimit="10" stroke-linecap="round" stroke-linejoin="round"/>
<path id="Vector_2" d="M18.42 22.44C18.195 22.515 17.82 22.515 17.58 22.44C15.63 21.765 11.25 18.99 11.25 14.265C11.25 12.18 12.93 10.5 15 10.5C16.23 10.5 17.31 11.085 18 12C18.69 11.085 19.77 10.5 21 10.5C23.07 10.5 24.75 12.18 24.75 14.265C24.735 18.99 20.37 21.765 18.42 22.44Z" stroke="url(#paint1_linear_604_1851)" stroke-width="1.8" stroke-linecap="round" stroke-linejoin="round"/>
</g>
<defs>
<linearGradient id="paint0_linear_604_1851" x1="18" y1="-0.5" x2="18" y2="32.9959" gradientUnits="userSpaceOnUse">
<stop/>
<stop offset="0.0001" stop-color="#4E43AE"/>
<stop offset="1" stop-color="#A851C5"/>
</linearGradient>
<linearGradient id="paint1_linear_604_1851" x1="18" y1="1" x2="18" y2="22.4963" gradientUnits="userSpaceOnUse">
<stop/>
<stop offset="0.0001" stop-color="#4E43AE"/>
<stop offset="1" stop-color="#A851C5"/>
</linearGradient>
</defs>
</svg>
