<svg width="282" height="180" viewBox="0 0 282 180" fill="none" xmlns="http://www.w3.org/2000/svg">
<g opacity="0.7">
<path d="M10.7198 15.6509C6.17428 9.01445 10.9262 0 18.9701 0H251.984C268.553 0 281.984 13.4315 281.984 30V146.352C281.984 150.937 278.867 154.934 274.42 156.051L243.124 163.911C206.985 172.987 169.955 152.686 158.172 117.337C148.474 88.2412 121.245 68.6162 90.5763 68.6162H81.4197C59.8765 68.6162 39.7195 57.9905 27.5457 40.2167L10.7198 15.6509Z" fill="url(#paint0_linear_4753_1305)"/>
<path d="M31.0183 0L252.097 0.828009C268.621 0.889899 281.984 14.3031 281.984 30.8278V122.138C281.984 126.603 278.947 130.497 274.615 131.583L249.401 137.906C219.198 145.481 188.256 128.519 178.397 98.9828C170.281 74.6671 147.52 58.2694 121.886 58.2694H110.748C94.5663 58.2694 79.1112 51.5513 68.073 39.7193L31.0183 0Z" fill="url(#paint1_linear_4753_1305)"/>
<path d="M31.0183 0L252.097 0.828009C268.621 0.889899 281.984 14.3031 281.984 30.8278V122.138C281.984 126.603 278.947 130.497 274.615 131.583L249.401 137.906C219.198 145.481 188.256 128.519 178.397 98.9828C170.281 74.6671 147.52 58.2694 121.886 58.2694H110.748C94.5663 58.2694 79.1112 51.5513 68.073 39.7193L31.0183 0Z" fill="url(#paint2_linear_4753_1305)"/>
<path d="M31.0183 0L252.097 0.828009C268.621 0.889899 281.984 14.3031 281.984 30.8278V122.138C281.984 126.603 278.947 130.497 274.615 131.583L249.401 137.906C219.198 145.481 188.256 128.519 178.397 98.9828C170.281 74.6671 147.52 58.2694 121.886 58.2694H110.748C94.5663 58.2694 79.1112 51.5513 68.073 39.7193L31.0183 0Z" fill="url(#paint3_linear_4753_1305)"/>
<path d="M78.9556 0L251.711 0.647025C268.236 0.708915 281.599 14.1221 281.599 30.6468V98.6206C281.599 102.226 279.146 105.37 275.649 106.247L255.29 111.353C230.902 117.469 205.918 103.773 197.957 79.924C191.404 60.2902 173.026 47.0498 152.327 47.0498H143.333C130.268 47.0498 117.788 41.6253 108.876 32.0715L78.9556 0Z" fill="url(#paint4_linear_4753_1305)"/>
<path d="M78.9556 0L251.711 0.647025C268.236 0.708915 281.599 14.1221 281.599 30.6468V98.6206C281.599 102.226 279.146 105.37 275.649 106.247L255.29 111.353C230.902 117.469 205.918 103.773 197.957 79.924C191.404 60.2902 173.026 47.0498 152.327 47.0498H143.333C130.268 47.0498 117.788 41.6253 108.876 32.0715L78.9556 0Z" fill="url(#paint5_linear_4753_1305)"/>
<path d="M78.9556 0L251.711 0.647025C268.236 0.708915 281.599 14.1221 281.599 30.6468V98.6206C281.599 102.226 279.146 105.37 275.649 106.247L255.29 111.353C230.902 117.469 205.918 103.773 197.957 79.924C191.404 60.2902 173.026 47.0498 152.327 47.0498H143.333C130.268 47.0498 117.788 41.6253 108.876 32.0715L78.9556 0Z" fill="url(#paint6_linear_4753_1305)"/>
</g>
<defs>
<linearGradient id="paint0_linear_4753_1305" x1="13.6293" y1="4.22975" x2="281.984" y2="160.731" gradientUnits="userSpaceOnUse">
<stop stop-color="#3840B3"/>
<stop offset="1" stop-color="#7954CA"/>
</linearGradient>
<linearGradient id="paint1_linear_4753_1305" x1="65.3264" y1="-3.01227e-06" x2="281.984" y2="120.783" gradientUnits="userSpaceOnUse">
<stop stop-color="#3A54CD"/>
<stop offset="1" stop-color="#267AD2"/>
</linearGradient>
<linearGradient id="paint2_linear_4753_1305" x1="65.3264" y1="-3.01227e-06" x2="281.984" y2="120.783" gradientUnits="userSpaceOnUse">
<stop stop-color="#3A54CD"/>
<stop offset="1" stop-color="#267AD2"/>
</linearGradient>
<linearGradient id="paint3_linear_4753_1305" x1="65.3264" y1="-3.01227e-06" x2="281.984" y2="120.783" gradientUnits="userSpaceOnUse">
<stop stop-color="#444BC8"/>
<stop offset="1" stop-color="#8662DF"/>
</linearGradient>
<linearGradient id="paint4_linear_4753_1305" x1="106.658" y1="-2.43227e-06" x2="281.599" y2="97.5269" gradientUnits="userSpaceOnUse">
<stop stop-color="#3A54CD"/>
<stop offset="1" stop-color="#267AD2"/>
</linearGradient>
<linearGradient id="paint5_linear_4753_1305" x1="106.658" y1="-2.43227e-06" x2="281.599" y2="97.5269" gradientUnits="userSpaceOnUse">
<stop stop-color="#3A54CD"/>
<stop offset="1" stop-color="#267AD2"/>
</linearGradient>
<linearGradient id="paint6_linear_4753_1305" x1="106.658" y1="-2.43227e-06" x2="281.599" y2="97.5269" gradientUnits="userSpaceOnUse">
<stop stop-color="#5559DB"/>
<stop offset="1" stop-color="#9070EE"/>
</linearGradient>
</defs>
</svg>
