<svg width="30" height="22" viewBox="0 0 30 22" fill="none" xmlns="http://www.w3.org/2000/svg">
<g id="Youtube" clip-path="url(#clip0_604_1843)">
<path id="Vector" d="M19.9836 10.2294C17.233 8.75941 14.5992 7.40802 11.907 5.99707V14.4377C14.74 12.8976 17.7261 11.4872 19.9953 10.2294H19.9836Z" fill="white"/>
<path id="Vector_2" d="M19.9836 10.2294C17.233 8.75941 11.907 5.99707 11.907 5.99707L19.0079 10.7698C19.0079 10.7698 17.7144 11.4872 19.9836 10.2294Z" fill="#E8E0E0"/>
<path id="Vector_3" d="M12.4246 21.0454C6.71126 20.9402 4.75987 20.8456 3.56042 20.5984C2.74892 20.4342 2.04372 20.0697 1.52666 19.5409C1.12703 19.1407 0.809215 18.5302 0.562647 17.683C0.351145 16.9773 0.26877 16.3901 0.15133 14.9558C-0.0284474 11.7187 -0.0713046 9.07209 0.15133 6.11494C0.335004 4.48192 0.424057 2.54333 1.64409 1.41234C2.22016 0.88303 2.89029 0.542399 3.6428 0.401582C4.81831 0.178391 9.82647 0.00195312 15.0111 0.00195312C20.184 0.00195312 25.2033 0.178391 26.3799 0.401582C27.32 0.57802 28.2016 1.10678 28.7192 1.7886C29.8324 3.53962 29.8519 5.71698 29.9649 7.42014C30.0116 8.23164 30.0116 12.8396 29.9649 13.6511C29.789 16.3428 29.6476 17.2951 29.248 18.2825C29.0009 18.9059 28.7899 19.2348 28.4248 19.5994C27.8522 20.1604 27.1221 20.5335 26.332 20.6691C21.3879 21.0409 17.1896 21.1216 12.4246 21.0454ZM19.9959 10.2298C17.2452 8.75984 14.6114 7.39676 11.9192 5.98581V14.427C14.7523 12.8869 17.7389 11.476 20.0075 10.2181L19.9959 10.2298Z" fill="#CD201F"/>
</g>
<defs>
<clipPath id="clip0_604_1843">
<rect width="30" height="22" fill="white"/>
</clipPath>
</defs>
</svg>
