<svg width="162" height="40" viewBox="0 0 162 40" fill="none" xmlns="http://www.w3.org/2000/svg">
<path d="M33.6136 22.9094C36.9254 22.9094 41.7172 22.2264 41.7172 18.2871C41.7271 17.9831 41.6995 17.679 41.6351 17.3817L39.6628 8.81487C39.2075 6.92995 38.8077 6.07485 35.4985 4.42025C32.9306 3.10716 27.3367 0.938965 25.6821 0.938965C24.1413 0.938965 23.6939 2.92449 21.8566 2.92449C20.0882 2.92449 18.7751 1.44196 17.1205 1.44196C15.5321 1.44196 14.497 2.52474 13.6975 4.75117C13.6975 4.75117 11.471 11.0307 11.1851 11.9414C11.1397 12.1086 11.12 12.2818 11.1269 12.455C11.1269 14.8959 20.7368 22.8989 33.6136 22.8989M42.2255 19.8862C42.6835 22.0543 42.6835 22.282 42.6835 22.5679C42.6835 26.2742 38.5165 28.3312 33.0391 28.3312C20.66 28.3392 9.81643 21.0854 9.81643 16.291C9.81571 15.6237 9.95176 14.9633 10.2162 14.3505C5.76331 14.5729 0 15.3671 0 20.4553C0 28.7892 19.7467 39.061 35.382 39.061C47.3693 39.061 50.3926 33.6392 50.3926 29.3584C50.3926 25.991 47.4805 22.1682 42.2308 19.8862" fill="#EE0000"/>
<path d="M42.2254 19.886C42.6834 22.0542 42.6834 22.2819 42.6834 22.5678C42.6834 26.2741 38.5165 28.3311 33.0391 28.3311C20.66 28.3391 9.81641 21.0853 9.81641 16.2909C9.81569 15.6236 9.95174 14.9631 10.2162 14.3504L11.1851 11.9519C11.1407 12.1157 11.1211 12.2853 11.1269 12.4549C11.1269 14.8958 20.7368 22.8987 33.6136 22.8987C36.9254 22.8987 41.7171 22.2157 41.7171 18.2764C41.727 17.9724 41.6995 17.6683 41.6351 17.371L42.2254 19.886ZM153.346 25.374C153.346 28.5217 155.239 30.0519 158.691 30.0519C159.754 30.0255 160.81 29.8762 161.839 29.6072V25.9564C161.181 26.1648 160.495 26.2684 159.805 26.2635C158.384 26.2635 157.857 25.8188 157.857 24.4819V18.888H161.976V15.1287H157.857V10.3635L153.356 11.3377V15.1287H150.368V18.888H153.346V25.374ZM139.315 25.4587C139.315 24.4845 140.292 24.0106 141.766 24.0106C142.668 24.0159 143.565 24.1278 144.44 24.3442V26.2371C143.578 26.708 142.608 26.9479 141.626 26.9333C140.181 26.9333 139.315 26.3774 139.315 25.4587ZM140.691 30.1075C142.28 30.1075 143.561 29.7739 144.758 28.9665V29.8587H149.211V20.4182C149.211 16.8283 146.791 14.8587 142.754 14.8587C140.498 14.8587 138.269 15.3882 135.871 16.4736L137.486 19.7881C139.212 19.0627 140.662 18.6179 141.941 18.6179C143.794 18.6179 144.753 19.3407 144.753 20.8179V21.5406C143.662 21.2582 142.539 21.1176 141.412 21.1224C137.623 21.1224 135.341 22.7108 135.341 25.5514C135.341 28.1405 137.401 30.1155 140.686 30.1155L140.691 30.1075ZM116.214 29.8666H121.003V22.229H129.022V29.8587H133.824V10.3688H129.04V17.8582H121.022V10.3688H116.233L116.214 29.8666ZM97.9842 22.4805C97.9842 20.3626 99.6547 18.7477 101.855 18.7477C102.999 18.7245 104.111 19.1327 104.968 19.8913V25.0405C104.553 25.4329 104.064 25.7393 103.529 25.9419C102.995 26.1446 102.426 26.2395 101.855 26.2212C99.6838 26.2212 97.9842 24.6063 97.9842 22.491V22.4805ZM105.029 29.8692H109.484V9.39453L104.984 10.3688V15.9097C103.838 15.2602 102.542 14.9242 101.225 14.9355C96.9385 14.9355 93.5684 18.2473 93.5684 22.4805C93.5561 23.4737 93.7418 24.4595 94.1146 25.3802C94.4874 26.3009 95.0399 27.1381 95.7398 27.8429C96.4397 28.5478 97.273 29.1061 98.1911 29.4854C99.1092 29.8647 100.094 30.0573 101.087 30.0519C102.507 30.0587 103.892 29.6106 105.039 28.7732L105.029 29.8692ZM84.5833 18.5438C86.0023 18.5438 87.1989 19.4625 87.6727 20.8814H81.5309C81.9756 19.4175 83.0902 18.5438 84.5833 18.5438ZM76.9933 22.5149C76.9933 26.8036 80.501 30.1446 85.0095 30.1446C87.4874 30.1446 89.2982 29.4748 91.1646 27.9155L88.1837 25.2681C87.4874 25.9935 86.4576 26.3827 85.2345 26.3827C84.4654 26.4043 83.7078 26.1926 83.0613 25.7753C82.4149 25.3581 81.9099 24.7548 81.6129 24.045H92.1097V22.9252C92.1097 18.2473 88.9647 14.8799 84.6759 14.8799C83.6678 14.8647 82.6667 15.0512 81.7317 15.4285C80.7967 15.8057 79.9465 16.3662 79.2312 17.0768C78.5159 17.7874 77.9499 18.6338 77.5665 19.5664C77.1831 20.4989 76.99 21.4987 76.9986 22.5069L76.9933 22.5149ZM69.2286 14.4616C70.817 14.4616 71.7065 15.4623 71.7065 16.6615C71.7065 17.8608 70.817 18.8615 69.2286 18.8615H64.4924V14.4616H69.2286ZM59.698 29.8587H64.4871V22.7584H68.1325L71.8097 29.8587H77.1706L72.8819 22.0622C73.9718 21.6189 74.9042 20.8597 75.559 19.8821C76.2139 18.9046 76.5613 17.7534 76.5565 16.5768C76.5565 13.0691 73.8006 10.3688 69.6733 10.3688H59.698V29.8587Z" fill="black"/>
</svg>
