<svg width="110" height="110" viewBox="0 0 110 110" fill="none" xmlns="http://www.w3.org/2000/svg">
<circle cx="55" cy="55" r="55" fill="#F6F7FE"/>
<path d="M42.5 50.7812C39.9153 50.7812 37.8125 52.4631 37.8125 54.5312C37.8125 54.7799 37.9113 55.0183 38.0871 55.1942C38.2629 55.37 38.5014 55.4688 38.75 55.4688C38.9986 55.4688 39.2371 55.37 39.4129 55.1942C39.5887 55.0183 39.6875 54.7799 39.6875 54.5312C39.6875 53.515 40.9756 52.6562 42.5 52.6562C44.0244 52.6562 45.3125 53.515 45.3125 54.5312C45.3125 54.7799 45.4113 55.0183 45.5871 55.1942C45.7629 55.37 46.0014 55.4688 46.25 55.4688C46.4986 55.4688 46.7371 55.37 46.9129 55.1942C47.0887 55.0183 47.1875 54.7799 47.1875 54.5312C47.1875 52.4631 45.0847 50.7812 42.5 50.7812ZM77.3272 37.5325C77.1578 37.1606 77.0559 36.7616 77.0263 36.3541C77.0189 35.8912 76.9181 35.4345 76.7298 35.0116C76.5414 34.5887 76.2695 34.2082 75.9303 33.8931C75.5274 33.6701 75.0837 33.5303 74.6257 33.482C74.1677 33.4336 73.7047 33.4778 73.2641 33.6119C72.8592 33.7095 72.4402 33.7346 72.0266 33.6859C71.6861 33.4885 71.3815 33.2349 71.1256 32.9359C70.8415 32.5599 70.4849 32.2447 70.0768 32.0088C69.6688 31.7729 69.2177 31.6211 68.75 31.5625C68.2827 31.6206 67.8318 31.7716 67.4238 32.0067C67.0158 32.2417 66.659 32.5561 66.3744 32.9313C66.1185 33.2302 65.8139 33.4838 65.4734 33.6813C65.0598 33.7309 64.6407 33.7058 64.2359 33.6072C63.7953 33.4731 63.3323 33.429 62.8743 33.4773C62.4163 33.5256 61.9726 33.6654 61.5697 33.8884C61.2305 34.2035 60.9586 34.584 60.7703 35.0069C60.5819 35.4298 60.4811 35.8865 60.4738 36.3494C60.4438 36.7569 60.3419 37.1559 60.1728 37.5278C59.8725 37.7981 59.5273 38.0138 59.1528 38.1653C58.7093 38.3149 58.3008 38.553 57.9522 38.8654C57.6036 39.1777 57.3222 39.5577 57.125 39.9822C57.038 40.4294 57.0421 40.8896 57.1371 41.3352C57.2322 41.7807 57.4162 42.2025 57.6781 42.5753C57.9034 42.9353 58.061 43.3334 58.1431 43.75C58.0621 44.1664 57.9058 44.5644 57.6819 44.9247C57.4199 45.2975 57.2359 45.7193 57.1409 46.1648C57.0458 46.6104 57.0417 47.0706 57.1288 47.5178C57.326 47.9411 57.6071 48.3199 57.955 48.6314C58.3029 48.9429 58.7104 49.1806 59.1528 49.33C59.5275 49.4812 59.8727 49.6969 60.1728 49.9675C60.3422 50.3394 60.4441 50.7384 60.4738 51.1459C60.481 51.6089 60.582 52.0657 60.7705 52.4886C60.959 52.9115 61.2312 53.2919 61.5706 53.6069C61.9732 53.83 62.4165 53.9698 62.8743 54.0181C63.332 54.0664 63.7947 54.0222 64.235 53.8881C64.6401 53.7901 65.0595 53.765 65.4734 53.8141C65.8139 54.0115 66.1185 54.2651 66.3744 54.5641C66.6585 54.9401 67.0152 55.2553 67.4232 55.4912C67.8312 55.7271 68.2824 55.8789 68.75 55.9375C69.2173 55.8794 69.6682 55.7284 70.0762 55.4933C70.4842 55.2583 70.841 54.9439 71.1256 54.5688C71.3815 54.2698 71.6861 54.0162 72.0266 53.8188C72.4402 53.7696 72.8593 53.7946 73.2641 53.8928C73.7047 54.0269 74.1677 54.071 74.6257 54.0227C75.0837 53.9744 75.5274 53.8346 75.9303 53.6116C76.2695 53.2964 76.5414 52.916 76.7298 52.4931C76.9181 52.0702 77.0189 51.6135 77.0263 51.1506C77.0559 50.7431 77.1578 50.3441 77.3272 49.9722C77.6273 49.7021 77.9721 49.4864 78.3463 49.3347C78.7888 49.1853 79.1964 48.9476 79.5445 48.6361C79.8925 48.3246 80.1738 47.9458 80.3713 47.5225C80.4583 47.0753 80.4542 46.6151 80.3591 46.1695C80.2641 45.724 80.0801 45.3021 79.8181 44.9294C79.5937 44.5677 79.4374 44.168 79.3569 43.75C79.4379 43.3336 79.5942 42.9356 79.8181 42.5753C80.0801 42.2025 80.2641 41.7807 80.3591 41.3352C80.4542 40.8896 80.4583 40.4294 80.3713 39.9822C80.174 39.5589 79.8929 39.1801 79.545 38.8686C79.1971 38.5571 78.7896 38.3194 78.3472 38.17C77.9725 38.0188 77.6273 37.8031 77.3272 37.5325ZM78.5938 40.5625C78.6547 40.75 78.3425 41.3528 78.1559 41.7147C77.7733 42.3302 77.5423 43.0278 77.4819 43.75C77.5411 44.4712 77.7705 45.1681 78.1513 45.7834C78.3388 46.1453 78.65 46.75 78.5891 46.9356C78.5188 47.1484 77.9122 47.4513 77.5109 47.6519C76.8563 47.9132 76.274 48.328 75.8131 48.8612C75.4446 49.4682 75.2252 50.1538 75.1728 50.8619C75.1053 51.2997 75.0041 51.9616 74.8278 52.09C74.4074 52.1638 73.9759 52.1456 73.5631 52.0366C72.8682 51.8702 72.144 51.8683 71.4481 52.0309C70.806 52.2986 70.2376 52.7166 69.7906 53.2497C69.4531 53.5938 68.9909 54.0625 68.75 54.0625C68.5091 54.0625 68.0469 53.5938 67.7094 53.2516C67.2625 52.7184 66.694 52.3005 66.0519 52.0328C65.7692 51.9448 65.4742 51.9024 65.1781 51.9072C64.7616 51.9183 64.3465 51.9622 63.9369 52.0384C63.5242 52.1479 63.0926 52.1662 62.6722 52.0919C62.4959 51.9634 62.3909 51.3016 62.3272 50.8637C62.2748 50.1557 62.0554 49.47 61.6869 48.8631C61.2254 48.3298 60.6429 47.9148 59.9881 47.6528C59.5878 47.4531 58.9803 47.1503 58.9109 46.9375C58.85 46.75 59.1622 46.1472 59.3488 45.7853C59.7298 45.1694 59.9592 44.4718 60.0181 43.75C59.9589 43.0288 59.7295 42.3319 59.3488 41.7166C59.1613 41.3547 58.85 40.75 58.9119 40.5644C58.9803 40.3506 59.5878 40.0487 59.9891 39.8481C60.6437 39.5863 61.2259 39.1713 61.6869 38.6378C62.0552 38.0312 62.2747 37.3459 62.3272 36.6381C62.3947 36.2003 62.4959 35.5384 62.6722 35.41C63.0927 35.3362 63.5241 35.3544 63.9369 35.4634C64.6317 35.6313 65.3562 35.6332 66.0519 35.4691C66.694 35.2014 67.2625 34.7834 67.7094 34.2503C68.0469 33.9062 68.5091 33.4375 68.75 33.4375C68.9909 33.4375 69.4531 33.9062 69.7906 34.2484C70.2376 34.7816 70.806 35.1995 71.4481 35.4672C72.144 35.6298 72.8682 35.6279 73.5631 35.4616C73.9759 35.3525 74.4074 35.3343 74.8278 35.4081C75.0041 35.5366 75.1091 36.1984 75.1728 36.6362C75.2252 37.3443 75.4446 38.03 75.8131 38.6369C76.2746 39.1702 76.8571 39.5852 77.5119 39.8472C77.9122 40.0487 78.5197 40.3516 78.5938 40.5625Z" fill="#6169E4"/>
<path d="M68.75 37.1875C67.4521 37.1875 66.1833 37.5724 65.1041 38.2935C64.0249 39.0146 63.1837 40.0395 62.687 41.2386C62.1903 42.4378 62.0604 43.7573 62.3136 45.0303C62.5668 46.3033 63.1918 47.4726 64.1096 48.3904C65.0274 49.3082 66.1967 49.9332 67.4697 50.1864C68.7427 50.4396 70.0622 50.3097 71.2614 49.813C72.4605 49.3163 73.4854 48.4751 74.2065 47.3959C74.9276 46.3167 75.3125 45.0479 75.3125 43.75C75.3105 42.0101 74.6185 40.3421 73.3882 39.1118C72.1579 37.8815 70.4899 37.1895 68.75 37.1875ZM68.75 48.4375C67.8229 48.4375 66.9166 48.1626 66.1458 47.6475C65.3749 47.1324 64.7741 46.4004 64.4193 45.5438C64.0645 44.6873 63.9717 43.7448 64.1526 42.8355C64.3334 41.9262 64.7799 41.091 65.4354 40.4354C66.091 39.7799 66.9262 39.3334 67.8355 39.1526C68.7448 38.9717 69.6873 39.0645 70.5438 39.4193C71.4004 39.7741 72.1324 40.3749 72.6475 41.1458C73.1626 41.9166 73.4375 42.8229 73.4375 43.75C73.436 44.9927 72.9417 46.1842 72.0629 47.0629C71.1842 47.9417 69.9927 48.436 68.75 48.4375Z" fill="#6169E4"/>
<path d="M68.7497 26.875C66.4445 26.8757 64.164 27.3504 62.05 28.2697C59.9359 29.189 58.0335 30.5332 56.461 32.2188C54.6538 31.7733 52.7985 31.5529 50.9372 31.5625C40.9557 31.5625 33.0497 38.2778 31.2628 48.2828L29.3878 59.5328C29.3654 59.6671 29.3724 59.8047 29.4085 59.936C29.4446 60.0673 29.5089 60.1892 29.5969 60.2932C29.6849 60.3971 29.7944 60.4806 29.918 60.5379C30.0415 60.5953 30.176 60.625 30.3122 60.625H34.9997V72.8125C34.9997 73.0611 35.0985 73.2996 35.2743 73.4754C35.4501 73.6512 35.6886 73.75 35.9372 73.75H49.9997V82.1875C49.9997 82.4361 50.0985 82.6746 50.2743 82.8504C50.4501 83.0262 50.6886 83.125 50.9372 83.125H68.7497C68.9984 83.125 69.2368 83.0262 69.4126 82.8504C69.5885 82.6746 69.6872 82.4361 69.6872 82.1875V60.5772C74.0744 60.3366 78.1944 58.3932 81.1704 55.1607C84.1463 51.9282 85.7431 47.6619 85.6209 43.2698C85.4988 38.8778 83.6672 34.7068 80.5162 31.6448C77.3652 28.5827 73.1435 26.8714 68.7497 26.875ZM68.7497 58.75C65.9855 58.7528 63.2746 57.9896 60.9178 56.545C60.8132 56.4717 60.6947 56.4206 60.5696 56.3948C60.4444 56.369 60.3154 56.3691 60.1903 56.395C60.0652 56.4208 59.9467 56.472 59.8421 56.5453C59.7375 56.6187 59.6489 56.7126 59.5819 56.8214C59.5149 56.9302 59.4709 57.0515 59.4525 57.1779C59.4341 57.3043 59.4417 57.4332 59.4749 57.5565C59.5081 57.6799 59.5661 57.7952 59.6454 57.8953C59.7248 57.9954 59.8238 58.0783 59.9363 58.1388C62.3172 59.5979 65.0239 60.4414 67.8122 60.5931V81.25H51.8747V73.75H56.5622C56.8109 73.75 57.0493 73.6512 57.2251 73.4754C57.401 73.2996 57.4997 73.0611 57.4997 72.8125C57.4997 72.5639 57.401 72.3254 57.2251 72.1496C57.0493 71.9738 56.8109 71.875 56.5622 71.875H36.8747V68.125C43.6444 68.125 44.3747 64.8438 44.3747 63.4375C44.3747 63.1889 44.276 62.9504 44.1001 62.7746C43.9243 62.5988 43.6859 62.5 43.4372 62.5C43.1886 62.5 42.9501 62.5988 42.7743 62.7746C42.5985 62.9504 42.4997 63.1889 42.4997 63.4375C42.4997 65.8844 38.9757 66.25 36.8747 66.25V59.6875C36.8747 59.4389 36.776 59.2004 36.6001 59.0246C36.4243 58.8488 36.1859 58.75 35.9372 58.75H31.4194L33.1069 48.6025C34.755 39.3906 41.7497 33.4375 50.9372 33.4375C52.3433 33.4318 53.7466 33.564 55.1269 33.8322C53.1526 36.5264 52.0253 39.7474 51.8888 43.0847C51.7522 46.4221 52.6125 49.7245 54.36 52.5709C54.4902 52.7829 54.6992 52.9345 54.9412 52.9923C55.1831 53.0502 55.4381 53.0095 55.65 52.8794C55.862 52.7492 56.0136 52.5402 56.0714 52.2983C56.1293 52.0563 56.0886 51.8013 55.9585 51.5894C54.224 48.7599 53.4768 45.4351 53.834 42.1356C54.1913 38.836 55.6326 35.7481 57.9325 33.3554C60.2323 30.9627 63.2607 29.4002 66.5435 28.9127C69.8263 28.4252 73.1781 29.0402 76.074 30.6613C78.9699 32.2825 81.2465 34.8183 82.5471 37.8716C83.8477 40.9249 84.099 44.3234 83.2616 47.5348C82.4242 50.7462 80.5454 53.5892 77.9194 55.6187C75.2934 57.6481 72.0685 58.7494 68.7497 58.75Z" fill="#6169E4"/>
<path d="M57.5 55.9375C58.0178 55.9375 58.4375 55.5178 58.4375 55C58.4375 54.4822 58.0178 54.0625 57.5 54.0625C56.9822 54.0625 56.5625 54.4822 56.5625 55C56.5625 55.5178 56.9822 55.9375 57.5 55.9375Z" fill="#6169E4"/>
</svg>
