<svg width="110" height="110" viewBox="0 0 110 110" fill="none" xmlns="http://www.w3.org/2000/svg">
<circle cx="55" cy="55" r="55" fill="#F6F7FE"/>
<path d="M32.4994 51.5003V61.6128C32.4977 63.6184 33.0322 65.5881 34.0476 67.3178C35.063 69.0474 36.5223 70.4742 38.2744 71.4503L39.9994 72.4128V76.2503C39.9994 76.5818 40.1311 76.8997 40.3655 77.1342C40.6 77.3686 40.9179 77.5003 41.2494 77.5003H51.2494C51.5809 77.5003 51.8989 77.3686 52.1333 77.1342C52.3677 76.8997 52.4994 76.5818 52.4994 76.2503V66.8878C52.4994 63.5378 52.2244 62.3003 50.4119 60.4753L47.3244 57.3753C46.5708 56.6687 45.5982 56.2413 44.5681 56.164C43.538 56.0867 42.5125 56.3641 41.6619 56.9503L40.4119 50.7003C40.2364 49.7096 39.6929 48.8218 38.8903 48.2151C38.0877 47.6083 37.0855 47.3273 36.0844 47.4285C35.0834 47.5297 34.1576 48.0056 33.4928 48.7608C32.8279 49.5159 32.4731 50.4945 32.4994 51.5003ZM37.9619 51.2503L39.8494 60.6503C39.8494 60.8003 39.8494 60.9378 39.8494 61.0878C39.8433 61.2085 39.8433 61.3295 39.8494 61.4503C39.8494 61.6128 39.9494 61.7753 39.9994 61.9378L40.0994 62.2378C40.1829 62.4193 40.2789 62.5947 40.3869 62.7628C40.4196 62.832 40.4572 62.8989 40.4994 62.9628C40.6528 63.1961 40.8286 63.4138 41.0244 63.6128L44.0119 66.6003C44.2473 66.8356 44.5665 66.9679 44.8994 66.9679C45.2323 66.9679 45.5515 66.8356 45.7869 66.6003C46.0223 66.3649 46.1545 66.0456 46.1545 65.7128C46.1545 65.3799 46.0223 65.0606 45.7869 64.8253L42.7994 61.8378C42.4483 61.4862 42.2511 61.0096 42.2511 60.5128C42.2511 60.0159 42.4483 59.5393 42.7994 59.1878C43.1556 58.8455 43.6304 58.6544 44.1244 58.6544C44.6184 58.6544 45.0932 58.8455 45.4494 59.1878L48.5369 62.2878C49.6744 63.4253 49.8994 63.9003 49.8994 66.9253V75.0003H42.4994V71.6753C42.499 71.4538 42.4398 71.2364 42.3278 71.0453C42.2158 70.8542 42.055 70.6963 41.8619 70.5878L39.4994 69.3378C38.1241 68.5736 36.9803 67.4528 36.1884 66.0934C35.3964 64.7339 34.9857 63.186 34.9994 61.6128V51.5003C35.0176 51.1377 35.1666 50.7939 35.4189 50.5329C35.6712 50.2718 36.0096 50.1111 36.3714 50.0806C36.7332 50.05 37.0938 50.1517 37.3862 50.3668C37.6787 50.5819 37.8833 50.8958 37.9619 51.2503ZM73.4994 47.5003C72.5756 47.4976 71.6796 47.8169 70.9656 48.4031C70.2516 48.9894 69.7641 49.8061 69.5869 50.7128L68.3369 56.9628C67.4871 56.3744 66.4611 56.0956 65.4304 56.1729C64.3997 56.2503 63.4268 56.6791 62.6744 57.3878L59.5869 60.4878C57.7744 62.3003 57.4994 63.5378 57.4994 66.8878V76.2503C57.4994 76.5818 57.6311 76.8997 57.8655 77.1342C58.1 77.3686 58.4179 77.5003 58.7494 77.5003H68.7494C69.0809 77.5003 69.3989 77.3686 69.6333 77.1342C69.8677 76.8997 69.9994 76.5818 69.9994 76.2503V72.4128L71.7244 71.4503C73.4765 70.4742 74.9359 69.0474 75.9512 67.3178C76.9666 65.5881 77.5011 63.6184 77.4994 61.6128V51.5003C77.4961 50.4404 77.0736 49.4249 76.3242 48.6755C75.5748 47.926 74.5593 47.5036 73.4994 47.5003ZM74.9994 61.6128C75.0019 63.1754 74.5859 64.7103 73.7945 66.0578C73.0032 67.4053 71.8654 68.5163 70.4994 69.2753L68.1369 70.5253C67.9438 70.6338 67.7831 70.7917 67.671 70.9828C67.559 71.1739 67.4998 71.3913 67.4994 71.6128V75.0003H59.9994V66.8878C59.9994 63.8628 60.2244 63.3878 61.3619 62.2503L64.4494 59.1503C64.8056 58.808 65.2804 58.6169 65.7744 58.6169C66.2684 58.6169 66.7432 58.808 67.0994 59.1503C67.4505 59.5018 67.6478 59.9784 67.6478 60.4753C67.6478 60.9721 67.4505 61.4487 67.0994 61.8003L64.1119 64.7878C63.8765 65.0231 63.7443 65.3424 63.7443 65.6753C63.7443 66.0081 63.8765 66.3274 64.1119 66.5628C64.3473 66.7981 64.6665 66.9304 64.9994 66.9304C65.3323 66.9304 65.6515 66.7981 65.8869 66.5628L68.8744 63.5753C69.0659 63.3725 69.2414 63.1551 69.3994 62.9253C69.4459 62.8487 69.4877 62.7694 69.5244 62.6878C69.6241 62.5321 69.7118 62.3692 69.7869 62.2003C69.8299 62.0982 69.8675 61.9939 69.8994 61.8878C69.8994 61.7253 69.9994 61.5753 70.0369 61.4003C70.0438 61.2754 70.0438 61.1502 70.0369 61.0253C70.0369 60.8878 70.0369 60.7628 70.0369 60.6253L72.0369 51.2503C72.1156 50.8958 72.3201 50.5819 72.6126 50.3668C72.9051 50.1517 73.2656 50.05 73.6274 50.0806C73.9892 50.1111 74.3276 50.2718 74.5799 50.5329C74.8322 50.7939 74.9813 51.1377 74.9994 51.5003V61.6128ZM54.1244 59.6378C54.3581 59.8668 54.6722 59.9951 54.9994 59.9951C55.3266 59.9951 55.6408 59.8668 55.8744 59.6378L68.7494 46.9253C69.5363 46.1444 70.1608 45.2156 70.587 44.1922C71.0132 43.1689 71.2326 42.0713 71.2326 40.9628C71.2326 39.8542 71.0132 38.7566 70.587 37.7333C70.1608 36.71 69.5363 35.7811 68.7494 35.0003C67.1398 33.4245 64.9769 32.542 62.7244 32.542C60.4719 32.542 58.309 33.4245 56.6994 35.0003L54.9994 36.6378L53.2994 35.0003C51.6898 33.4245 49.5269 32.542 47.2744 32.542C45.0219 32.542 42.859 33.4245 41.2494 35.0003C40.4569 35.7817 39.8276 36.7129 39.398 37.7398C38.9685 38.7666 38.7473 39.8685 38.7473 40.9815C38.7473 42.0945 38.9685 43.1965 39.398 44.2233C39.8276 45.2501 40.4569 46.1813 41.2494 46.9628L54.1244 59.6378ZM43.0119 36.7503C44.1505 35.6304 45.6836 35.0027 47.2807 35.0027C48.8777 35.0027 50.4108 35.6304 51.5494 36.7503L54.1244 39.2503C54.3581 39.4793 54.6722 39.6076 54.9994 39.6076C55.3266 39.6076 55.6408 39.4793 55.8744 39.2503L58.4494 36.7503C59.5896 35.6333 61.1221 35.0078 62.7182 35.0078C64.3143 35.0078 65.8468 35.6333 66.9869 36.7503C67.5444 37.2972 67.9872 37.9498 68.2895 38.6698C68.5918 39.3899 68.7475 40.1631 68.7475 40.944C68.7475 41.725 68.5918 42.4981 68.2895 43.2182C67.9872 43.9383 67.5444 44.5908 66.9869 45.1378L54.9994 56.9878L43.0119 45.1378C42.4544 44.5908 42.0116 43.9383 41.7093 43.2182C41.407 42.4981 41.2513 41.725 41.2513 40.944C41.2513 40.1631 41.407 39.3899 41.7093 38.6698C42.0116 37.9498 42.4544 37.2972 43.0119 36.7503Z" fill="#6169E4" stroke="#F6F7FE" stroke-width="0.5"/>
<path d="M51.25 47.5H53.75V50C53.75 50.3315 53.8817 50.6495 54.1161 50.8839C54.3505 51.1183 54.6685 51.25 55 51.25C55.3315 51.25 55.6495 51.1183 55.8839 50.8839C56.1183 50.6495 56.25 50.3315 56.25 50V47.5H58.75C59.0815 47.5 59.3995 47.3683 59.6339 47.1339C59.8683 46.8995 60 46.5815 60 46.25C60 45.9185 59.8683 45.6005 59.6339 45.3661C59.3995 45.1317 59.0815 45 58.75 45H56.25V42.5C56.25 42.1685 56.1183 41.8505 55.8839 41.6161C55.6495 41.3817 55.3315 41.25 55 41.25C54.6685 41.25 54.3505 41.3817 54.1161 41.6161C53.8817 41.8505 53.75 42.1685 53.75 42.5V45H51.25C50.9185 45 50.6005 45.1317 50.3661 45.3661C50.1317 45.6005 50 45.9185 50 46.25C50 46.5815 50.1317 46.8995 50.3661 47.1339C50.6005 47.3683 50.9185 47.5 51.25 47.5Z" fill="#6169E4" stroke="#F6F7FE" stroke-width="0.5"/>
</svg>
