<svg width="70" height="70" viewBox="0 0 70 70" fill="none" xmlns="http://www.w3.org/2000/svg">
<circle cx="35" cy="35" r="35" fill="#F6F7FE"/>
<path d="M38.7154 30.0868C38.7147 30.1957 38.7106 30.3045 38.7032 30.4132C38.6995 30.4669 38.6938 30.5205 38.6881 30.574C38.6688 30.7556 38.7116 30.4243 38.6834 30.6039C38.6481 30.8291 38.5907 31.0504 38.5201 31.267C38.504 31.3164 38.4861 31.3652 38.4682 31.4139C38.4576 31.4429 38.3907 31.6064 38.46 31.4427C38.4198 31.5375 38.3746 31.6302 38.3278 31.7218C38.2269 31.9193 38.1073 32.1069 37.9773 32.2864C37.8753 32.4273 38.0683 32.1738 37.9599 32.3096C37.9281 32.3494 37.8949 32.3881 37.8617 32.4268C37.7955 32.504 37.7251 32.5777 37.6536 32.6501C37.582 32.7225 37.5067 32.7911 37.4302 32.8583C37.3919 32.8919 37.3525 32.9242 37.3131 32.9564C37.2541 33.0032 37.2601 32.9989 37.3309 32.9435C37.3037 32.9639 37.2762 32.9841 37.2486 33.0038C37.0827 33.1239 36.9064 33.2291 36.7253 33.3243C36.6341 33.3723 36.5405 33.4152 36.4461 33.4565C36.6087 33.3854 36.4465 33.4536 36.4174 33.4647C36.3526 33.4894 36.2868 33.5113 36.2209 33.5328C36.0207 33.5981 35.8149 33.6448 35.6075 33.6799C35.4282 33.7103 35.7589 33.6631 35.5775 33.6847C35.5241 33.691 35.4704 33.6954 35.4167 33.6997C35.29 33.71 35.1626 33.7123 35.0355 33.7115C34.9268 33.7109 34.8183 33.7041 34.71 33.6953C34.6565 33.6907 34.6031 33.685 34.5498 33.6783C34.7318 33.6999 34.5528 33.6764 34.5207 33.671C34.2963 33.633 34.0761 33.573 33.8609 33.4999C33.8117 33.4832 33.7632 33.4647 33.7147 33.4463C33.5498 33.3834 33.8485 33.5063 33.6871 33.4358C33.5928 33.3945 33.5008 33.3482 33.4098 33.3004C33.2135 33.1972 33.0275 33.0755 32.8497 32.9435C32.99 33.0476 32.852 32.9437 32.828 32.9241C32.7888 32.8917 32.7501 32.8585 32.7121 32.8247C32.6356 32.7575 32.5627 32.6863 32.4912 32.6139C32.4196 32.5415 32.3519 32.4653 32.2856 32.3881C32.2524 32.3494 32.2206 32.3096 32.1888 32.2698C32.3025 32.4122 32.1637 32.2316 32.1438 32.2034C32.0256 32.036 31.9225 31.8584 31.8294 31.6761C31.806 31.6302 31.7842 31.5836 31.7625 31.5369C31.7492 31.5086 31.6827 31.3464 31.7498 31.5105C31.7039 31.3982 31.6648 31.2833 31.6287 31.1676C31.5657 30.9663 31.5215 30.7596 31.4889 30.5513C31.5173 30.7326 31.4901 30.553 31.4867 30.5206C31.4813 30.4669 31.477 30.4131 31.4736 30.3593C31.4649 30.2322 31.4641 30.1046 31.4665 29.9773C31.4685 29.8689 31.4766 29.7608 31.4867 29.6529C31.4897 29.6208 31.5151 29.4402 31.4889 29.6222C31.4964 29.5696 31.506 29.5173 31.5155 29.4651C31.5562 29.2416 31.6188 29.0225 31.6944 28.8084C31.7117 28.7595 31.7308 28.7113 31.7498 28.6631C31.6849 28.8276 31.7495 28.6654 31.7625 28.6366C31.8048 28.5429 31.8522 28.4516 31.9011 28.3612C31.9499 28.2711 32.0034 28.1837 32.0584 28.0974C32.0859 28.0543 32.1149 28.0122 32.1438 27.9702C32.1632 27.942 32.301 27.7599 32.1889 27.9038C32.3141 27.7431 32.4533 27.5937 32.5998 27.4523C32.673 27.3816 32.75 27.3148 32.828 27.2495C32.8515 27.2298 32.989 27.1241 32.8497 27.2301C32.9038 27.1889 32.9596 27.15 33.0157 27.1114C33.1846 26.9951 33.3635 26.8941 33.5471 26.803C33.5934 26.7805 33.6401 26.7587 33.6871 26.7378C33.8476 26.6653 33.5506 26.7921 33.7148 26.7273C33.8277 26.6827 33.9432 26.645 34.0595 26.6102C34.1601 26.5801 34.2623 26.5556 34.3649 26.5329C34.4166 26.5215 34.4687 26.512 34.5207 26.5025C34.5524 26.4968 34.7319 26.4713 34.5498 26.4952C34.7832 26.4646 35.0192 26.4574 35.2543 26.4647C35.3624 26.4681 35.4701 26.4775 35.5775 26.4889C35.7591 26.5082 35.4279 26.4655 35.6075 26.4936C35.6599 26.5018 35.7119 26.512 35.764 26.5222C35.9866 26.5656 36.2046 26.6307 36.4175 26.7088C36.4464 26.7195 36.6099 26.7863 36.4462 26.7171C36.4937 26.7372 36.5404 26.7589 36.5871 26.7807C36.6803 26.8241 36.771 26.8726 36.8607 26.9225C36.9501 26.9723 37.0369 27.0269 37.1225 27.0829C37.1652 27.1109 37.2069 27.1403 37.2486 27.1698C37.2735 27.1874 37.4115 27.2931 37.2733 27.1854C37.4339 27.3106 37.5834 27.4498 37.7247 27.5963C37.7955 27.6695 37.8623 27.7465 37.9276 27.8245C37.9473 27.848 38.0529 27.9855 37.947 27.8462C37.9778 27.8868 38.0073 27.9285 38.0367 27.9702C38.1549 28.1376 38.258 28.3152 38.3511 28.4975C38.3746 28.5434 38.3963 28.59 38.4181 28.6367C38.4313 28.665 38.4978 28.8272 38.4307 28.6631C38.47 28.7593 38.5041 28.8575 38.5362 28.9562C38.6016 29.1564 38.6482 29.3622 38.6834 29.5697C38.7137 29.7489 38.6666 29.4182 38.6881 29.5996C38.6944 29.6531 38.6988 29.7068 38.7032 29.7604C38.712 29.8689 38.7147 29.9779 38.7154 30.0868C38.7177 30.4594 39.0246 30.7704 39.399 30.7704C39.7699 30.7704 40.0849 30.4594 40.0826 30.0868C40.0706 28.1694 38.9426 26.3518 37.1835 25.5572C35.3445 24.7265 33.2057 25.0685 31.7075 26.4161C30.2665 27.7124 29.7383 29.8529 30.3588 31.6796C30.6595 32.5648 31.2088 33.3707 31.9405 33.9549C32.7334 34.588 33.6491 34.9504 34.6564 35.0575C36.0458 35.2051 37.4453 34.6819 38.4731 33.7574C39.5014 32.8323 40.0739 31.461 40.0825 30.0868C40.0849 29.7141 39.7698 29.4032 39.3989 29.4032C39.0246 29.4032 38.7177 29.7142 38.7154 30.0868Z" fill="#6169E4"/>
<path d="M40.0268 34.9073C40.1225 34.9683 40.2165 35.0318 40.3088 35.0979C40.3269 35.1109 40.477 35.2262 40.351 35.1277C40.3956 35.1626 40.439 35.1989 40.4825 35.2351C40.6706 35.3922 40.8451 35.5651 41.0098 35.7464C41.0859 35.8302 41.1579 35.9175 41.2285 36.0059C41.1289 35.8812 41.2449 36.0301 41.2582 36.0483C41.2914 36.0943 41.3239 36.1407 41.3556 36.1877C41.4948 36.3915 41.6163 36.6069 41.7257 36.8279C41.7508 36.8793 41.775 36.9311 41.7984 36.9833C41.8778 37.1576 41.7471 36.8535 41.8189 37.0314C41.8621 37.1384 41.9 37.2475 41.936 37.3571C42.0152 37.5976 42.0728 37.8447 42.1166 38.0939C42.1206 38.1172 42.1482 38.3128 42.1266 38.1466C42.1343 38.2058 42.14 38.2652 42.1457 38.3246C42.1572 38.4446 42.1626 38.565 42.166 38.6855C42.1677 38.7477 42.1673 38.81 42.1673 38.8721V42.3573C42.1673 42.4016 42.1659 42.4234 42.1638 42.4674C42.1549 42.6493 42.1923 42.3219 42.1605 42.4989C42.1512 42.5509 42.1369 42.6019 42.1226 42.6527C42.1141 42.6828 42.0508 42.8473 42.1195 42.6851C42.0792 42.7802 42.0259 42.8691 41.9689 42.9549C41.8733 43.0989 42.0621 42.847 41.9497 42.978C41.9053 43.0298 41.8554 43.0766 41.8051 43.1226C41.6776 43.2389 41.923 43.0418 41.782 43.1418C41.7401 43.1716 41.6955 43.1974 41.651 43.2231C41.6063 43.249 41.5592 43.2707 41.5123 43.2923C41.6704 43.2195 41.5115 43.2854 41.4799 43.2954C41.4295 43.3113 41.3777 43.3223 41.3261 43.3334C41.1501 43.3709 41.4761 43.3219 41.2946 43.3366C41.257 43.3397 41.2187 43.3402 41.1809 43.3402H28.9981C28.9498 43.3402 28.9365 43.339 28.8884 43.3366C28.7065 43.3278 29.0339 43.3651 28.857 43.3334C28.8049 43.324 28.7539 43.3097 28.7031 43.2954C28.6697 43.2855 28.6366 43.2744 28.6038 43.2624C28.6864 43.2996 28.693 43.3023 28.6237 43.2706C28.5301 43.2275 28.443 43.1716 28.3591 43.112C28.4985 43.2109 28.3648 43.1106 28.3401 43.088C28.3023 43.0535 28.2677 43.0157 28.2333 42.9779C28.117 42.8504 28.3141 43.0958 28.2141 42.9548C28.1843 42.9129 28.1585 42.8683 28.1327 42.8238C28.1068 42.7791 28.0852 42.732 28.0636 42.6851C28.1391 42.8491 28.0564 42.6384 28.0462 42.602C28.0318 42.5509 28.0224 42.4985 28.013 42.4464C28.0448 42.6229 28.0183 42.4481 28.0166 42.4129C28.0155 42.3901 28.0157 42.3669 28.0157 42.344V38.993C28.0157 38.8096 28.0166 38.6268 28.0279 38.4435C28.0316 38.3837 28.0374 38.3239 28.0431 38.2642C28.0454 38.241 28.0716 38.0435 28.0481 38.2095C28.0646 38.0927 28.087 37.9767 28.1113 37.8613C28.1633 37.6146 28.237 37.3728 28.3238 37.1362C28.3436 37.0821 28.3652 37.0287 28.3868 36.9752C28.3262 37.125 28.4003 36.9487 28.4097 36.928C28.4571 36.8239 28.5096 36.7222 28.5637 36.6214C28.6804 36.4041 28.8155 36.1973 28.9612 35.9985C29.0731 35.8456 28.8748 36.1053 28.9931 35.9575C29.0285 35.9132 29.0653 35.8701 29.1021 35.827C29.1756 35.7408 29.2532 35.6582 29.3321 35.577C29.4109 35.4957 29.4936 35.4182 29.5775 35.3421C29.6196 35.3043 29.6624 35.2671 29.7057 35.2306C29.7274 35.2122 29.9178 35.0625 29.789 35.1608C29.8943 35.0804 30.0039 35.0057 30.1149 34.9334C30.4266 34.7305 30.5554 34.3313 30.3602 33.9981C30.1788 33.6884 29.7375 33.5493 29.4249 33.7529C27.7148 34.8664 26.6484 36.7665 26.6484 38.816V41.8391C26.6484 42.4113 26.6624 42.9366 26.9277 43.4685C27.3117 44.2384 28.1736 44.7075 29.0177 44.7075H41.177C42.17 44.7075 43.035 44.0806 43.3891 43.1641C43.5671 42.7035 43.5346 42.2048 43.5346 41.7209V38.8072C43.5346 37.7487 43.2471 36.7015 42.7177 35.7861C42.2332 34.9481 41.5305 34.2459 40.7169 33.7268C40.4025 33.5261 39.9643 33.6601 39.7816 33.972C39.5877 34.3029 39.7133 34.7072 40.0268 34.9073ZM49.4628 33.8879C49.4618 33.9959 49.4556 34.1039 49.4443 34.2113C49.4634 34.0299 49.4427 34.2061 49.4366 34.2394C49.4271 34.291 49.4148 34.3421 49.4025 34.3932C49.378 34.4943 49.3452 34.5931 49.3096 34.6907C49.2495 34.8557 49.3711 34.5578 49.2992 34.7174C49.2712 34.7796 49.2392 34.84 49.2066 34.9C49.1581 34.9896 49.1023 35.0751 49.0444 35.1588C48.9459 35.3011 49.1366 35.0474 49.0282 35.1821C48.9965 35.2216 48.9625 35.2594 48.9287 35.2971C48.8609 35.3726 48.7872 35.4425 48.7118 35.5101C48.674 35.544 48.6345 35.5759 48.5949 35.6076C48.7368 35.4935 48.5565 35.6295 48.5271 35.6491C48.4421 35.7057 48.3526 35.7552 48.262 35.8021C48.2165 35.8257 48.1697 35.8469 48.1229 35.8679C48.2844 35.7952 48.1247 35.8639 48.0945 35.8749C47.9965 35.9106 47.8958 35.9379 47.7946 35.9624C47.7434 35.9747 47.6915 35.9842 47.6398 35.9937C47.5621 36.0059 47.5701 36.0053 47.6636 35.9919C47.6282 35.996 47.5926 35.9994 47.557 36.0021C47.4487 36.0114 47.3398 36.0114 47.2313 36.0083C47.1774 36.0068 47.1236 36.0021 47.07 35.9975C46.8887 35.982 47.2189 36.0228 47.0407 35.9937C46.9371 35.9768 46.8351 35.9512 46.7341 35.9227C46.6842 35.9087 46.635 35.8918 46.586 35.8749C46.5535 35.8634 46.5212 35.8513 46.4892 35.8387C46.573 35.8751 46.5802 35.8778 46.5107 35.8468C46.4174 35.8048 46.3277 35.7551 46.2397 35.7032C46.1958 35.6773 46.1534 35.6491 46.111 35.6209C46.0852 35.6038 45.9467 35.5001 46.0855 35.6077C45.9116 35.4729 45.758 35.3136 45.6204 35.1426C45.73 35.2788 45.6251 35.1431 45.6071 35.1171C45.5781 35.0752 45.5514 35.0318 45.5248 34.9884C45.4712 34.9013 45.4249 34.8099 45.3812 34.7174C45.3064 34.5592 45.4339 34.8546 45.3708 34.6907C45.3521 34.6424 45.3362 34.593 45.3203 34.5437C45.2828 34.4273 45.2563 34.3077 45.2343 34.1875C45.2019 34.0098 45.2495 34.3391 45.2305 34.1582C45.2248 34.1045 45.2223 34.0507 45.2197 33.9968C45.2145 33.8883 45.2186 33.7795 45.2259 33.6712C45.2281 33.6385 45.252 33.4584 45.2258 33.6407C45.2333 33.5884 45.2438 33.5366 45.2543 33.4848C45.2784 33.3655 45.3136 33.2488 45.3531 33.1337C45.3633 33.1039 45.4302 32.9418 45.3601 33.1053C45.3803 33.0582 45.4031 33.0121 45.4259 32.9662C45.4712 32.8747 45.5239 32.7871 45.5789 32.7012C45.6064 32.6583 45.6361 32.617 45.6658 32.5758C45.5641 32.717 45.664 32.5796 45.6847 32.5548C45.7605 32.464 45.8444 32.3801 45.9309 32.2996C45.9681 32.265 46.007 32.2325 46.046 32.2C46.1046 32.153 46.0986 32.1576 46.028 32.2136C46.0553 32.1935 46.083 32.174 46.111 32.155C46.2089 32.0872 46.3128 32.0285 46.4184 31.9737C46.4639 31.9501 46.5107 31.929 46.5575 31.908C46.3893 31.9837 46.6008 31.8959 46.635 31.8841C46.7671 31.8388 46.9034 31.8073 47.0407 31.7822C47.2184 31.7497 46.8891 31.7974 47.07 31.7784C47.1416 31.7708 47.2137 31.7681 47.2856 31.766C47.4119 31.7624 47.5382 31.7707 47.6637 31.7839C47.4822 31.7649 47.6584 31.7856 47.6918 31.7917C47.7606 31.8042 47.8285 31.8213 47.8961 31.839C47.9631 31.8566 48.0289 31.8785 48.0945 31.9009C48.1269 31.9124 48.1592 31.9245 48.1912 31.9372C48.1073 31.9008 48.1002 31.8981 48.1697 31.9291C48.2785 31.978 48.3826 32.0369 48.4842 32.0993C48.5275 32.126 48.5694 32.155 48.6112 32.1839C48.6719 32.2285 48.6664 32.2232 48.5949 32.1682C48.6215 32.1892 48.6477 32.2106 48.6734 32.2325C48.7643 32.3084 48.8481 32.3922 48.9287 32.4788C48.9748 32.5283 49.0177 32.5807 49.06 32.6334C48.9459 32.4915 49.0819 32.6718 49.1015 32.7012C49.1675 32.8005 49.2244 32.9055 49.2773 33.0121C49.2915 33.0408 49.3579 33.2012 49.2911 33.0371C49.3171 33.101 49.3389 33.1665 49.3601 33.2322C49.3977 33.3486 49.4242 33.4682 49.4461 33.5885C49.4583 33.6661 49.4577 33.6582 49.4444 33.5646C49.4484 33.6001 49.4518 33.6356 49.4546 33.6713C49.4607 33.7432 49.4621 33.8156 49.4628 33.8879C49.4663 34.2605 49.7711 34.5715 50.1464 34.5715C50.5163 34.5715 50.8335 34.2605 50.83 33.8879C50.8205 32.8921 50.3967 31.9207 49.6402 31.2657C48.8225 30.5578 47.7887 30.303 46.7295 30.4552C45.7554 30.5952 44.8929 31.2385 44.371 32.0539C43.8298 32.8995 43.7116 34.0067 44.018 34.9565C44.2734 35.7482 44.8088 36.4107 45.5063 36.857C46.2372 37.3247 47.1065 37.4419 47.9509 37.3205C49.6094 37.0821 50.8144 35.5191 50.83 33.8879C50.8335 33.5152 50.5163 33.2043 50.1464 33.2043C49.7711 33.2043 49.4663 33.5153 49.4628 33.8879Z" fill="#6169E4"/>
<path d="M50.4336 37.2331C50.481 37.2635 50.5279 37.2947 50.5743 37.3267C50.5936 37.34 50.742 37.4544 50.6159 37.3548C50.704 37.4244 50.787 37.5004 50.868 37.5782C50.949 37.6559 51.0243 37.7395 51.0973 37.8248C51.1126 37.8426 51.226 37.9912 51.1297 37.8629C51.1747 37.9229 51.2164 37.9855 51.2575 38.0483C51.3193 38.143 51.3741 38.242 51.4264 38.3422C51.4526 38.3925 51.4764 38.4441 51.5001 38.4957C51.4322 38.3482 51.5091 38.5207 51.5179 38.5435C51.5589 38.651 51.5918 38.7614 51.6218 38.8724C51.637 38.9285 51.6493 38.9852 51.6616 39.0419C51.6681 39.0721 51.7065 39.3198 51.6846 39.1496C51.7486 39.6453 51.7096 40.167 51.7096 40.665V41.8798C51.7096 41.9157 51.7078 41.9516 51.7043 41.9874C51.7179 41.8934 51.7171 41.8847 51.7018 41.9613C51.6943 41.9952 51.6318 42.1529 51.7021 41.9921C51.6817 42.0387 51.6548 42.0823 51.6281 42.1255C51.5395 42.2689 51.7229 42.0212 51.6096 42.1455C51.5866 42.1707 51.4576 42.2752 51.5957 42.171C51.5552 42.2016 51.5106 42.2264 51.4663 42.2509C51.3176 42.3334 51.6027 42.2062 51.4398 42.2596C51.4051 42.2709 51.2363 42.2979 51.4158 42.2758C51.3832 42.2798 51.3396 42.2811 51.3069 42.2811H45.2268C44.8541 42.2811 44.5432 42.592 44.5432 42.9647C44.5432 43.3373 44.8541 43.6483 45.2268 43.6483H50.9604C51.4421 43.6483 51.9194 43.628 52.3262 43.3211C52.7867 42.9736 53.0768 42.4634 53.0768 41.8764V39.682C53.0768 38.8219 52.8613 37.9819 52.3757 37.2645C52.0446 36.7756 51.62 36.3713 51.1237 36.0527C50.8098 35.8512 50.3707 35.9867 50.1884 36.2979C49.9941 36.6294 50.1206 37.0322 50.4336 37.2331ZM24.9644 33.8879C24.9634 33.9959 24.9572 34.1039 24.9459 34.2113C24.965 34.0299 24.9443 34.2061 24.9382 34.2394C24.9288 34.291 24.9164 34.3421 24.9041 34.3932C24.8797 34.4943 24.8468 34.5931 24.8113 34.6907C24.7511 34.8557 24.8727 34.5578 24.8008 34.7174C24.7728 34.7796 24.7408 34.84 24.7083 34.9C24.6597 34.9896 24.6039 35.0751 24.546 35.1588C24.4475 35.3011 24.6382 35.0474 24.5299 35.1821C24.4981 35.2216 24.4642 35.2594 24.4303 35.2971C24.3626 35.3726 24.2888 35.4425 24.2134 35.5101C24.1756 35.544 24.1361 35.5759 24.0966 35.6076C24.2384 35.4935 24.0581 35.6295 24.0287 35.6491C23.9437 35.7057 23.8542 35.7552 23.7636 35.8021C23.7181 35.8257 23.6713 35.8469 23.6245 35.8679C23.786 35.7952 23.6264 35.8639 23.5961 35.8749C23.4982 35.9106 23.3975 35.9379 23.2963 35.9624C23.245 35.9747 23.1932 35.9842 23.1414 35.9937C23.0638 36.0059 23.0717 36.0053 23.1653 35.9919C23.1298 35.996 23.0942 35.9994 23.0586 36.0021C22.9503 36.0114 22.8414 36.0114 22.733 36.0083C22.6791 36.0068 22.6253 36.0021 22.5716 35.9975C22.3904 35.982 22.7206 36.0228 22.5423 35.9937C22.4387 35.9768 22.3368 35.9512 22.2358 35.9227C22.1859 35.9087 22.1367 35.8918 22.0877 35.8749C22.0552 35.8634 22.0229 35.8514 21.9909 35.8387C22.0747 35.8751 22.0819 35.8778 22.0123 35.8468C21.919 35.8048 21.8294 35.7551 21.7413 35.7032C21.6975 35.6773 21.655 35.6491 21.6127 35.6209C21.5869 35.6038 21.4484 35.5001 21.5872 35.6077C21.4133 35.4729 21.2597 35.3136 21.122 35.1426C21.2316 35.2788 21.1268 35.1431 21.1088 35.1171C21.0798 35.0752 21.0532 35.0318 21.0265 34.9884C20.9729 34.9013 20.9266 34.8099 20.8829 34.7174C20.8081 34.5592 20.9357 34.8546 20.8725 34.6907C20.8539 34.6424 20.838 34.593 20.8221 34.5437C20.7845 34.4273 20.758 34.3077 20.7361 34.1875C20.7036 34.0098 20.7513 34.3391 20.7322 34.1582C20.7266 34.1045 20.724 34.0507 20.7214 33.9968C20.7163 33.8883 20.7204 33.7795 20.7276 33.6712C20.7298 33.6385 20.7537 33.4584 20.7275 33.6407C20.735 33.5884 20.7455 33.5366 20.756 33.4848C20.7801 33.3655 20.8154 33.2488 20.8548 33.1337C20.8651 33.1039 20.9319 32.9418 20.8618 33.1053C20.882 33.0582 20.9048 33.0121 20.9276 32.9662C20.9729 32.8747 21.0257 32.7871 21.0806 32.7012C21.1081 32.6583 21.1378 32.617 21.1675 32.5758C21.0659 32.717 21.1657 32.5796 21.1864 32.5548C21.2622 32.464 21.3461 32.3801 21.4327 32.2996C21.4698 32.265 21.5088 32.2325 21.5477 32.2C21.6064 32.153 21.6004 32.1576 21.5297 32.2136C21.557 32.1936 21.5847 32.174 21.6127 32.155C21.7107 32.0872 21.8145 32.0285 21.9201 31.9737C21.9657 31.9501 22.0125 31.929 22.0592 31.908C21.891 31.9837 22.1025 31.8959 22.1366 31.8841C22.2687 31.8388 22.4051 31.8073 22.5423 31.7822C22.72 31.7497 22.3907 31.7974 22.5716 31.7784C22.6433 31.7708 22.7154 31.7681 22.7873 31.766C22.9136 31.7624 23.0398 31.7707 23.1654 31.7839C22.9839 31.7649 23.1601 31.7856 23.1934 31.7917C23.2622 31.8042 23.3301 31.8213 23.3978 31.839C23.4648 31.8566 23.5306 31.8785 23.5961 31.9009C23.6286 31.9124 23.6609 31.9245 23.6929 31.9372C23.6091 31.9008 23.6019 31.8981 23.6714 31.9291C23.7803 31.978 23.8843 32.0369 23.9859 32.0993C24.0292 32.126 24.0711 32.155 24.1129 32.1839C24.1736 32.2285 24.1681 32.2232 24.0966 32.1682C24.1232 32.1892 24.1494 32.2106 24.1751 32.2325C24.266 32.3084 24.3498 32.3922 24.4304 32.4788C24.4765 32.5283 24.5194 32.5807 24.5618 32.6334C24.4477 32.4915 24.5836 32.6718 24.6032 32.7012C24.6693 32.8005 24.7262 32.9055 24.779 33.0121C24.7932 33.0408 24.8596 33.2012 24.7928 33.0371C24.8188 33.101 24.8406 33.1665 24.8618 33.2322C24.8993 33.3486 24.9259 33.4682 24.9478 33.5885C24.96 33.6661 24.9594 33.6582 24.9461 33.5646C24.9501 33.6001 24.9535 33.6356 24.9563 33.6713C24.9623 33.7432 24.9637 33.8156 24.9644 33.8879C24.9679 34.2605 25.2727 34.5715 25.648 34.5715C26.0179 34.5715 26.3351 34.2605 26.3316 33.8879C26.3221 32.8921 25.8983 31.9207 25.1418 31.2657C24.3241 30.5578 23.2903 30.303 22.2311 30.4552C21.2571 30.5952 20.3945 31.2385 19.8727 32.0539C19.3315 32.8995 19.2132 34.0067 19.5197 34.9565C19.775 35.7482 20.3104 36.4107 21.0079 36.857C21.7388 37.3247 22.6082 37.4419 23.4526 37.3205C25.1111 37.0821 26.3161 35.5191 26.3316 33.8879C26.3352 33.5152 26.018 33.2043 25.648 33.2043C25.2726 33.2043 24.9679 33.5153 24.9644 33.8879ZM24.955 42.281H18.8997C18.8427 42.281 18.6753 42.2556 18.8429 42.2846C18.7916 42.2758 18.742 42.2595 18.6927 42.2434C18.8514 42.2953 18.7073 42.2464 18.6709 42.2262C18.6388 42.2084 18.5136 42.106 18.645 42.2151C18.6147 42.1899 18.4742 42.0242 18.5822 42.1672C18.5515 42.1266 18.5268 42.082 18.5022 42.0377C18.4198 41.8891 18.547 42.1741 18.4936 42.0113C18.4822 41.9766 18.4552 41.8077 18.4773 41.9873C18.4736 41.9568 18.4721 41.9094 18.4721 41.8788V39.5671C18.4721 39.4463 18.4793 39.326 18.4907 39.2058C18.5095 39.0085 18.4668 39.3467 18.4989 39.1525C18.5085 39.0945 18.5211 39.0371 18.5336 38.9797C18.5584 38.866 18.5919 38.7544 18.6281 38.644C18.6461 38.5892 18.6668 38.5353 18.6875 38.4815C18.6289 38.6339 18.7217 38.41 18.7348 38.3829C18.7845 38.2803 18.8417 38.1816 18.9013 38.0845C18.9309 38.0362 18.963 37.9893 18.995 37.9424C19.0077 37.9237 19.122 37.7734 19.0235 37.899C19.1748 37.706 19.3508 37.5334 19.539 37.3766C19.6839 37.2559 19.4279 37.4568 19.5804 37.3458C19.6263 37.3124 19.6738 37.2813 19.7212 37.2502C20.0322 37.0464 20.162 36.6488 19.9664 36.3149C19.7854 36.0059 19.3432 35.8652 19.0312 36.0697C18.1282 36.6614 17.4648 37.5603 17.2152 38.6163C17.0771 39.2003 17.1048 39.8013 17.1048 40.3961V41.872C17.1048 42.8526 17.919 43.6482 18.8942 43.6482H24.9549C25.3275 43.6482 25.6385 43.3373 25.6385 42.9646C25.6385 42.5919 25.3276 42.281 24.955 42.281Z" fill="#6169E4"/>
</svg>
