<svg width="70" height="70" viewBox="0 0 70 70" fill="none" xmlns="http://www.w3.org/2000/svg">
<circle cx="35" cy="35" r="35" fill="#F6F7FE"/>
<g clip-path="url(#clip0_1086_3444)">
<path d="M47.3438 30.2138C48.2757 30.2177 49.1878 29.945 49.9645 29.4302C50.7413 28.9153 51.3478 28.1815 51.7072 27.3217C52.0665 26.4618 52.1626 25.5147 51.9832 24.6002C51.8038 23.6857 51.3571 22.8451 50.6995 22.1847C50.042 21.5243 49.2032 21.074 48.2895 20.8908C47.3758 20.7075 46.4282 20.7995 45.5669 21.1553C44.7055 21.511 43.9691 22.1143 43.451 22.8889C42.9328 23.6635 42.6562 24.5744 42.6563 25.5063C42.655 26.7518 43.1479 27.9468 44.0266 28.8293C44.9054 29.7118 46.0983 30.2097 47.3438 30.2138ZM47.3438 22.0542C48.0271 22.0513 48.696 22.2513 49.2656 22.6289C49.8353 23.0064 50.28 23.5446 50.5436 24.1751C50.8071 24.8056 50.8776 25.5002 50.746 26.1708C50.6145 26.8414 50.2868 27.4579 49.8046 27.9422C49.3224 28.4265 48.7073 28.7567 48.0373 28.8911C47.3672 29.0255 46.6724 28.958 46.0407 28.6971C45.4091 28.4363 44.869 27.9938 44.4891 27.4258C44.1091 26.8578 43.9063 26.1897 43.9063 25.5063C43.9043 24.5927 44.2654 23.7157 44.91 23.0683C45.5547 22.4209 46.4301 22.0561 47.3438 22.0542ZM17.9688 25.5063C17.9727 26.4326 18.2509 27.3369 18.7684 28.1052C19.2859 28.8734 20.0193 29.4711 20.8762 29.8228C21.7331 30.1746 22.675 30.2646 23.5829 30.0815C24.4909 29.8983 25.3243 29.4503 25.9779 28.794C26.6315 28.1376 27.0759 27.3024 27.2552 26.3936C27.4344 25.4849 27.3404 24.5434 26.9851 23.688C26.6297 22.8326 26.0289 22.1017 25.2584 21.5875C24.488 21.0733 23.5825 20.7989 22.6563 20.7989C21.4108 20.803 20.2179 21.3009 19.3391 22.1834C18.4604 23.0659 17.9675 24.2609 17.9688 25.5063ZM22.6563 22.0542C23.3396 22.0513 24.0085 22.2513 24.5782 22.6289C25.1478 23.0064 25.5925 23.5446 25.8561 24.1751C26.1196 24.8056 26.1901 25.5002 26.0585 26.1708C25.927 26.8414 25.5993 27.4579 25.1171 27.9422C24.6349 28.4265 24.0198 28.7567 23.3498 28.8911C22.6797 29.0255 21.9849 28.958 21.3532 28.6971C20.7216 28.4363 20.1815 27.9938 19.8016 27.4258C19.4216 26.8578 19.2188 26.1897 19.2188 25.5063C19.2168 24.5927 19.5779 23.7157 20.2225 23.0683C20.8672 22.4209 21.7426 22.0562 22.6563 22.0542Z" fill="#6169E4"/>
<path d="M53.75 49.6714H44.5313V37.8661L53.2859 34.9354C53.8463 34.7467 54.3215 34.3652 54.627 33.8589C54.9325 33.3526 55.0484 32.7543 54.9541 32.1705C54.8598 31.5868 54.5614 31.0554 54.1121 30.671C53.6627 30.2867 53.0915 30.0742 52.5002 30.0715C52.2329 30.0716 51.9675 30.1149 51.7141 30.1999L42.7659 33.1954H40.2993C39.906 33.6722 39.4507 34.0944 38.9455 34.4507H42.9688L52.1094 31.3908C52.2635 31.3391 52.4263 31.3184 52.5884 31.3299C52.7505 31.3414 52.9087 31.3849 53.054 31.4578C53.1992 31.5308 53.3286 31.6317 53.4346 31.7549C53.5407 31.878 53.6213 32.0209 53.6719 32.1754C53.7757 32.4871 53.7518 32.8273 53.6054 33.1214C53.459 33.4155 53.202 33.6396 52.8906 33.7446L43.2813 36.9613V49.6714H26.7188V36.9613L17.1094 33.7446C16.8309 33.6507 16.5947 33.4611 16.4428 33.2095C16.291 32.9578 16.2334 32.6604 16.2802 32.3703C16.3271 32.0801 16.4754 31.816 16.6987 31.625C16.922 31.4339 17.2059 31.3283 17.4998 31.3269C17.6327 31.3269 17.7647 31.3485 17.8906 31.3908L27.0313 34.4507H31.0545C30.5493 34.0944 30.094 33.6722 29.7007 33.1954H27.2341L18.2859 30.1999C17.9759 30.0961 17.6484 30.0546 17.3223 30.0778C16.9962 30.101 16.6779 30.1885 16.3857 30.3352C16.0935 30.4819 15.8332 30.685 15.6198 30.9326C15.4064 31.1803 15.2441 31.4678 15.1423 31.7785C14.9341 32.4056 14.9826 33.0896 15.2771 33.6811C15.5716 34.2726 16.0882 34.7236 16.7141 34.9354L25.4688 37.8661V49.6714H16.25C15.9178 49.6721 15.5994 49.8048 15.365 50.0402C15.1306 50.2756 14.9993 50.5945 15 50.9267V52.1821C14.9997 52.3466 15.0317 52.5095 15.0943 52.6616C15.157 52.8137 15.2489 52.952 15.365 53.0686C15.4811 53.1852 15.619 53.2777 15.7708 53.341C15.9227 53.4043 16.0855 53.437 16.25 53.4374H53.75C54.0822 53.4367 54.4006 53.304 54.635 53.0686C54.8694 52.8332 55.0007 52.5143 55 52.1821V50.9268C55.0004 50.7623 54.9683 50.5993 54.9057 50.4472C54.843 50.2951 54.7511 50.1568 54.635 50.0402C54.5189 49.9236 54.381 49.8311 54.2292 49.7678C54.0773 49.7045 53.9145 49.6718 53.75 49.6714ZM53.75 52.1821H16.25V50.9268H53.75V52.1821Z" fill="#6169E4"/>
<path d="M32.7444 48.0986C32.8262 48.1077 32.909 48.1005 32.988 48.0775C33.067 48.0545 33.1406 48.0161 33.2048 47.9646C33.2689 47.913 33.3221 47.8493 33.3615 47.777C33.4009 47.7048 33.4257 47.6255 33.4343 47.5437L34.4249 38.5437C34.6021 38.6381 34.7998 38.6875 35.0006 38.6875C35.2014 38.6875 35.3991 38.6381 35.5764 38.5437L36.5669 47.5437C36.576 47.6253 36.601 47.7043 36.6406 47.7761C36.6802 47.8481 36.7335 47.9114 36.7976 47.9627C36.8617 48.014 36.9353 48.0522 37.0141 48.075C37.0929 48.0979 37.1755 48.105 37.2571 48.0959C37.3386 48.0869 37.4176 48.0618 37.4895 48.0222C37.5614 47.9827 37.6248 47.9293 37.6761 47.8652C37.7274 47.8011 37.7655 47.7276 37.7884 47.6487C37.8112 47.5699 37.8183 47.4874 37.8093 47.4058L36.759 37.8627L36.8753 37.7953C37.1126 37.6573 37.2982 37.4455 37.4039 37.1921C37.5095 36.9388 37.5294 36.6578 37.4604 36.3921L37.1894 35.3453C36.7937 35.4793 36.3865 35.5766 35.973 35.6358L36.2506 36.708L35.0006 37.4322L33.7506 36.708L34.0282 35.6358C33.6147 35.5766 33.2075 35.4793 32.8118 35.3453L32.5408 36.3921C32.4718 36.6578 32.4917 36.9388 32.5973 37.1921C32.703 37.4455 32.8886 37.6573 33.126 37.7953L33.2423 37.8627L32.1919 47.4058C32.1734 47.5709 32.2212 47.7366 32.3248 47.8665C32.4284 47.9964 32.5793 48.0799 32.7444 48.0986ZM40.6256 28.8019C40.6209 27.6904 40.287 26.6052 39.666 25.6833C39.0451 24.7614 38.1649 24.0441 37.1367 23.6221C36.1084 23.2 34.9781 23.092 33.8886 23.3117C32.799 23.5315 31.7989 24.0691 31.0147 24.8567C30.2304 25.6443 29.697 26.6467 29.4819 27.7372C29.2668 28.8277 29.3796 29.9574 29.806 30.9839C30.2325 32.0103 30.9535 32.8874 31.878 33.5045C32.8025 34.1215 33.8891 34.4508 35.0006 34.4508C36.4951 34.4459 37.9266 33.8485 38.9812 32.7894C40.0357 31.7304 40.6271 30.2964 40.6256 28.8019ZM35.0006 33.1955C34.1308 33.1992 33.2795 32.9446 32.5546 32.4641C31.8296 31.9836 31.2635 31.2987 30.9281 30.4962C30.5927 29.6936 30.503 28.8096 30.6705 27.9561C30.8379 27.1026 31.2549 26.318 31.8686 25.7017C32.4823 25.0853 33.2651 24.665 34.1179 24.494C34.9707 24.323 35.8551 24.4089 36.659 24.7409C37.463 25.0729 38.1502 25.636 38.6339 26.3589C39.1175 27.0819 39.3756 27.9321 39.3756 28.8019C39.3781 29.9647 38.9185 31.0808 38.098 31.9048C37.2776 32.7287 36.1634 33.193 35.0006 33.1955ZM30.6039 23.4989L28.1519 21.0364C28.094 20.9781 28.0251 20.9319 27.9493 20.9003C27.8734 20.8688 27.7921 20.8525 27.71 20.8525C27.6278 20.8525 27.5465 20.8688 27.4706 20.9003C27.3948 20.9319 27.326 20.9781 27.2681 21.0364C27.1508 21.1543 27.085 21.3139 27.085 21.4802C27.085 21.6465 27.1508 21.806 27.2681 21.924L29.7201 24.3864C29.9874 24.0646 30.2832 23.7675 30.6039 23.4989ZM42.7331 21.0364C42.6753 20.9781 42.6064 20.9319 42.5306 20.9003C42.4547 20.8688 42.3734 20.8525 42.2913 20.8525C42.2091 20.8525 42.1278 20.8688 42.0519 20.9003C41.9761 20.9319 41.9073 20.9781 41.8494 21.0364L39.3973 23.4989C39.7181 23.7675 40.0139 24.0646 40.2811 24.3864L42.7332 21.924C42.8504 21.806 42.9163 21.6465 42.9163 21.4802C42.9163 21.3139 42.8504 21.1543 42.7331 21.0364ZM35.0006 16.5625C34.8345 16.5629 34.6753 16.6292 34.5581 16.7469C34.4409 16.8646 34.3753 17.024 34.3756 17.1902V21.9274C34.5816 21.9087 34.7898 21.8976 35.0006 21.8976C35.2114 21.8976 35.4196 21.9087 35.6256 21.9274V17.1902C35.6259 17.024 35.5603 16.8646 35.4431 16.7469C35.3259 16.6292 35.1667 16.5629 35.0006 16.5625Z" fill="#6169E4"/>
</g>
<defs>
<clipPath id="clip0_1086_3444">
<rect width="40" height="40" fill="white" transform="translate(15 15)"/>
</clipPath>
</defs>
</svg>
