<svg width="110" height="110" viewBox="0 0 110 110" fill="none" xmlns="http://www.w3.org/2000/svg">
<circle cx="55" cy="55" r="55" fill="#F6F7FE"/>
<path d="M73.0206 33.3502C72.7403 33.0206 72.3916 32.7559 71.9988 32.5745C71.606 32.3931 71.1784 32.2993 70.7457 32.2995H68.1695C68.1414 32.0462 68.1106 31.8005 68.0774 31.5651C67.9848 30.9331 67.6683 30.3554 67.1855 29.9371C66.7028 29.5189 66.0859 29.2878 65.4471 29.2861H44.4297C43.791 29.2879 43.1741 29.5189 42.6914 29.9372C42.2087 30.3555 41.8922 30.9332 41.7995 31.5652C41.7664 31.8006 41.7357 32.0463 41.7074 32.2995H39.1312C38.6985 32.2996 38.2709 32.3936 37.8781 32.5751C37.4852 32.7566 37.1365 33.0213 36.8559 33.3507C36.5754 33.6802 36.3697 34.0667 36.2531 34.4834C36.1365 34.9001 36.1118 35.3372 36.1807 35.7644L36.7452 39.2618C37.226 42.2535 38.5613 45.0424 40.5905 47.2928C42.6196 49.5432 45.2559 51.1591 48.1821 51.9458C49.1972 53.0331 50.3051 54.0299 51.4932 54.9248C51.0711 55.1631 50.727 55.5186 50.5026 55.9483C50.2781 56.378 50.183 56.8636 50.2285 57.3462C50.2741 57.8288 50.4585 58.2879 50.7594 58.668C51.0603 59.0481 51.4648 59.333 51.9241 59.4881C51.8105 60.5881 51.5235 61.6633 51.0738 62.6736C49.8641 65.3808 47.757 66.9305 46.5027 67.6567H46.1996C45.7336 67.6572 45.2868 67.8426 44.9572 68.1721C44.6277 68.5016 44.4423 68.9484 44.4418 69.4145V75.6924H43.1862C42.7202 75.6929 42.2734 75.8783 41.9438 76.2078C41.6143 76.5374 41.4289 76.9842 41.4284 77.4502V78.9569C41.4289 79.4229 41.6143 79.8697 41.9438 80.1993C42.2734 80.5288 42.7202 80.7142 43.1862 80.7147H66.6907C67.1567 80.7142 67.6035 80.5288 67.9331 80.1993C68.2626 79.8697 68.448 79.4229 68.4485 78.9569V77.4502C68.448 76.9842 68.2626 76.5374 67.9331 76.2078C67.6035 75.8783 67.1567 75.6929 66.6907 75.6924H65.4351V69.4145C65.4346 68.9484 65.2492 68.5016 64.9197 68.1721C64.5901 67.8426 64.1433 67.6572 63.6773 67.6567H63.3742C62.1198 66.9304 60.0128 65.3808 58.8031 62.6735C58.3534 61.6632 58.0664 60.5881 57.9527 59.4881C58.412 59.333 58.8166 59.0481 59.1175 58.668C59.4184 58.2879 59.6028 57.8288 59.6483 57.3462C59.6939 56.8636 59.5987 56.378 59.3743 55.9483C59.1499 55.5186 58.8058 55.1631 58.3837 54.9248C59.5718 54.0299 60.6797 53.0331 61.6948 51.9458C64.6209 51.1591 67.2573 49.5432 69.2864 47.2929C71.3155 45.0426 72.6509 42.2536 73.1317 39.262L73.6962 35.7642C73.7654 35.3369 73.7408 34.8997 73.6241 34.4828C73.5075 34.066 73.3015 33.6795 73.0206 33.3502ZM38.2327 39.0219L37.6682 35.5246C37.6341 35.3127 37.6463 35.096 37.7042 34.8893C37.762 34.6827 37.8639 34.4911 38.0031 34.3277C38.1422 34.1643 38.3151 34.0331 38.5098 33.943C38.7046 33.853 38.9166 33.8063 39.1312 33.8062H41.5855C41.3773 37.6846 42.0855 41.5575 43.6529 45.1112C44.3654 46.7203 45.2503 48.2474 46.2922 49.6657C44.18 48.6871 42.3405 47.2047 40.9352 45.3488C39.5299 43.4929 38.6019 41.3203 38.2327 39.0219ZM66.6907 77.1991C66.7573 77.1992 66.8211 77.2256 66.8682 77.2727C66.9152 77.3198 66.9417 77.3836 66.9418 77.4502V78.9569C66.9417 79.0235 66.9152 79.0873 66.8682 79.1344C66.8211 79.1814 66.7573 79.2079 66.6907 79.208H43.1862C43.1196 79.2079 43.0558 79.1814 43.0087 79.1344C42.9617 79.0873 42.9352 79.0235 42.9351 78.9569V77.4502C42.9352 77.3836 42.9617 77.3198 43.0087 77.2727C43.0558 77.2256 43.1196 77.1992 43.1862 77.1991H66.6907ZM63.172 69.1634L63.1743 69.1635L63.1766 69.1634H63.6773C63.7439 69.1634 63.8077 69.1899 63.8548 69.237C63.9018 69.2841 63.9283 69.3479 63.9284 69.4145V75.6924H45.9485V69.4145C45.9486 69.3479 45.975 69.2841 46.0221 69.237C46.0692 69.1899 46.133 69.1634 46.1996 69.1634H46.7003L46.7025 69.1635L46.7048 69.1634H63.172ZM60.7619 67.6567H49.115C50.5442 66.473 51.6846 64.979 52.4495 63.2883C52.968 62.1255 53.2979 60.8875 53.4268 59.621H56.4501C56.579 60.8875 56.9089 62.1255 57.4274 63.2883C58.1923 64.979 59.3327 66.473 60.7619 67.6567ZM57.1483 58.1143H52.7286C52.4622 58.1143 52.2067 58.0084 52.0184 57.8201C51.83 57.6317 51.7242 57.3762 51.7242 57.1098C51.7242 56.8434 51.83 56.5879 52.0184 56.3995C52.2067 56.2112 52.4622 56.1053 52.7286 56.1053H53.3966C53.4201 56.1063 53.4436 56.1064 53.4669 56.1053H56.4228C56.4305 56.1055 56.4381 56.1067 56.4458 56.1067C56.4527 56.1067 56.4595 56.1055 56.4663 56.1053H57.1483C57.4147 56.1053 57.6702 56.2112 57.8585 56.3995C58.0469 56.5879 58.1527 56.8434 58.1527 57.1098C58.1527 57.3762 58.0469 57.6317 57.8585 57.8201C57.6702 58.0084 57.4147 58.1143 57.1483 58.1143ZM56.2256 54.5986H53.6513C51.3887 53.1271 47.4377 49.9425 45.0306 44.5017C42.8153 39.4937 42.862 34.8171 43.2914 31.7758C43.3319 31.5028 43.4691 31.2534 43.678 31.073C43.8869 30.8926 44.1536 30.7932 44.4296 30.7928H65.4471C65.7232 30.7931 65.9899 30.8925 66.1988 31.073C66.4077 31.2534 66.5448 31.5028 66.5853 31.7758C67.0148 34.8171 67.0615 39.4937 64.8462 44.5017C62.4391 49.9425 58.4881 53.127 56.2255 54.5986H56.2256ZM72.2088 35.5243L71.6443 39.0221C71.275 41.3205 70.347 43.493 68.9417 45.3489C67.5364 47.2047 65.6968 48.6871 63.5847 49.6657C64.6266 48.2474 65.5115 46.7203 66.224 45.1112C67.7913 41.5575 68.4996 37.6846 68.2914 33.8062H70.7457C70.9603 33.8063 71.1722 33.853 71.367 33.943C71.5618 34.033 71.7347 34.1642 71.8738 34.3275C72.0129 34.4909 72.1149 34.6825 72.1728 34.8891C72.2306 35.0957 72.2429 35.3124 72.2088 35.5243Z" fill="#6169E4" stroke="#6169E4" stroke-width="0.5"/>
</svg>
